<svg xmlns="http://www.w3.org/2000/svg" viewBox="0 0 87.09 80.5"><defs><style>.cls-1{opacity:0.1;}.cls-2{fill:none;stroke:#042c3c;stroke-linecap:round;stroke-linejoin:round;stroke-width:0.6px;}</style></defs><g id="Layer_2" data-name="Layer 2"><g id="OBJECTS"><g class="cls-1"><path class="cls-2" d="M83.55,40.48C97.8,60.19,61.17,84.62,49.71,62.19,47.44,57.76,47.26,52.85,46.9,48a29.23,29.23,0,0,0-8-18.1l-8.71-9,.21-.16c.58.81,5.14-1.5,10.2-5.15s8.66-7.26,8.08-8.06l.21-.15,3.76,7.17,1,2,.83,1.58A30,30,0,0,0,70.16,32c.71.28,1.43.54,2.16.77L73,33A20.11,20.11,0,0,1,83.55,40.48Z"/><path class="cls-2" d="M48.72,7.55c.58.8-3,4.41-8.08,8.06s-9.62,6-10.2,5.15,3-4.41,8.09-8.06S48.14,6.75,48.72,7.55Z"/><path class="cls-2" d="M72.55,16.7a13.45,13.45,0,0,1-.23,16.05c-.73-.23-1.45-.49-2.16-.77A30,30,0,0,1,54.55,18.13l-.83-1.58-1-2A13.43,13.43,0,0,1,72.55,16.7Z"/><path class="cls-2" d="M70.8,18a11.27,11.27,0,0,1-.64,14A30,30,0,0,1,54.55,18.13l-.83-1.58A13,13,0,0,1,55,15.43,11.29,11.29,0,0,1,70.8,18Z"/><path class="cls-2" d="M9.91,55.09a12.43,12.43,0,0,0-3.63,3.56c-3.08,4.69-2.5,12,.51,16.54,2.79,4.23,9.21,6.93,13.6,3.34,3.36-2.74,5.23-8.2,3.17-12.23s-7.39-3.68-10.29-1A5.74,5.74,0,0,0,12,71.49c.42,1.07,1.6,2.68,2.86,2.9"/><path class="cls-2" d="M6,30a12.56,12.56,0,0,0-3.64,3.55c-3.07,4.69-2.49,12,.52,16.54,2.78,4.23,9.21,6.93,13.6,3.35,3.36-2.74,5.22-8.2,3.17-12.24s-7.39-3.67-10.29-.95A5.73,5.73,0,0,0,8,46.35c.43,1.08,1.6,2.69,2.87,2.9"/><path class="cls-2" d="M19.45,49.78a16.93,16.93,0,0,0,1.89,12.67c2.7,4.29,9.07,7.12,13.53,3.62,3.42-2.67,5.39-8.09,3.42-12.16S31,50.08,28,52.75a5.73,5.73,0,0,0-1.45,6.11c.4,1.08,1.54,2.71,2.8,3"/><path class="cls-2" d="M10.83,12.72a12.31,12.31,0,0,0-3.64,3.55c-3.08,4.69-2.5,12,.51,16.54,2.79,4.23,9.21,6.93,13.61,3.35,3.35-2.75,5.22-8.2,3.16-12.24s-7.39-3.68-10.29-1a5.74,5.74,0,0,0-1.32,6.14c.42,1.08,1.6,2.69,2.86,2.9"/><path class="cls-2" d="M36.51,8.1a12.54,12.54,0,0,0-2.86-4.21C29.56,0,22.29-.65,17.27,1.51c-4.65,2-8.43,7.86-5.66,12.82,2.11,3.78,7.16,6.57,11.49,5.25s4.91-6.64,2.73-10A5.75,5.75,0,0,0,20,7.23c-1.13.23-2.92,1.11-3.35,2.32"/><path class="cls-2" d="M61.11,26.46S54.44,36.32,44.3,37.82"/><path class="cls-2" d="M66.39,30.18s-5.3,14.65-19.91,14.58"/><path class="cls-2" d="M51.72,12.72S47,21.17,34.45,25.27"/><path class="cls-2" d="M85.24,43.31S83.81,65.43,56.43,69.36"/></g></g></g></svg>