<svg xmlns="http://www.w3.org/2000/svg" viewBox="0 0 92.4 92.4"><defs><style>.cls-1{opacity:0.1;}.cls-2{fill:none;}.cls-2,.cls-3{stroke:#042c3c;stroke-linecap:round;stroke-linejoin:round;stroke-width:0.6px;}.cls-3{fill:#fff;}</style></defs><g id="Layer_2" data-name="Layer 2"><g id="OBJECTS"><g class="cls-1"><line class="cls-2" x1="12.09" y1="80.31" x2="73.64" y2="18.76"/><polygon class="cls-2" points="75.43 24.73 73.64 18.76 67.67 16.97 78.74 13.66 75.43 24.73"/><polygon class="cls-2" points="12.09 80.31 5.19 80.7 0.3 85.59 7.2 85.2 6.81 92.1 11.7 87.2 12.09 80.31"/><path class="cls-2" d="M92.1,72.91S79.9,64.07,74.47,51.62c-3.84-8.81-4.82-13.84-8-18.94a21,21,0,0,0-6.77-6.78c-5.09-3.15-10.13-4.13-18.95-8C28.33,12.5,19.49.3,19.49.3a61.7,61.7,0,0,0,28.93,14c10.06,1.81,15.74,5.89,18.75,9,.65.68,1.31,1.34,2,2,3.14,3,7.18,8.71,9,18.68A61.7,61.7,0,0,0,92.1,72.91Z"/><path class="cls-2" d="M84.77,66.38S41.16,82,16.23,76.16C10.38,51.23,26,7.63,26,7.63"/><circle class="cls-3" cx="14.21" cy="78.18" r="1.47"/><circle class="cls-3" cx="17.38" cy="75.02" r="1.47"/><circle class="cls-3" cx="20.54" cy="71.87" r="1.47"/><line class="cls-2" x1="7.2" y1="85.2" x2="12.09" y2="80.31"/><polyline class="cls-2" points="9.64 89.26 9.64 82.75 3.13 82.75"/></g></g></g></svg>