<svg xmlns="http://www.w3.org/2000/svg" viewBox="0 0 107.68 73.92"><defs><style>.cls-1{opacity:0.1;}.cls-2{fill:none;stroke:#042c3c;stroke-linecap:round;stroke-linejoin:round;stroke-width:0.6px;}</style></defs><g id="Layer_2" data-name="Layer 2"><g id="OBJECTS"><g class="cls-1"><path class="cls-2" d="M32.55,23.28c5.08,2.6,7.19,8.36,8,14,.1.68.17,1.35.22,2a53.74,53.74,0,0,1-.46,12.34"/><path class="cls-2" d="M40.5,37.29a8.17,8.17,0,0,0-7.5-2.5"/><path class="cls-2" d="M34.66,34.66s-.47,4.75,6.07,4.66"/><path class="cls-2" d="M60.32,61.13c-.64,1.28-2.78.71-3.42,2.64s-3.06,1.78-3.06,1.78-2.42.14-3.07-1.78S48,62.41,47.35,61.13s0-1.28,0-1.28l6.49.36,6.48-.36S61,59.85,60.32,61.13Z"/><path class="cls-2" d="M77.23,30.77h0"/><path class="cls-2" d="M94.29,18.13l-1,.26c-1,.28-3.06.8-7.1,1.8-6.92,1.71-9.67,6-9.85,6.34a23.19,23.19,0,0,0-1.24-3.23c.22-.55,2.16-4.91,8.17-5.17,4.39-.21,7.91-.13,9.69-.06Z"/><path class="cls-2" d="M75.15,23.3l0,.05c-5.07,2.6-7.18,8.35-7.95,14-.1.68-.17,1.37-.22,2h0a54,54,0,0,0,.47,12.33"/><path class="cls-2" d="M76.39,26.53h0"/><path class="cls-2" d="M67.17,37.37a8.17,8.17,0,0,1,7.51-2.5"/><path class="cls-2" d="M73,34.73s.47,4.76-6.07,4.66"/><path class="cls-2" d="M62.6,69.12s-6.47,2.16-8.76-1V68c-2.29,3.16-8.76,1-8.76,1"/><line class="cls-2" x1="53.84" y1="68.11" x2="53.84" y2="65.55"/><path class="cls-2" d="M31.3,26.46a22.75,22.75,0,0,0-.85,4.24,18.88,18.88,0,0,1-8.08-.41,14.87,14.87,0,0,1-2.25-.81,14.43,14.43,0,0,1-1.46-.75c-4.09-2.42-5-7.07-5.21-9.36-.07-.81-.06-1.32-.06-1.32l1,.28c1,.27,3.07.79,7,1.78C28.63,21.89,31.3,26.46,31.3,26.46Z"/><path class="cls-2" d="M32.55,23.28a21.87,21.87,0,0,0-1.25,3.18s-2.67-4.57-9.86-6.35c-4-1-6-1.51-7-1.78l-1-.28L14.74,18c1.81-.07,5.29-.14,9.62.06C30.76,18.33,32.55,23.28,32.55,23.28Z"/><path class="cls-2" d="M45.74,11.47a23.41,23.41,0,0,0-8.59,5.39,19.25,19.25,0,0,0-6.5-3.2,4.52,4.52,0,0,0-.61-.15l-.6-.12a4.48,4.48,0,0,0-.6-.11,5.21,5.21,0,0,0-.57-.08,13.61,13.61,0,0,0-2.3-.07,15.61,15.61,0,0,0-2.32.24,16.32,16.32,0,0,0-2.41.65,17.34,17.34,0,0,0-4.85,2.56A19.84,19.84,0,0,0,14.74,18l-1.35.06s0,.51.06,1.32a15.81,15.81,0,0,0-1.13,1.46,20.53,20.53,0,0,0-2.66,5.29,21.29,21.29,0,0,0-1.07,6A16.7,16.7,0,0,0,9.34,38l.23.69.26.62.31.63.35.6a10.26,10.26,0,0,0,1.76,2.14A6.86,6.86,0,0,0,14.36,44a4.5,4.5,0,0,0,2.26.31l.29-.05a1.67,1.67,0,0,0,.3-.08,3.57,3.57,0,0,0,.61-.19A6.35,6.35,0,0,0,19,43.39a6,6,0,0,0,1.79-2,10.8,10.8,0,0,0,.95-6.18,17.32,17.32,0,0,0-1.62-5.74,14.87,14.87,0,0,0,2.25.81,19.63,19.63,0,0,1,1.92,4.4,16.22,16.22,0,0,1,.63,4,13.53,13.53,0,0,1-.09,2.1,12.86,12.86,0,0,1-.5,2.13,11,11,0,0,1-1,2.06,9.79,9.79,0,0,1-1.47,1.81,10.17,10.17,0,0,1-1.85,1.43,9.33,9.33,0,0,1-1.05.56l-.54.24-.59.2a9.6,9.6,0,0,1-5,.23,12.75,12.75,0,0,1-4.36-1.87,16.83,16.83,0,0,1-3.38-3l-.71-.88-.65-.94-.6-1-.51-1A24.11,24.11,0,0,1,.42,32.41,29.61,29.61,0,0,1,.89,23.9a30.84,30.84,0,0,1,3-8.13,37.19,37.19,0,0,1,2.3-3.69A33.15,33.15,0,0,1,8.93,8.65a34.44,34.44,0,0,1,3.28-3.08A27.6,27.6,0,0,1,16.07,3a23.56,23.56,0,0,1,4.44-1.84A20.5,20.5,0,0,1,25.4.33a19.86,19.86,0,0,1,5,.36A22.26,22.26,0,0,1,35,2.18,23.83,23.83,0,0,1,42.58,7.5,26.34,26.34,0,0,1,45.74,11.47Z"/><path class="cls-2" d="M67.42,51.66v.07c.06.72.09,1.47.09,2.22,0,10.86-6.13,19.67-13.67,19.67S40.17,64.81,40.17,54c0-.77,0-1.54.09-2.29A22.71,22.71,0,0,1,30.34,33c0-.76,0-1.52.11-2.27a22.75,22.75,0,0,1,.85-4.24,21.87,21.87,0,0,1,1.25-3.18,22.79,22.79,0,0,1,4.15-6l.45-.44a23.41,23.41,0,0,1,8.59-5.39,24.1,24.1,0,0,1,16.19,0h0a23.56,23.56,0,0,1,8.58,5.38c.15.14.3.3.45.45a22.84,22.84,0,0,1,4.18,6,23.19,23.19,0,0,1,1.24,3.23,22,22,0,0,1,.84,4.24,20,20,0,0,1,.11,2.2A22.71,22.71,0,0,1,67.42,51.66Z"/><path class="cls-2" d="M94.24,19.38c-.19,2.26-1.09,7-5.23,9.42a13.15,13.15,0,0,1-1.49.77,15.09,15.09,0,0,1-2.27.81,18.8,18.8,0,0,1-8,.39,22,22,0,0,0-.84-4.24c.18-.32,2.93-4.63,9.85-6.34,4-1,6.07-1.52,7.1-1.8l1-.26A10.48,10.48,0,0,1,94.24,19.38Z"/><path class="cls-2" d="M107.27,32.41a24.14,24.14,0,0,1-2.3,8.34l-.51,1-.59,1-.66.94-.71.88a16.78,16.78,0,0,1-3.37,3,12.75,12.75,0,0,1-4.36,1.87,9.6,9.6,0,0,1-5-.23l-.58-.2c-.2-.07-.38-.16-.56-.24-.35-.19-.73-.35-1-.56a10.1,10.1,0,0,1-1.84-1.43A10.27,10.27,0,0,1,84.3,45a11,11,0,0,1-1-2.06,11.09,11.09,0,0,1-.49-2.13,13.55,13.55,0,0,1-.1-2.1,16.23,16.23,0,0,1,.64-4,19.42,19.42,0,0,1,1.86-4.31,15.09,15.09,0,0,0,2.27-.81,17.23,17.23,0,0,0-1.58,5.65,10.64,10.64,0,0,0,1,6.18,5.75,5.75,0,0,0,1.79,2,6.19,6.19,0,0,0,1.16.63,4,4,0,0,0,.62.19,1.38,1.38,0,0,0,.29.08l.3.05A4.5,4.5,0,0,0,93.32,44a6.86,6.86,0,0,0,2.11-1.4,10,10,0,0,0,1.76-2.14l.35-.6.3-.63.27-.62.23-.69a16.7,16.7,0,0,0,.75-5.87,20.95,20.95,0,0,0-3.72-11.25,18.1,18.1,0,0,0-1.13-1.45,10.48,10.48,0,0,0,.05-1.25L93,18.07a17.25,17.25,0,0,0-1.73-1.49A17,17,0,0,0,86.44,14,16.32,16.32,0,0,0,84,13.37a15.74,15.74,0,0,0-2.33-.24,13.46,13.46,0,0,0-2.29.07c-.19,0-.38.06-.58.08a4.65,4.65,0,0,0-.59.11l-.61.12a4.92,4.92,0,0,0-.61.15,19.4,19.4,0,0,0-6.5,3.19,23.56,23.56,0,0,0-8.58-5.38,26.27,26.27,0,0,1,3.15-4,23.77,23.77,0,0,1,7.56-5.32A22.07,22.07,0,0,1,77.29.69a19.81,19.81,0,0,1,5-.36,20.5,20.5,0,0,1,4.89.82A23.94,23.94,0,0,1,91.61,3a28.82,28.82,0,0,1,3.86,2.58,35.69,35.69,0,0,1,3.28,3.08,33.15,33.15,0,0,1,2.76,3.43,39,39,0,0,1,2.29,3.69,29.35,29.35,0,0,1,3.47,16.64Z"/><path class="cls-2" d="M72.11,2.43s7.6,4.71,6.13,11"/><path class="cls-2" d="M88.23,1.49s4.93,6.82,0,13.25"/><path class="cls-2" d="M102.39,13.39s0,7.47-7,7.44"/><path class="cls-2" d="M107.38,31s-1.52,3.14-8.28,2"/><path class="cls-2" d="M98.38,48a4.78,4.78,0,0,1-3.48-4.92"/><path class="cls-2" d="M84.3,45s.46-3,2.6-3.55"/><path class="cls-2" d="M35.57,2.43s-7.6,4.71-6.13,11"/><path class="cls-2" d="M19.45,1.49s-4.93,6.82,0,13.25"/><path class="cls-2" d="M5.29,13.39s0,7.47,7,7.44"/><path class="cls-2" d="M.3,31s1.52,3.14,8.28,2"/><path class="cls-2" d="M9.3,48a4.78,4.78,0,0,0,3.48-4.92"/><path class="cls-2" d="M23.38,45s-.46-3-2.6-3.55"/><line class="cls-2" x1="47.35" y1="59.85" x2="40.73" y2="39.32"/><line class="cls-2" x1="60.32" y1="59.85" x2="66.95" y2="39.39"/></g></g></g></svg>