<svg xmlns="http://www.w3.org/2000/svg" xmlns:xlink="http://www.w3.org/1999/xlink" viewBox="0 0 509.03 277.62"><defs><style>.cls-1{mask:url(#mask);filter:url(#luminosity-noclip-9);}.cls-10,.cls-12,.cls-14,.cls-16,.cls-2,.cls-4,.cls-6,.cls-8{mix-blend-mode:multiply;}.cls-2{fill:url(#radial-gradient);}.cls-3{mask:url(#mask-2);filter:url(#luminosity-noclip-14);}.cls-4{fill:url(#radial-gradient-2);}.cls-5{mask:url(#mask-3);filter:url(#luminosity-noclip-15);}.cls-6{fill:url(#radial-gradient-3);}.cls-7{mask:url(#mask-4);filter:url(#luminosity-noclip-16);}.cls-8{fill:url(#radial-gradient-4);}.cls-9{mask:url(#mask-5);filter:url(#luminosity-noclip-10);}.cls-10{fill:url(#radial-gradient-5);}.cls-11{mask:url(#mask-6);filter:url(#luminosity-noclip-11);}.cls-12{fill:url(#radial-gradient-6);}.cls-13{mask:url(#mask-7);filter:url(#luminosity-noclip-12);}.cls-14{fill:url(#radial-gradient-7);}.cls-15{mask:url(#mask-8);filter:url(#luminosity-noclip-13);}.cls-16{fill:url(#radial-gradient-8);}.cls-17{isolation:isolate;}.cls-18{mask:url(#mask-9);}.cls-19,.cls-24,.cls-26,.cls-28,.cls-30,.cls-32,.cls-34,.cls-36,.cls-37{mix-blend-mode:color-dodge;}.cls-19{fill:url(#radial-gradient-9);}.cls-20{opacity:0.36;mix-blend-mode:screen;}.cls-21{opacity:0.31;}.cls-22{fill:#fff;opacity:0.52;}.cls-23{mask:url(#mask-10);}.cls-24{fill:url(#radial-gradient-10);}.cls-25{mask:url(#mask-11);}.cls-26{fill:url(#radial-gradient-11);}.cls-27{mask:url(#mask-12);}.cls-28{fill:url(#radial-gradient-12);}.cls-29{mask:url(#mask-13);}.cls-30{fill:url(#radial-gradient-13);}.cls-31{mask:url(#mask-14);}.cls-32{fill:url(#radial-gradient-14);}.cls-33{mask:url(#mask-15);}.cls-34{fill:url(#radial-gradient-15);}.cls-35{mask:url(#mask-16);}.cls-36{fill:url(#radial-gradient-16);}.cls-38{fill:url(#White_Gold);}.cls-39{fill:url(#White_Gold-2);}.cls-40{filter:url(#luminosity-noclip-8);}.cls-41{filter:url(#luminosity-noclip-7);}.cls-42{filter:url(#luminosity-noclip-6);}.cls-43{filter:url(#luminosity-noclip-5);}.cls-44{filter:url(#luminosity-noclip-4);}.cls-45{filter:url(#luminosity-noclip-3);}.cls-46{filter:url(#luminosity-noclip-2);}.cls-47{filter:url(#luminosity-noclip);}</style><filter id="luminosity-noclip" x="0" y="-10048.23" width="83.86" height="32766" filterUnits="userSpaceOnUse" color-interpolation-filters="sRGB"><feFlood flood-color="#fff" result="bg"/><feBlend in="SourceGraphic" in2="bg"/></filter><mask id="mask" x="0" y="-10048.23" width="83.86" height="32766" maskUnits="userSpaceOnUse"><g class="cls-47"/></mask><radialGradient id="radial-gradient" cx="-20158.11" cy="6099.96" r="375.28" gradientTransform="matrix(0.07, 0.09, -0.08, 0.07, 2058.86, 1370.39)" gradientUnits="userSpaceOnUse"><stop offset="0" stop-color="#fff"/><stop offset="0.12" stop-color="#e5e5e5"/><stop offset="0.42" stop-color="#acacac"/><stop offset="0.68" stop-color="#818181"/><stop offset="0.88" stop-color="#686868"/><stop offset="1" stop-color="#5e5e5e"/></radialGradient><filter id="luminosity-noclip-2" x="477.45" y="-10048.23" width="7.6" height="32766" filterUnits="userSpaceOnUse" color-interpolation-filters="sRGB"><feFlood flood-color="#fff" result="bg"/><feBlend in="SourceGraphic" in2="bg"/></filter><mask id="mask-2" x="477.45" y="-10048.23" width="7.6" height="32766" maskUnits="userSpaceOnUse"><g class="cls-46"/></mask><radialGradient id="radial-gradient-2" cx="-16660.23" cy="3962.53" r="34.03" xlink:href="#radial-gradient"/><filter id="luminosity-noclip-3" x="442.06" y="-10048.23" width="66.97" height="32766" filterUnits="userSpaceOnUse" color-interpolation-filters="sRGB"><feFlood flood-color="#fff" result="bg"/><feBlend in="SourceGraphic" in2="bg"/></filter><mask id="mask-3" x="442.06" y="-10048.23" width="66.97" height="32766" maskUnits="userSpaceOnUse"><g class="cls-45"/></mask><radialGradient id="radial-gradient-3" cx="-16377.32" cy="4287.63" r="299.73" xlink:href="#radial-gradient"/><filter id="luminosity-noclip-4" x="495.14" y="-10048.23" width="7.61" height="32766" filterUnits="userSpaceOnUse" color-interpolation-filters="sRGB"><feFlood flood-color="#fff" result="bg"/><feBlend in="SourceGraphic" in2="bg"/></filter><mask id="mask-4" x="495.14" y="-10048.23" width="7.61" height="32766" maskUnits="userSpaceOnUse"><g class="cls-44"/></mask><radialGradient id="radial-gradient-4" cx="-16108.58" cy="4248.52" r="34.01" xlink:href="#radial-gradient"/><filter id="luminosity-noclip-5" x="66.46" y="-10048.23" width="9.52" height="32766" filterUnits="userSpaceOnUse" color-interpolation-filters="sRGB"><feFlood flood-color="#fff" result="bg"/><feBlend in="SourceGraphic" in2="bg"/></filter><mask id="mask-5" x="66.46" y="-10048.23" width="9.52" height="32766" maskUnits="userSpaceOnUse"><g class="cls-43"/></mask><radialGradient id="radial-gradient-5" cx="-19821.63" cy="6050.93" r="42.58" xlink:href="#radial-gradient"/><filter id="luminosity-noclip-6" x="254.81" y="-10048.23" width="164.45" height="32766" filterUnits="userSpaceOnUse" color-interpolation-filters="sRGB"><feFlood flood-color="#fff" result="bg"/><feBlend in="SourceGraphic" in2="bg"/></filter><mask id="mask-6" x="254.81" y="-10048.23" width="164.45" height="32766" maskUnits="userSpaceOnUse"><g class="cls-42"/></mask><radialGradient id="radial-gradient-6" cx="-14179.55" cy="15030.11" r="751.71" gradientTransform="matrix(0.02, 0.11, -0.11, 0.02, 2243.37, 1422.49)" xlink:href="#radial-gradient"/><filter id="luminosity-noclip-7" x="352.14" y="-10048.23" width="18.67" height="32766" filterUnits="userSpaceOnUse" color-interpolation-filters="sRGB"><feFlood flood-color="#fff" result="bg"/><feBlend in="SourceGraphic" in2="bg"/></filter><mask id="mask-7" x="352.14" y="-10048.23" width="18.67" height="32766" maskUnits="userSpaceOnUse"><g class="cls-41"/></mask><radialGradient id="radial-gradient-7" cx="-85810.13" cy="13987.21" r="29.78" gradientTransform="matrix(0.06, 0.32, -0.31, 0.06, 9736.71, 27272.84)" xlink:href="#radial-gradient"/><filter id="luminosity-noclip-8" x="424.37" y="-10048.23" width="66.97" height="32766" filterUnits="userSpaceOnUse" color-interpolation-filters="sRGB"><feFlood flood-color="#fff" result="bg"/><feBlend in="SourceGraphic" in2="bg"/></filter><mask id="mask-8" x="424.37" y="-10048.23" width="66.97" height="32766" maskUnits="userSpaceOnUse"><g class="cls-40"/></mask><radialGradient id="radial-gradient-8" cx="-16928.95" cy="4001.67" r="299.72" xlink:href="#radial-gradient"/><filter id="luminosity-noclip-9" x="0" y="0" width="83.86" height="84.55" filterUnits="userSpaceOnUse" color-interpolation-filters="sRGB"><feFlood flood-color="#fff" result="bg"/><feBlend in="SourceGraphic" in2="bg"/></filter><mask id="mask-9" x="0" y="0" width="83.86" height="84.55" maskUnits="userSpaceOnUse"><g class="cls-1"><path class="cls-2" d="M70.07,75.07c-17.18,14.74-43.7,12-59.24-6.12s-14.21-44.75,3-59.47S57.48-2.5,73,15.6,87.24,60.35,70.07,75.07Z"/></g></mask><radialGradient id="radial-gradient-9" cx="-20158.11" cy="6099.96" r="375.28" gradientTransform="matrix(0.07, 0.09, -0.08, 0.07, 2058.86, 1370.39)" gradientUnits="userSpaceOnUse"><stop offset="0" stop-color="#fff"/><stop offset="0.1" stop-color="#f8f8f8"/><stop offset="0.24" stop-color="#e6e5e6"/><stop offset="0.4" stop-color="#c7c6c7"/><stop offset="0.58" stop-color="#9d9b9c"/><stop offset="0.78" stop-color="#676465"/><stop offset="0.99" stop-color="#262223"/><stop offset="1" stop-color="#231f20"/></radialGradient><filter id="luminosity-noclip-10" x="66.46" y="63.4" width="9.52" height="9.59" filterUnits="userSpaceOnUse" color-interpolation-filters="sRGB"><feFlood flood-color="#fff" result="bg"/><feBlend in="SourceGraphic" in2="bg"/></filter><mask id="mask-10" x="66.46" y="63.4" width="9.52" height="9.59" maskUnits="userSpaceOnUse"><g class="cls-9"><path class="cls-10" d="M74.42,71.92a4.91,4.91,0,1,1,.33-6.75A4.78,4.78,0,0,1,74.42,71.92Z"/></g></mask><radialGradient id="radial-gradient-10" cx="-19821.63" cy="6050.93" r="42.58" xlink:href="#radial-gradient-9"/><filter id="luminosity-noclip-11" x="254.81" y="24.09" width="164.45" height="172.89" filterUnits="userSpaceOnUse" color-interpolation-filters="sRGB"><feFlood flood-color="#fff" result="bg"/><feBlend in="SourceGraphic" in2="bg"/></filter><mask id="mask-11" x="254.81" y="24.09" width="164.45" height="172.89" maskUnits="userSpaceOnUse"><g class="cls-11"><path class="cls-12" d="M352.54,195.7c-44.6,8.12-87.67-23.47-96.24-70.49S277,33.46,321.56,25.36s87.66,23.47,96.21,70.49S397.13,187.61,352.54,195.7Z"/></g></mask><radialGradient id="radial-gradient-11" cx="-14179.55" cy="15030.11" r="751.71" gradientTransform="matrix(0.02, 0.11, -0.11, 0.02, 2243.37, 1422.49)" xlink:href="#radial-gradient-9"/><filter id="luminosity-noclip-12" x="352.14" y="175.17" width="18.67" height="19.63" filterUnits="userSpaceOnUse" color-interpolation-filters="sRGB"><feFlood flood-color="#fff" result="bg"/><feBlend in="SourceGraphic" in2="bg"/></filter><mask id="mask-12" x="352.14" y="175.17" width="18.67" height="19.63" maskUnits="userSpaceOnUse"><g class="cls-13"><path class="cls-14" d="M363.24,194.66a9.61,9.61,0,0,1-10.94-8c-.95-5.33,2.36-10.42,7.41-11.33a9.84,9.84,0,0,1,3.53,19.34Z"/></g></mask><radialGradient id="radial-gradient-12" cx="-85810.13" cy="13987.21" r="29.78" gradientTransform="matrix(0.06, 0.32, -0.31, 0.06, 9736.71, 27272.84)" xlink:href="#radial-gradient-9"/><filter id="luminosity-noclip-13" x="424.37" y="141.55" width="66.97" height="67.52" filterUnits="userSpaceOnUse" color-interpolation-filters="sRGB"><feFlood flood-color="#fff" result="bg"/><feBlend in="SourceGraphic" in2="bg"/></filter><mask id="mask-13" x="424.37" y="141.55" width="66.97" height="67.52" maskUnits="userSpaceOnUse"><g class="cls-15"><path class="cls-16" d="M480.33,201.51c-13.72,11.76-34.9,9.56-47.31-4.9s-11.35-35.73,2.35-47.49,34.9-9.57,47.31,4.9S494,189.75,480.33,201.51Z"/></g></mask><radialGradient id="radial-gradient-13" cx="-16928.95" cy="4001.67" r="299.72" xlink:href="#radial-gradient-9"/><filter id="luminosity-noclip-14" x="477.45" y="192.18" width="7.6" height="7.67" filterUnits="userSpaceOnUse" color-interpolation-filters="sRGB"><feFlood flood-color="#fff" result="bg"/><feBlend in="SourceGraphic" in2="bg"/></filter><mask id="mask-14" x="477.45" y="192.18" width="7.6" height="7.67" maskUnits="userSpaceOnUse"><g class="cls-3"><path class="cls-4" d="M483.8,199a3.92,3.92,0,1,1,.27-5.39A3.83,3.83,0,0,1,483.8,199Z"/></g></mask><radialGradient id="radial-gradient-14" cx="-16660.23" cy="3962.53" r="34.03" xlink:href="#radial-gradient-9"/><filter id="luminosity-noclip-15" x="442.06" y="210.1" width="66.97" height="67.52" filterUnits="userSpaceOnUse" color-interpolation-filters="sRGB"><feFlood flood-color="#fff" result="bg"/><feBlend in="SourceGraphic" in2="bg"/></filter><mask id="mask-15" x="442.06" y="210.1" width="66.97" height="67.52" maskUnits="userSpaceOnUse"><g class="cls-5"><path class="cls-6" d="M498,270.06c-13.71,11.76-34.89,9.55-47.31-4.9s-11.35-35.73,2.36-47.49,34.89-9.57,47.31,4.89S511.73,258.3,498,270.06Z"/></g></mask><radialGradient id="radial-gradient-15" cx="-16377.32" cy="4287.63" r="299.73" xlink:href="#radial-gradient-9"/><filter id="luminosity-noclip-16" x="495.14" y="260.73" width="7.61" height="7.66" filterUnits="userSpaceOnUse" color-interpolation-filters="sRGB"><feFlood flood-color="#fff" result="bg"/><feBlend in="SourceGraphic" in2="bg"/></filter><mask id="mask-16" x="495.14" y="260.73" width="7.61" height="7.66" maskUnits="userSpaceOnUse"><g class="cls-7"><path class="cls-8" d="M501.5,267.54a3.93,3.93,0,1,1,.26-5.39A3.84,3.84,0,0,1,501.5,267.54Z"/></g></mask><radialGradient id="radial-gradient-16" cx="-16108.58" cy="4248.52" r="34.01" xlink:href="#radial-gradient-9"/><linearGradient id="White_Gold" x1="42.8" y1="144.45" x2="476" y2="144.45" gradientUnits="userSpaceOnUse"><stop offset="0.01" stop-color="#dee3e6"/><stop offset="0.25" stop-color="#fffde5"/><stop offset="0.4" stop-color="#f0ecd8"/><stop offset="0.6" stop-color="#d6cdc1"/><stop offset="0.79" stop-color="#ededee"/><stop offset="1" stop-color="#d8d5bb"/></linearGradient><linearGradient id="White_Gold-2" x1="42.18" y1="144.45" x2="476.63" y2="144.45" xlink:href="#White_Gold"/></defs><g class="cls-17"><g id="Layer_2" data-name="Layer 2"><g id="_Layer_" data-name="&lt;Layer&gt;"><g class="cls-18"><path class="cls-19" d="M70.07,75.07c-17.18,14.74-43.7,12-59.24-6.12s-14.21-44.75,3-59.47S57.48-2.5,73,15.6,87.24,60.35,70.07,75.07Z"/></g><g class="cls-20"><g class="cls-21"><polygon class="cls-22" points="72.75 69.68 71.04 68.33 69.83 70.14 70.58 68.1 68.49 67.5 70.66 67.58 70.58 65.41 71.17 67.5 73.2 66.76 71.41 67.96 72.75 69.68"/><g class="cls-23"><path class="cls-24" d="M74.42,71.92a4.91,4.91,0,1,1,.33-6.75A4.78,4.78,0,0,1,74.42,71.92Z"/></g></g></g><g class="cls-25"><path class="cls-26" d="M352.54,195.7c-44.6,8.12-87.67-23.47-96.24-70.49S277,33.46,321.56,25.36s87.66,23.47,96.21,70.49S397.13,187.61,352.54,195.7Z"/></g><g class="cls-20"><g class="cls-21"><polygon class="cls-22" points="362.63 189.08 361.03 185.04 357.1 186.93 360.46 184.16 357.46 181.03 361.12 183.36 363.19 179.52 362.1 183.73 366.37 184.5 362.05 184.78 362.63 189.08"/><g class="cls-27"><path class="cls-28" d="M363.24,194.66a9.61,9.61,0,0,1-10.94-8c-.95-5.33,2.36-10.42,7.41-11.33a9.84,9.84,0,0,1,3.53,19.34Z"/></g></g></g><g class="cls-29"><path class="cls-30" d="M480.33,201.51c-13.72,11.76-34.9,9.56-47.31-4.9s-11.35-35.73,2.35-47.49,34.9-9.57,47.31,4.9S494,189.75,480.33,201.51Z"/></g><g class="cls-20"><g class="cls-21"><polygon class="cls-22" points="482.48 197.19 481.11 196.12 480.14 197.57 480.73 195.94 479.07 195.46 480.8 195.52 480.73 193.79 481.21 195.46 482.84 194.86 481.41 195.83 482.48 197.19"/><g class="cls-31"><path class="cls-32" d="M483.8,199a3.92,3.92,0,1,1,.27-5.39A3.83,3.83,0,0,1,483.8,199Z"/></g></g></g><g class="cls-33"><path class="cls-34" d="M498,270.06c-13.71,11.76-34.89,9.55-47.31-4.9s-11.35-35.73,2.36-47.49,34.89-9.57,47.31,4.89S511.73,258.3,498,270.06Z"/></g><g class="cls-20"><g class="cls-21"><polygon class="cls-22" points="500.16 265.75 498.79 264.68 497.83 266.11 498.43 264.49 496.76 264.01 498.5 264.07 498.43 262.34 498.91 264.01 500.53 263.41 499.08 264.38 500.16 265.75"/><g class="cls-35"><path class="cls-36" d="M501.5,267.54a3.93,3.93,0,1,1,.26-5.39A3.84,3.84,0,0,1,501.5,267.54Z"/></g></g></g><g class="cls-37"><polygon class="cls-38" points="475.65 245.6 458.39 176.27 336.84 114.4 42.8 43.66 42.89 43.3 336.98 114.05 458.7 176.02 458.73 176.1 476 245.51 475.65 245.6"/><polygon class="cls-39" points="475.25 246.24 457.93 176.63 336.67 114.9 42.18 44.04 42.5 42.66 43.01 42.79 337.16 113.56 459.17 175.66 459.23 175.89 476.63 245.89 475.25 246.24"/></g></g></g></g></svg>