<svg xmlns="http://www.w3.org/2000/svg" viewBox="0 0 77.59 84.82"><defs><style>.cls-1{opacity:0.1;}.cls-2{fill:none;stroke:#042c3c;stroke-linecap:round;stroke-linejoin:round;stroke-width:0.6px;}</style></defs><g id="Layer_2" data-name="Layer 2"><g id="OBJECTS"><g class="cls-1"><path class="cls-2" d="M27.4,15.2c-5,7.18-11.52,7.41-11.52,7.41,2.47,4.4-2.45,8.69-2.45,8.69a2,2,0,0,1,.14,2.31c1.78-.54,7.27,4.38,9,5.94l-4.22,5.79C15,44.44,10.62,42.5,9,38.45c0,0-4.86-.93-5-4.13S6.61,27.1,6.61,27.1s-1.2-4.58,2.17-7.19c0,0-2.86-6.42.25-10.76S17.49.36,28.25.3c0,0-8.33,7.62-8,11.76,0,0,6.15-4.82,7.18-9.61C27.45,2.45,32.42,8,27.4,15.2Z"/><path class="cls-2" d="M13.57,33.61s-4.52,2-4.62,4.84"/><path class="cls-2" d="M6.61,27.11s5.24.87,6.82,4.19"/><path class="cls-2" d="M8.77,19.91s4.82-.26,7.11,2.7"/><path class="cls-2" d="M73.66,34.32c-.15,3.2-5,4.13-5,4.13-1.67,4-6,6-9.35,6.89l-4.22-5.79C56.75,38,62.24,33.07,64,33.61a2,2,0,0,1,.14-2.31S59.24,27,61.71,22.61c0,0-6.51-.23-11.52-7.41s0-12.75,0-12.75c1,4.79,7.19,9.61,7.19,9.61.34-4.14-8-11.76-8-11.76C60.1.36,65.45,4.8,68.56,9.15s.26,10.76.26,10.76C72.19,22.52,71,27.1,71,27.1S73.8,31.12,73.66,34.32Z"/><path class="cls-2" d="M64,33.61s4.53,2,4.62,4.84"/><path class="cls-2" d="M71,27.11s-5.23.87-6.82,4.19"/><path class="cls-2" d="M68.82,19.91s-4.82-.26-7.11,2.7"/><path class="cls-2" d="M58.27,80.41s-1.19,3.08-3.44,4.11c.06-.22,1-3.58,1.42-4.45l.44-.9s-1.35-3.69-.35-5.28c0,0-2.11-1.39-2.36-2.63a33.91,33.91,0,0,1-5.78-1.84A3.5,3.5,0,0,0,49.79,68l1.51-2.43c1.73.77,3.32,1.81,4,3.16,0,0,5.09,1.61,4.27,5.35A5.26,5.26,0,0,1,58.27,80.41Z"/><path class="cls-2" d="M55.26,68.77A5.75,5.75,0,0,1,54,71.26"/><path class="cls-2" d="M56.34,73.89a3,3,0,0,0,3.2.23"/><path class="cls-2" d="M63.64,74.23S63,77.48,61,78.89c0,0,.37-3.68.63-4.65l.27-1s-2-3.39-1.27-5.13c0,0-2.32-1-2.78-2.18a33.21,33.21,0,0,1-6.21-.86l2.62-4.22a7.67,7.67,0,0,1,4.42,2.41s5.29.69,5.14,4.52A5.25,5.25,0,0,1,63.64,74.23Z"/><path class="cls-2" d="M58.64,63.3A5.75,5.75,0,0,1,57.82,66"/><path class="cls-2" d="M60.6,68.15a3,3,0,0,0,3.19-.33"/><path class="cls-2" d="M76.18,58.18a5.26,5.26,0,0,1-4,5c-2.34,3-6.85.15-6.85.15-3.26.84-8.36-3-9.95-4.28l1.5-2.42a12.53,12.53,0,0,1,3.29.43c2.34.67,6.25,3.69,6.25,3.69,1.11-.61,3.53.12,3.53.12.58-1.79,4.27-3.12,4.27-3.12l.42-.91c.42-.9,2.51-4,2.51-4C77.79,55.29,76.18,58.18,76.18,58.18Z"/><path class="cls-2" d="M65.33,63.34a5.71,5.71,0,0,0,1.08-2.58"/><path class="cls-2" d="M69.94,60.88a3,3,0,0,1,2.23,2.3"/><path class="cls-2" d="M76.31,48.51a5.25,5.25,0,0,1-2.59,5.87c-1.49,3.53-6.57,1.91-6.57,1.91-2.43,1.36-6.89,0-9.41-1l2.15-3.46a2.53,2.53,0,0,0,.13-.22h.53c2.42,0,7,2,7,2,.92-.87,3.45-.79,3.45-.79.1-1.88,3.32-4.11,3.32-4.11l.18-1c.16-1,1.39-4.47,1.39-4.47C77.12,45.3,76.31,48.51,76.31,48.51Z"/><path class="cls-2" d="M67.14,56.29a5.72,5.72,0,0,0,.39-2.77"/><path class="cls-2" d="M71,52.73a3,3,0,0,1,2.74,1.65"/><path class="cls-2" d="M21.26,73.89c1,1.59-.35,5.28-.35,5.28l.43.9c.41.87,1.37,4.23,1.42,4.45-2.25-1-3.44-4.11-3.44-4.11a5.26,5.26,0,0,1-1.26-6.29c-.82-3.74,4.28-5.35,4.28-5.35.63-1.35,2.22-2.39,4-3.16L27.8,68a3.55,3.55,0,0,0,1.59,1.38,33.91,33.91,0,0,1-5.78,1.84C23.37,72.5,21.26,73.89,21.26,73.89Z"/><path class="cls-2" d="M22.33,68.77a5.75,5.75,0,0,0,1.28,2.49"/><path class="cls-2" d="M21.25,73.89a3,3,0,0,1-3.19.23"/><path class="cls-2" d="M26,65.11a33.14,33.14,0,0,1-6.2.86C19.32,67.15,17,68.15,17,68.15c.71,1.74-1.26,5.13-1.26,5.13l.27,1c.26,1,.62,4.65.62,4.65-2-1.41-2.67-4.66-2.67-4.66a5.27,5.27,0,0,1-.15-6.41C13.65,64,19,63.3,19,63.3a7.61,7.61,0,0,1,4.41-2.41Z"/><path class="cls-2" d="M19,63.3A5.75,5.75,0,0,0,19.77,66"/><path class="cls-2" d="M17,68.15a3,3,0,0,1-3.19-.33"/><path class="cls-2" d="M22.22,59.06c-1.59,1.28-6.68,5.12-9.95,4.28,0,0-4.5,2.87-6.85-.15a5.27,5.27,0,0,1-4-5S-.2,55.29.46,52.89c0,0,2.09,3.06,2.5,4l.42.91s3.69,1.33,4.27,3.12c0,0,2.42-.73,3.53-.12,0,0,3.92-3,6.25-3.69a12.53,12.53,0,0,1,3.29-.43Z"/><path class="cls-2" d="M12.27,63.34a5.79,5.79,0,0,1-1.09-2.58"/><path class="cls-2" d="M7.65,60.88a3,3,0,0,0-2.23,2.3"/><path class="cls-2" d="M60,51.57a2.53,2.53,0,0,1-.13.22l-2.15,3.46-.87,1.39-1.5,2.42-1.14,1.83-2.62,4.22-.31.5L49.79,68a3.5,3.5,0,0,1-1.59,1.38,4.09,4.09,0,0,1-.42.16,30.58,30.58,0,0,1-18,0l-.42-.16A3.55,3.55,0,0,1,27.8,68l-1.5-2.43-.32-.5-2.62-4.22-1.14-1.83-1.5-2.42-.87-1.39L17.7,51.79a2.53,2.53,0,0,1-.13-.22,5.32,5.32,0,0,1,.36-5.72l.38-.51,4.22-5.79.25-.33c1.16-.3,2.32-.57,3.5-.81a.43.43,0,0,1,0-.11,1.14,1.14,0,0,1,1.15-1.14,1.13,1.13,0,0,1,1.1.84,62.83,62.83,0,0,1,20.57,0,1.15,1.15,0,0,1,2.25.3s0,.07,0,.11c1.17.24,2.34.51,3.5.81l.25.33,4.22,5.79.38.51A5.3,5.3,0,0,1,60,51.57Z"/><path class="cls-2" d="M19.85,55.25c-2.52,1-7,2.4-9.4,1,0,0-5.08,1.62-6.58-1.91a5.25,5.25,0,0,1-2.59-5.87s-.81-3.21.44-5.35c0,0,1.23,3.49,1.4,4.47l.17,1s3.22,2.23,3.33,4.11c0,0,2.52-.08,3.44.79,0,0,4.56-1.91,7-2h.52a2.53,2.53,0,0,0,.13.22Z"/><path class="cls-2" d="M10.45,56.29a5.72,5.72,0,0,1-.39-2.77"/><path class="cls-2" d="M6.62,52.73a3,3,0,0,0-2.75,1.65"/></g></g></g></svg>