<svg xmlns="http://www.w3.org/2000/svg" viewBox="0 0 104.55 103.86"><defs><style>.cls-1{opacity:0.1;}.cls-2{fill:none;stroke:#042c3c;stroke-linecap:round;stroke-linejoin:round;stroke-width:0.6px;}</style></defs><g id="Layer_2" data-name="Layer 2"><g id="OBJECTS"><g class="cls-1"><path class="cls-2" d="M31,43.78c5.08,2.6,7.19,8.36,8,14,.1.68.17,1.35.22,2a54.42,54.42,0,0,1-.46,12.34"/><path class="cls-2" d="M38.94,57.8a8.18,8.18,0,0,0-7.51-2.51"/><path class="cls-2" d="M33.09,55.16s-.47,4.76,6.07,4.66"/><path class="cls-2" d="M58.75,81.63c-.64,1.28-2.77.71-3.42,2.64s-3.06,1.78-3.06,1.78-2.42.14-3.06-1.78-2.78-1.36-3.42-2.64,0-1.28,0-1.28l6.48.36,6.48-.36S59.4,80.35,58.75,81.63Z"/><path class="cls-2" d="M75.66,51.27h0"/><path class="cls-2" d="M92.72,38.63l-1,.26c-1,.28-3.06.81-7.09,1.8-6.93,1.71-9.67,6-9.85,6.34a22,22,0,0,0-1.25-3.23c.22-.55,2.16-4.91,8.18-5.17,4.38-.2,7.9-.12,9.69-.06Z"/><path class="cls-2" d="M73.58,43.8l0,.05c-5.07,2.6-7.18,8.36-7.94,14-.1.68-.17,1.37-.23,2h0a54.36,54.36,0,0,0,.46,12.33"/><path class="cls-2" d="M74.83,47h0"/><path class="cls-2" d="M65.61,57.87a8.16,8.16,0,0,1,7.51-2.5"/><path class="cls-2" d="M71.45,55.24s.48,4.75-6.06,4.66"/><path class="cls-2" d="M61,89.62s-6.46,2.16-8.75-1v-.07c-2.29,3.17-8.76,1-8.76,1"/><line class="cls-2" x1="52.28" y1="88.61" x2="52.28" y2="86.05"/><path class="cls-2" d="M29.74,47a21.72,21.72,0,0,0-.85,4.23,18.88,18.88,0,0,1-8.08-.41A13.86,13.86,0,0,1,18.56,50a13.45,13.45,0,0,1-1.46-.75c-4.1-2.41-5-7.07-5.22-9.36a11.67,11.67,0,0,1-.05-1.32l1,.28c1,.28,3.07.8,7,1.78C27.06,42.4,29.74,47,29.74,47Z"/><path class="cls-2" d="M31,43.78A21.52,21.52,0,0,0,29.74,47s-2.68-4.57-9.87-6.36c-4-1-6-1.5-7-1.78l-1-.28,1.35-.06c1.81-.06,5.28-.13,9.61.06C29.2,38.83,31,43.78,31,43.78Z"/><path class="cls-2" d="M65.86,72.16v.07c.06.73.09,1.48.09,2.23a26.39,26.39,0,0,1-.22,3.47,22.44,22.44,0,0,1-4.79,11.73,11.4,11.4,0,0,1-8.66,4.46,11.5,11.5,0,0,1-8.76-4.57,22.64,22.64,0,0,1-4.7-11.66,27.47,27.47,0,0,1-.21-3.43c0-.78,0-1.55.09-2.3a22.67,22.67,0,0,1-9.92-18.68,21.49,21.49,0,0,1,.11-2.28A22.81,22.81,0,0,1,29.74,47,23.16,23.16,0,0,1,31,43.78a23.42,23.42,0,0,1,2.38-3.89,25.48,25.48,0,0,1,1.78-2.09l.45-.44A23.54,23.54,0,0,1,44.18,32a24,24,0,0,1,6.38-1.33c.57,0,1.14-.06,1.72-.06s1.15,0,1.72.06A24,24,0,0,1,60.37,32h0A23.69,23.69,0,0,1,69,37.35c.15.14.3.3.45.45a23,23,0,0,1,4.18,6A23.19,23.19,0,0,1,74.83,47a22.26,22.26,0,0,1,.84,4.24,20.31,20.31,0,0,1,.11,2.21A22.67,22.67,0,0,1,65.86,72.16Z"/><path class="cls-2" d="M92.68,39.88c-.19,2.26-1.09,7-5.23,9.42a14.05,14.05,0,0,1-1.49.77,15.2,15.2,0,0,1-2.28.81,18.81,18.81,0,0,1-8,.39A22,22,0,0,0,74.83,47c.18-.32,2.92-4.63,9.85-6.34,4-1,6.07-1.52,7.09-1.8l1-.26A11.6,11.6,0,0,1,92.68,39.88Z"/><path class="cls-2" d="M66,90.13a24.43,24.43,0,0,1-4.86,5.75l1-2.44s-6.12,5.49-6.42,7.28a8.29,8.29,0,0,1,0-2.85,16,16,0,0,0-2.09,2.85,18.68,18.68,0,0,0-1.35,2.84v0a20.88,20.88,0,0,0-1.34-2.85,16.27,16.27,0,0,0-2.09-2.84,8.52,8.52,0,0,1,0,2.84c-.31-1.79-6.44-7.28-6.44-7.28l1.05,2.45a24.36,24.36,0,0,1-4.86-5.76c-2.17-3.57.11-12.28.11-12.28l.11.08a22.64,22.64,0,0,0,4.7,11.66,11.5,11.5,0,0,0,8.76,4.57,11.4,11.4,0,0,0,8.66-4.46,22.44,22.44,0,0,0,4.79-11.73l.12-.08S68.13,86.55,66,90.13Z"/><path class="cls-2" d="M104.2,20.14c-1,13.65-4.13,15.22-4.13,15.22S100.83,12,86.88,13.82c-12.15,1.58-15.12,21-15.68,26.07a23.77,23.77,0,0,0-1.79-2.09c-.15-.15-.3-.31-.45-.45A23.69,23.69,0,0,0,60.38,32h0A24,24,0,0,0,54,30.64C56.23,25,63.49,9.25,76.73,2.86,93-5,105.19,6.49,104.2,20.14Z"/><path class="cls-2" d="M50.56,30.64A24,24,0,0,0,44.18,32a23.54,23.54,0,0,0-8.59,5.39l-.45.44a25.48,25.48,0,0,0-1.78,2.09c-.56-5-3.53-24.49-15.68-26.07C3.73,12,4.49,35.36,4.49,35.36S1.35,33.79.36,20.14,11.59-5,27.83,2.86C41.07,9.25,48.33,25,50.56,30.64Z"/><line class="cls-2" x1="58.75" y1="80.35" x2="65.61" y2="57.87"/><line class="cls-2" x1="45.79" y1="80.35" x2="38.94" y2="57.8"/><path class="cls-2" d="M59,20.46s11.82-1.55,15,6.76"/><path class="cls-2" d="M74.81,3.87S85.59,2.6,85.34,14.14"/><path class="cls-2" d="M101.68,8.76s1.14,9.68-5.2,9.83"/><path class="cls-2" d="M45.46,20.46s-11.82-1.55-15,6.76"/><path class="cls-2" d="M29.69,3.87S18.91,2.6,19.16,14.14"/><path class="cls-2" d="M2.82,8.76S1.68,18.44,8,18.59"/></g></g></g></svg>