<svg xmlns="http://www.w3.org/2000/svg" viewBox="0 0 78.18 94.08"><defs><style>.cls-1{opacity:0.1;}.cls-2{fill:none;stroke:#042c3c;stroke-linecap:round;stroke-linejoin:round;stroke-width:0.6px;}</style></defs><g id="Layer_2" data-name="Layer 2"><g id="OBJECTS"><g class="cls-1"><path class="cls-2" d="M62.8,30.68c0-12.36-10.61-22.39-23.71-22.39s-23.72,10-23.72,22.39a21.27,21.27,0,0,0,2.22,9.46,35.07,35.07,0,0,1,3.77,17.13c0,.31,0,.62,0,.92A18,18,0,0,0,39.09,76.43,18,18,0,0,0,56.84,58.19c0-.3,0-.61,0-.92a35,35,0,0,1,3.77-17.13A21.27,21.27,0,0,0,62.8,30.68Z"/><path class="cls-2" d="M46,52.19a4.71,4.71,0,0,0-5,2.75,10.37,10.37,0,0,1-1.8,2.64l-.18.18-.17-.18A10.28,10.28,0,0,1,37.12,55a4.72,4.72,0,0,0-5-2.76s.07-3.11,1.86-3.38a4.94,4.94,0,0,1,2.11.34,9.05,9.05,0,0,0,6,0,4.83,4.83,0,0,1,2.12-.35C46,49.08,46,52.19,46,52.19Z"/><path class="cls-2" d="M56.84,53.27s-3,8.55-9.13,9.41S39.09,61,39.09,61s-2.47,2.58-8.62,1.72-9.13-9.41-9.13-9.41"/><line class="cls-2" x1="39.09" y1="60.96" x2="39.09" y2="57.58"/><path class="cls-2" d="M34.52,62.76s3.84,3.66,9.14,0"/><path class="cls-2" d="M21.34,53.27S30.74,38.5,30,29,19,18.85,19,18.85,16,9.38,6.56,9.58c0,0-3.78,10.85,9.24,16.86"/><path class="cls-2" d="M6.56,9.58s7.78,2.39,10.84,12"/><path class="cls-2" d="M30,29.49s-3.21-6.16-9.11-3.84"/><path class="cls-2" d="M22.44,25.21s.3,7.51,7.55,5.4"/><path class="cls-2" d="M56.89,53.27S47.49,38.5,48.29,29s11-10.11,11-10.11,2.95-9.47,12.39-9.27c0,0,3.78,10.85-9.24,16.86"/><path class="cls-2" d="M71.67,9.58S63.9,12,60.83,21.61"/><path class="cls-2" d="M48.25,29.49s3.22-6.16,9.11-3.84"/><path class="cls-2" d="M55.79,25.21s-.3,7.51-7.54,5.4"/><path class="cls-2" d="M65.46,10.89A38.8,38.8,0,0,0,39.09.3,37.72,37.72,0,0,0,12.64,11"/><path class="cls-2" d="M6.8,18.27A38.73,38.73,0,0,0,1.47,37.45a35.85,35.85,0,0,0,.34,4.89c-1,4-3,14.28.32,20.3l1.93-3.73a14.07,14.07,0,0,0,2.12,6.77,53.77,53.77,0,0,0,11.69,12l-2.52-5.11S30.09,84,30.84,87.77a15.61,15.61,0,0,0,0-5.92,34.52,34.52,0,0,1,5,5.92,40.78,40.78,0,0,1,3.23,5.94v.07a36.93,36.93,0,0,1,3.25-5.93,34.57,34.57,0,0,1,5-5.94c-.72,2.35,0,5.94,0,5.94.72-3.73,15.45-15.18,15.45-15.18L60.3,77.76a29.85,29.85,0,0,0,11.7-12,20.18,20.18,0,0,0,2.09-6.92l2,3.8c3.32-6,1.29-16.34.32-20.3a37.53,37.53,0,0,0,.33-4.89,36.58,36.58,0,0,0-5.48-19.32"/><line class="cls-2" x1="46.04" y1="52.19" x2="48.29" y2="28.96"/><line class="cls-2" x1="32.13" y1="52.19" x2="29.98" y2="29.49"/><path class="cls-2" d="M74.09,58.84a70.83,70.83,0,0,0-.87-7.77"/><path class="cls-2" d="M62.81,72.67a14.14,14.14,0,0,0,2.65-8.28"/><line class="cls-2" x1="47.36" y1="81.91" x2="50.91" y2="77.81"/><path class="cls-2" d="M4.05,59.06a69,69,0,0,1,.86-7.77"/><path class="cls-2" d="M15.32,72.88a14.14,14.14,0,0,1-2.65-8.28"/><line class="cls-2" x1="30.77" y1="82.12" x2="27.22" y2="78.02"/></g></g></g></svg>