<svg xmlns="http://www.w3.org/2000/svg" viewBox="0 0 97.36 89.82"><defs><style>.cls-1{opacity:0.1;}.cls-2,.cls-3{fill:none;}.cls-2,.cls-3,.cls-4{stroke:#042c3c;stroke-linecap:round;stroke-linejoin:round;}.cls-2{stroke-width:0.6px;}.cls-3,.cls-4{stroke-width:0.59px;}.cls-4{fill:#fff;}</style></defs><g id="Layer_2" data-name="Layer 2"><g id="OBJECTS"><g class="cls-1"><path class="cls-2" d="M97.06,24.17s-14,2.42-25.93-2.64C62.7,18,58.69,15,53.19,13.62a18.4,18.4,0,0,0-9,0c-5.49,1.4-9.5,4.32-17.93,7.91C14.32,26.59.3,24.17.3,24.17A55.1,55.1,0,0,0,28.89,13.38c7.9-6,14.41-7.09,18.51-7,.88,0,1.77,0,2.65,0,4.12-.08,10.59,1.1,18.42,7A55.07,55.07,0,0,0,97.06,24.17Z"/><line class="cls-3" x1="48.68" y1="13" x2="48.68" y2="79.12"/><path class="cls-2" d="M64.56,89.52c-2-6-8.36-10.3-15.88-10.3S34.81,83.57,32.8,89.52Z"/><path class="cls-2" d="M.3,63.9c2,5.95,8.36,10.29,15.88,10.29S30.05,69.85,32.06,63.9Z"/><polyline class="cls-2" points="32.06 63.9 16.18 24.36 0.3 63.9"/><path class="cls-2" d="M65.29,63.9c2,5.95,8.36,10.29,15.88,10.29S95,69.85,97.06,63.9Z"/><polyline class="cls-2" points="97.06 63.9 81.17 24.36 65.29 63.9"/><path class="cls-2" d="M3.38,65.7S5.67,71,13.59,72.43"/><path class="cls-2" d="M68.1,65.68S70.4,71,78.32,72.41"/><path class="cls-2" d="M61.69,87.73S59.39,82.45,51.48,81"/><path class="cls-2" d="M45.81,3.17A2.87,2.87,0,1,1,48.68,6,2.86,2.86,0,0,1,45.81,3.17Z"/><path class="cls-4" d="M47.47,26.23a1.21,1.21,0,1,1,1.21,1.21A1.21,1.21,0,0,1,47.47,26.23Z"/><path class="cls-4" d="M47.47,31.58a1.21,1.21,0,1,1,1.21,1.21A1.21,1.21,0,0,1,47.47,31.58Z"/><path class="cls-4" d="M47.47,36.94a1.21,1.21,0,1,1,1.21,1.21A1.21,1.21,0,0,1,47.47,36.94Z"/><path class="cls-4" d="M47.47,42.29a1.21,1.21,0,1,1,1.21,1.21A1.21,1.21,0,0,1,47.47,42.29Z"/></g></g></g></svg>