<svg xmlns="http://www.w3.org/2000/svg" viewBox="0 0 66.29 96.93"><defs><style>.cls-1{opacity:0.1;}.cls-2{fill:none;stroke:#042c3c;stroke-linecap:round;stroke-linejoin:round;stroke-width:0.6px;}</style></defs><g id="Layer_2" data-name="Layer 2"><g id="OBJECTS"><g class="cls-1"><path class="cls-2" d="M61.21,51.76S65,46.15,64,36.35s-4.67-18.48-10.6-22.68S36.8,3.72,22.8,9.74,10,26.36,10,26.36s1.2,1.62,4.88.65c0,0,4.39-7.52,12.83-7.07s11.79,9.83,15.17,17.29S55.06,51.31,59,52l-.6-2.25S59.69,51.73,61.21,51.76Z"/><path class="cls-2" d="M63.89,35.21s-11-1.75-17.42,7.65"/><path class="cls-2" d="M59.42,42.9a1.1,1.1,0,1,1,1-1.19A1.1,1.1,0,0,1,59.42,42.9Z"/><path class="cls-2" d="M14.84,27a10.18,10.18,0,0,0,2.85,5.88,8.19,8.19,0,0,0,5,2.52S17.94,42.87,12,35.9c0,0-5.56,5.43-11.72.77,0,0,9.23-4.7,9.66-10.31"/><path class="cls-2" d="M12.15,27.3S11,32.17,12,35.9"/><path class="cls-2" d="M21,37.29s-7.49.5-7.64-10"/><path class="cls-2" d="M11.08,27.07S10.49,38.26.3,36.67"/><path class="cls-2" d="M42.84,37.23S39.06,38,36.47,36s-4.59-9.45-4.59-9.45,4.82,1.89,6.11.67"/><path class="cls-2" d="M42.1,35.56s-2.21.79-6.74-.75"/><path class="cls-2" d="M40.74,32.52a15.4,15.4,0,0,1-7-.57"/><path class="cls-2" d="M39.16,29.3s-3.64,1.53-6.52-.29"/><path class="cls-2" d="M59.55,20.86A18.22,18.22,0,0,0,59.32,11C57.67,6.12,51,.55,47.07.3c0,0-1.07,7-4.76,7.88"/><path class="cls-2" d="M58.75,9.68s.24,6.44-1.23,8"/><path class="cls-2" d="M56.22,6.05s.05,5.78-1.6,8.56"/><path class="cls-2" d="M52.18,2.47S53,8.8,50.6,11.82"/><path class="cls-2" d="M48.65.63s1.61,5.49-2.14,9.06"/><path class="cls-2" d="M62.61,28.6S48.76,27.52,43.23,38"/><path class="cls-2" d="M10.68,21.49s.48,3.24,6.58,2.58"/><path class="cls-2" d="M5.08,45.17S1.27,50.78,2.27,60.59s4.67,18.47,10.6,22.67,16.62,9.95,30.62,3.93S56.33,70.57,56.33,70.57s-1.2-1.62-4.88-.65c0,0-4.39,7.52-12.83,7.07S26.83,67.17,23.45,59.71,11.24,45.62,7.3,45l.61,2.24S6.6,45.2,5.08,45.17Z"/><path class="cls-2" d="M2.4,61.72s11.06,1.75,17.42-7.64"/><path class="cls-2" d="M6.87,54a1.1,1.1,0,1,1-1,1.19A1.1,1.1,0,0,1,6.87,54Z"/><path class="cls-2" d="M51.45,69.92A10.21,10.21,0,0,0,48.6,64a8.19,8.19,0,0,0-5-2.52s4.73-7.45,10.65-.49c0,0,5.55-5.42,11.71-.77,0,0-9.23,4.7-9.66,10.31"/><path class="cls-2" d="M54.14,69.63s1.21-4.87.14-8.6"/><path class="cls-2" d="M45.31,59.64s7.49-.49,7.64,10"/><path class="cls-2" d="M55.21,69.86S55.8,58.68,66,60.26"/><path class="cls-2" d="M23.45,59.71s3.79-.77,6.37,1.2,4.59,9.45,4.59,9.45-4.82-1.88-6.11-.67"/><path class="cls-2" d="M24.19,61.37s2.21-.78,6.74.75"/><path class="cls-2" d="M25.55,64.42a15.33,15.33,0,0,1,7,.56"/><path class="cls-2" d="M27.13,67.63s3.64-1.53,6.52.29"/><path class="cls-2" d="M6.74,76.07A18.22,18.22,0,0,0,7,85.89c1.65,4.93,8.31,10.49,12.25,10.74,0,0,1.07-7,4.76-7.88"/><path class="cls-2" d="M7.54,87.25s-.24-6.44,1.23-8"/><path class="cls-2" d="M10.07,90.88s-.05-5.77,1.6-8.56"/><path class="cls-2" d="M14.11,94.47s-.78-6.34,1.58-9.36"/><path class="cls-2" d="M17.64,96.3S16,90.81,19.78,87.24"/><path class="cls-2" d="M3.68,68.33s13.85,1.08,19.38-9.43"/><path class="cls-2" d="M55.61,75.44S55.13,72.2,49,72.87"/></g></g></g></svg>