<svg xmlns="http://www.w3.org/2000/svg" viewBox="0 0 57.22 94.08"><defs><style>.cls-1{opacity:0.1;}.cls-2{fill:none;stroke:#042c3c;stroke-linecap:round;stroke-linejoin:round;stroke-width:0.6px;}</style></defs><g id="Layer_2" data-name="Layer 2"><g id="OBJECTS"><g class="cls-1"><path class="cls-2" d="M28.43,70.79a8.92,8.92,0,0,0,4.46.83"/><path class="cls-2" d="M26.19,78.05s2,2,3.7,1.43"/><path class="cls-2" d="M22.45,83.52a2.85,2.85,0,0,0,3.06,2.09"/><path class="cls-2" d="M17.88,87s.37,2.4,1.72,3.15"/><path class="cls-2" d="M13.69,88.38s-.3,2.85,1,3.6"/><path class="cls-2" d="M40.11,38.81c-7.74,6-17.66,1-17.66,1-2.24-10,1.19-15.92,4.62-18.72.25-.2.5-.39.74-.56a8.43,8.43,0,0,1,1-.56,6.16,6.16,0,0,1,5.17-.43,5.68,5.68,0,0,1,1.59.95.18.18,0,0,1,.07.05C42.26,26.2,40.11,38.81,40.11,38.81Z"/><path class="cls-2" d="M41.34,45.8c0,.77-.13,1.53-.24,2.27a27.5,27.5,0,0,1-.86,3.76c-.36,1.21-.74,2.24-1,3-.37.91-.63,1.44-.63,1.44a7.37,7.37,0,0,1-3.14,2.34c-2.65,1-5.71.47-8-.27a21,21,0,0,1-3.48-1.47,19.66,19.66,0,0,1-.69-2,24.28,24.28,0,0,1-.73-3.09h0a33.28,33.28,0,0,1-.43-3.71q-.06-.8-.06-1.56A37.32,37.32,0,0,1,22.18,42c.12-1.37.27-2.19.27-2.19s9.92,5,17.66-1a12.86,12.86,0,0,1,1,2.94v0s0,.12,0,.14A16.84,16.84,0,0,1,41.34,45.8Z"/><path class="cls-2" d="M41.11,41.92s0-.09,0-.14"/><path class="cls-2" d="M37.56,17.3a3.59,3.59,0,0,0-2,3.19,5.68,5.68,0,0,0-1.59-.95,2.26,2.26,0,0,1,1.28-1.83A3.35,3.35,0,0,1,37.56,17.3Z"/><path class="cls-2" d="M28.76,20a8.43,8.43,0,0,0-1,.56c-.24.17-.49.36-.74.56a3.5,3.5,0,0,0-2-3.79,3.35,3.35,0,0,1,2.35.41A2.4,2.4,0,0,1,28.76,20Z"/><path class="cls-2" d="M22,46.51c-1.28-1.67-2.31-3.34-2.31-3.34-1.35-.16-3.43-2-3.43-2-1.31,1-5.5,0-5.5,0l-.78.44c-.79.43-4.1,1.53-4.1,1.53C6.24,41.08,9,39.84,9,39.84c1.71-2.94,6-1.49,6-1.49,3.56-.94,6.82,3.53,6.82,3.53h0a2.19,2.19,0,0,1,.33.12A37.32,37.32,0,0,0,22,46.51Z"/><path class="cls-2" d="M21.85,41.88a4.41,4.41,0,0,0-2.13,1.28"/><path class="cls-2" d="M16.28,41.2S14.55,39.85,15,38.35"/><path class="cls-2" d="M22.52,51.78C21.16,50.84,20.11,50,20.11,50h0c-1.32.31-3.89-.7-3.89-.7-.9,1.37-5.19,1.83-5.19,1.83l-.58.67c-.6.67-3.35,2.82-3.35,2.82-.38-2.07,1.82-4.17,1.82-4.17C9.54,47.11,14.08,47,14.08,47c3-2.09,7.6,1,7.6,1h.41A33.28,33.28,0,0,0,22.52,51.78Z"/><path class="cls-2" d="M21.68,48.07A4.45,4.45,0,0,0,20.11,50"/><path class="cls-2" d="M16.22,49.3s-2.09-.7-2.14-2.26"/><path class="cls-2" d="M24.34,58.58c-1.75-.56-3.2-1.17-3.2-1.17-1.18.67-3.93.43-3.93.43-.48,1.57-4.47,3.21-4.47,3.21l-.37.81C12,62.67,10,65.5,10,65.5c-.95-1.87.57-4.5.57-4.5-.33-3.39,4-4.74,4-4.74,2.33-2.84,7.59-1.14,7.59-1.14h0a5.91,5.91,0,0,1,1.14-.25,19.66,19.66,0,0,0,.69,2S24.08,57.53,24.34,58.58Z"/><path class="cls-2" d="M22.11,55.12a4.38,4.38,0,0,0-1,2.29"/><path class="cls-2" d="M17.2,57.84s-2.2-.08-2.69-1.57"/><path class="cls-2" d="M38.75,58.5a14.69,14.69,0,0,1-.21,2.41,16.84,16.84,0,0,1-1.14,3.84,23.17,23.17,0,0,1-4.52,6.86c1.5,4.57-3,7.87-3,7.87.15,5.38-4.38,6.13-4.38,6.13-.22,4.57-5.91,4.57-5.91,4.57C18.18,93.1,14.66,92,14.66,92c-5.24,2.76-11.23,2.69-13.4-2.7a12.6,12.6,0,0,1,0-9.73S4.18,88,7.47,86.21s6.22,2.17,6.22,2.17c.45-1.49,4.19-1.35,4.19-1.35.52-3.06,4.57-3.51,4.57-3.51,0-3.67,3.74-5.47,3.74-5.47-.6-2.69,2.24-7.26,2.24-7.26A34.55,34.55,0,0,1,26,64.67c-.44-1.38-.82-2.74-1.13-3.93-.21-.82-.4-1.56-.55-2.16-.26-1-.4-1.71-.4-1.71a21,21,0,0,0,3.48,1.47c2.3.74,5.36,1.28,8,.27a7.37,7.37,0,0,0,3.14-2.34A14.26,14.26,0,0,1,38.75,58.5Z"/><path class="cls-2" d="M26,64.67a46.71,46.71,0,0,1-4.95.47c-.8,1.1-3.41,2-3.41,2,.21,1.62-2.73,4.76-2.73,4.76v.9c0,.89-.7,4.32-.7,4.32-1.64-1.32-1.34-4.34-1.34-4.34-1.71-3,1.68-6,1.68-6h0C15.5,63.28,21,62.66,21,62.66h0a9.46,9.46,0,0,1,3.89-1.91C25.2,61.93,25.58,63.29,26,64.67Z"/><path class="cls-2" d="M21,62.66a4.41,4.41,0,0,0,.06,2.48"/><path class="cls-2" d="M17.66,67.16s-2,.83-3.1-.32"/><path class="cls-2" d="M56.92,43.16s-3.32-1.1-4.1-1.53L52,41.19s-4.19,1-5.49,0c0,0-2.09,1.81-3.44,2h0s-.75,1.22-1.76,2.63a16.84,16.84,0,0,0-.23-3.88s0-.1,0-.14v0c.55-.71,3.51-4.25,6.71-3.4h0c.12,0,4.32-1.4,6,1.49C53.82,39.84,56.59,41.08,56.92,43.16Z"/><path class="cls-2" d="M41.11,41.92a4.09,4.09,0,0,1,2,1.25"/><path class="cls-2" d="M46.55,41.2s1.73-1.35,1.26-2.85"/><path class="cls-2" d="M55.73,54.62S53,52.47,52.38,51.8l-.59-.67s-4.28-.46-5.18-1.83c0,0-2.57,1-3.89.7,0,0-1.09.87-2.48,1.83a27.5,27.5,0,0,0,.86-3.76h0s4.57-3.12,7.6-1h0c.18,0,4.53.14,5.16,3.41C53.92,50.45,56.11,52.55,55.73,54.62Z"/><path class="cls-2" d="M41.14,48.07A4.44,4.44,0,0,1,42.72,50"/><path class="cls-2" d="M46.61,49.3s2.09-.7,2.14-2.26"/><path class="cls-2" d="M52.88,65.5s-2-2.83-2.42-3.64l-.37-.81s-4-1.64-4.47-3.21c0,0-2.75.24-3.93-.43h0s-1.31.55-2.93,1.09a14.26,14.26,0,0,0-.18-2.23s.26-.53.63-1.44a6.11,6.11,0,0,1,1.52.29s5.27-1.7,7.6,1.14c0,0,4.32,1.35,4,4.74C52.31,61,53.83,63.63,52.88,65.5Z"/><path class="cls-2" d="M40.72,55.12a4.47,4.47,0,0,1,1,2.29"/><path class="cls-2" d="M45.63,57.84s2.2-.08,2.69-1.57"/><path class="cls-2" d="M50,72.8s.29,3-1.34,4.34c0,0-.69-3.43-.7-4.32v-.9S45,68.78,45.17,67.16c0,0-2.61-.92-3.41-2,0,0-2.17-.07-4.36-.39a16.84,16.84,0,0,0,1.14-3.84,8.75,8.75,0,0,1,3.29,1.75s5.5.62,6.44,4.18h0S51.66,69.85,50,72.8Z"/><path class="cls-2" d="M41.83,62.66a4.41,4.41,0,0,1-.06,2.48"/><path class="cls-2" d="M45.17,67.16s2,.83,3.1-.32"/><path class="cls-2" d="M54.44,22.89c-.5,1.81-3.4,1.72-3.4,1.72-1.48,2.1-4.24,2.64-6.24,2.73l-1.67-3.85c1.16-.68,4.94-2.78,5.89-2.25a1.14,1.14,0,0,1,.37-1.3s-2.26-3.09-.28-5.29c0,0-3.69-1-5.63-5.72a6,6,0,0,1,1.61-7.3C45.06,4.51,48,8.06,48,8.06,48.69,5.73,44.91.3,44.91.3,51.05,1.72,53.55,5,54.76,7.84S53.52,14,53.52,14c1.6,1.93.32,4.4.32,4.4S54.93,21.08,54.44,22.89Z"/><path class="cls-2" d="M49,21.24s2.33,1.72,2,3.37"/><path class="cls-2" d="M53.84,18.42s-3.11-.17-4.45,1.52"/><path class="cls-2" d="M53.52,14s-2.72-.76-4.41.63"/><path class="cls-2" d="M43.13,23.49s-3.72-1.08-4.87.41"/><path class="cls-2" d="M44.8,27.34a4.73,4.73,0,0,1-4.72,2.16"/><path class="cls-2" d="M7.73,23c.5,1.81,3.4,1.72,3.4,1.72,1.48,2.1,4.23,2.64,6.24,2.73L19,23.6c-1.17-.68-4.94-2.79-5.89-2.25A1.16,1.16,0,0,0,12.78,20S15,17,13.06,14.76c0,0,3.69-1,5.63-5.72a6,6,0,0,0-1.61-7.3c0,2.87-2.87,6.42-2.87,6.42C13.48,5.84,17.26.41,17.26.41,11.11,1.83,8.62,5.06,7.4,7.94s1.24,6.19,1.24,6.19c-1.59,1.93-.31,4.39-.31,4.39S7.23,21.18,7.73,23Z"/><path class="cls-2" d="M13.15,21.35s-2.34,1.71-2,3.37"/><path class="cls-2" d="M8.33,18.53s3.11-.18,4.44,1.52"/><path class="cls-2" d="M8.64,14.13s2.73-.77,4.42.63"/><path class="cls-2" d="M19,23.6s4.15-.92,5.3.57"/><path class="cls-2" d="M17.37,27.45a4.72,4.72,0,0,0,4.72,2.16"/></g></g></g></svg>