<svg xmlns="http://www.w3.org/2000/svg" viewBox="0 0 94.66 74.03"><defs><style>.cls-1{opacity:0.1;}.cls-2{fill:none;stroke:#042c3c;stroke-linecap:round;stroke-linejoin:round;stroke-width:0.6px;}</style></defs><g id="Layer_2" data-name="Layer 2"><g id="OBJECTS"><g class="cls-1"><path class="cls-2" d="M71.09,37.08a28.92,28.92,0,0,1-.18,3.24A27.28,27.28,0,0,1,63.1,56.75a7.82,7.82,0,0,0-2.26,6.12c0,.17,0,.34,0,.52,0,5.71-6.06,10.34-13.53,10.34a16.79,16.79,0,0,1-6.53-1.29,11.83,11.83,0,0,1-6-5.18h0a8.12,8.12,0,0,1-1-3.86c0-.18,0-.35,0-.52A8.07,8.07,0,0,0,33.13,59a7.55,7.55,0,0,0-1.57-2.25,27.19,27.19,0,0,1-7.81-16.47,30.74,30.74,0,0,1-.17-3.2A28.92,28.92,0,0,1,24,32.21,27,27,0,0,1,31.6,17.36a22.07,22.07,0,0,1,31.46,0,27,27,0,0,1,7.61,14.82s0,0,0,0a26.84,26.84,0,0,1,.4,4C71.08,36.52,71.09,36.8,71.09,37.08Z"/><path class="cls-2" d="M23.58,37.08a30.74,30.74,0,0,0,.17,3.2s-5.7,6.31-13.49,3.09S3.82,32.21,3.82,32.21c4.7,1.35,6.06-1.7,12-2.07a16.78,16.78,0,0,1,3.15.07c3.46.42,4.9,1.89,5,2h0A28.92,28.92,0,0,0,23.58,37.08Z"/><path class="cls-2" d="M33.13,59a22,22,0,0,0,5.09-19.09h0C35.78,28.73,24.39,32.09,24,32.21"/><path class="cls-2" d="M3.82,32.22s1.11,1.67,5.4,2.25,10.64-3.3,14.36,1.81"/><path class="cls-2" d="M30.73,36.61s1.11,6.45,7.49,3.3a7.87,7.87,0,0,0-9.59-2.72"/><path class="cls-2" d="M45,67.26s0-4.34-4-3.94a2.89,2.89,0,0,0,2.78,3.28"/><path class="cls-2" d="M58.87,67.26s-1.72-10.94-12-8.54h0c-10.32-2.4-12,8.54-12,8.54"/><path class="cls-2" d="M52.86,72.44s-1.25-3.08-6.53-3.08h1c-5.28,0-6.53,3.08-6.53,3.08"/><path class="cls-2" d="M70.87,40.28l0,0c.51.54,6,6.12,13.45,3,7.8-3.21,6.44-11.16,6.44-11.16"/><path class="cls-2" d="M70.67,32.18l0,0S58.88,28.53,56.41,39.9h0A22,22,0,0,0,61.49,59"/><path class="cls-2" d="M71.07,36.24l0,0"/><path class="cls-2" d="M63.89,36.61s-1.12,6.45-7.49,3.3A7.86,7.86,0,0,1,66,37.19"/><path class="cls-2" d="M48.7,67.26s0-4.34,4-3.94a2.89,2.89,0,0,1-2.78,3.28"/><path class="cls-2" d="M90.8,32.21s-1.12,1.68-5.4,2.26-10.61-3.28-14.33,1.77a26.84,26.84,0,0,0-.4-4s0,0,0,0a8.56,8.56,0,0,1,5-2,16.59,16.59,0,0,1,3.13-.07C84.74,30.51,86.09,33.56,90.8,32.21Z"/><path class="cls-2" d="M70.67,32.2h0"/><path class="cls-2" d="M63.06,17.36a43.8,43.8,0,0,0,18.46-4.52C90.33,8.22,88.19.3,88.19.3s9.23,5.94,5.11,15.84c-2.74,6.56-11.83,11.5-17.63,14.07"/><path class="cls-2" d="M19,30.21C13.18,27.64,4.1,22.71,1.36,16.14-2.76,6.24,6.48.3,6.48.3S4.33,8.22,13.14,12.84A43.77,43.77,0,0,0,31.6,17.36"/><path class="cls-2" d="M2.74,4S1,20.25,25.25,27.37"/><path class="cls-2" d="M92,4S93.7,20.25,69.45,27.37"/></g></g></g></svg>