<svg xmlns="http://www.w3.org/2000/svg" viewBox="0 0 81.57 81.57"><defs><style>.cls-1{opacity:0.1;}.cls-2{fill:none;stroke:#042c3c;stroke-linecap:round;stroke-linejoin:round;stroke-width:0.6px;}</style></defs><g id="Layer_2" data-name="Layer 2"><g id="OBJECTS"><g class="cls-1"><circle class="cls-2" cx="40.78" cy="40.78" r="40.48" transform="translate(-16.89 40.78) rotate(-45)"/><path class="cls-2" d="M61.64,43.82c0,.31-.28,2.23.32,2.85.95,1-1.11,1.66-1.11,1.66a.9.9,0,0,1,.61,1.11c-.14,1-1.25.8-1.25,1.43s1.11,4.12-2.45,4.52-12.84.79-16.56-4-2.7-7.92-2.7-7.92-3.17-.49-2.61-5.08a5.38,5.38,0,0,1,1.26-3.1c1.11-1.09,2.36-.1,3.3.7a6.2,6.2,0,0,0,2.73,1.54c1.52.36,2.39-1.79,3.36-4.36,0,0,.7-1.86,5.85-3.92,2.56-1,5.71-1.17,8.25-1.76a8.81,8.81,0,0,1-.19,2.75c-1,4.2-.39,5.94-.39,5.94s1.9,3.41,3.64,4.52S61.64,43.5,61.64,43.82Z"/><path class="cls-2" d="M39.26,37.37s-.84-.95-1.27-.31,1.75,3.11.64,3.38"/><path class="cls-2" d="M60.33,41.88a.73.73,0,0,0,.2.91"/><path class="cls-2" d="M62,46.67a2,2,0,0,0-1.9.15,6.51,6.51,0,0,1-1.9.84s.91,2.57,2.24,2.85"/><path class="cls-2" d="M60.84,48.34a3.51,3.51,0,0,1-2.69-.68"/><path class="cls-2" d="M49.43,55.32a31.73,31.73,0,0,0,0,5.85S40.92,63.85,36,57.4c0,0-5.21,13.8-5.22,22.63"/><path class="cls-2" d="M58.63,34.09s-3.17-2-5.6,0"/><path class="cls-2" d="M54.27,35.7a2.18,2.18,0,0,0,2.1.87c1.47-.16,1.67-.87,1.67-.87"/><line class="cls-2" x1="60.39" y1="75.42" x2="49.43" y2="61.17"/><path class="cls-2" d="M42.73.35C52.19,3.35,56,11.1,57.55,16.27"/><line class="cls-2" x1="38.5" y1="43.5" x2="36.03" y2="57.4"/><path class="cls-2" d="M65.16,22.85c0,3-1.94,4-4.52,4.67s-5.69.74-8.25,1.76c-5.15,2.06-5.85,3.92-5.85,3.92v0c0-.66.92-17.36,11-16.91C57.55,16.27,65.16,17,65.16,22.85Z"/><path class="cls-2" d="M52.13,18.12s-7-7.39-22.21-2.41S8.85,32.11,10.13,43.5s2.16,18.3-2,21.23"/><path class="cls-2" d="M17.34,73.79s9.39-2.12,10-15.87S23.15,30.07,33.05,25.2c10.24-5,13.49,8,13.49,8"/><path class="cls-2" d="M60.64,27.52c6.64.57,10.42,7.08,10.44,13.26,0,3.9-1.77,7.35-3.77,10.58-2.09,3.38-5.22,7.87-5.36,12-.24,7.28,5.85,7.61,5.85,7.61"/></g></g></g></svg>