<svg xmlns="http://www.w3.org/2000/svg" viewBox="0 0 245.37 249.87"><defs><style>.cls-1{fill:none;stroke:#6f7882;stroke-miterlimit:10;stroke-width:3.14px;}.cls-2{fill:#6f7882;}</style></defs><g id="Layer_2" data-name="Layer 2"><g id="Capa_1" data-name="Capa 1"><polygon class="cls-1" points="13.48 225.91 46.48 194.97 95.98 194.97 153.73 149.59 221.79 44.4 232.11 186.72 217.67 225.91 176.42 225.91 137.23 240.34 98.04 223.84 13.48 225.91"/><path class="cls-2" d="M27,226.12a13.48,13.48,0,1,1-13.47-13.48A13.47,13.47,0,0,1,27,226.12Z"/><path class="cls-2" d="M59,193.17a9.53,9.53,0,1,1-9.53-9.53A9.53,9.53,0,0,1,59,193.17Z"/><path class="cls-2" d="M109.86,193.17a9.53,9.53,0,1,1-9.53-9.53A9.53,9.53,0,0,1,109.86,193.17Z"/><path class="cls-2" d="M166,148.25a9.53,9.53,0,1,1-9.53-9.53A9.53,9.53,0,0,1,166,148.25Z"/><path class="cls-2" d="M227.2,225.9a9.53,9.53,0,1,1-9.53-9.53A9.53,9.53,0,0,1,227.2,225.9Z"/><path class="cls-2" d="M186,225.9a9.53,9.53,0,1,1-9.53-9.53A9.53,9.53,0,0,1,186,225.9Z"/><path class="cls-2" d="M146.76,240.34a9.53,9.53,0,1,1-9.53-9.53A9.53,9.53,0,0,1,146.76,240.34Z"/><path class="cls-2" d="M107.57,223.84A9.53,9.53,0,1,1,98,214.31,9.53,9.53,0,0,1,107.57,223.84Z"/><path class="cls-2" d="M208.53,48.13A13.27,13.27,0,1,1,221.79,61.4,13.26,13.26,0,0,1,208.53,48.13Z"/><circle class="cls-2" cx="232.11" cy="183.64" r="13.26"/><path class="cls-2" d="M218.84,8.61a8.61,8.61,0,1,1,8.61,8.61A8.61,8.61,0,0,1,218.84,8.61Z"/><line class="cls-1" x1="227.45" y1="8.61" x2="218.84" y2="48.96"/></g></g></svg>