<svg xmlns="http://www.w3.org/2000/svg" viewBox="0 0 217.23 236.27"><defs><style>.cls-1{fill:none;stroke:#6f7882;stroke-miterlimit:10;stroke-width:3.14px;}.cls-2{fill:#6f7882;}</style></defs><g id="Layer_2" data-name="Layer 2"><g id="Capa_1" data-name="Capa 1"><polyline class="cls-1" points="13.26 84.52 17.75 115.02 41.97 110.53 79.64 144.62 105.65 172.43 122.7 218.18 122.7 170.63 132.56 124.89 132.56 106.95 158.58 57.61 170.24 33.39 183.69 47.74 201.63 41.47 210.6 24.42 202.53 10.07 189.97 4.69 174.72 12.76"/><circle class="cls-2" cx="13.26" cy="74.04" r="13.26"/><path class="cls-2" d="M8.37,115a9.38,9.38,0,1,1,9.38,9.38A9.38,9.38,0,0,1,8.37,115Z"/><path class="cls-2" d="M35.59,111.43A9.38,9.38,0,1,1,45,120.81,9.38,9.38,0,0,1,35.59,111.43Z"/><circle class="cls-2" cx="105.33" cy="172.92" r="6.63"/><circle class="cls-2" cx="122.77" cy="172.92" r="6.63"/><circle class="cls-2" cx="133" cy="103.52" r="6.63" transform="matrix(0.16, -0.99, 0.99, 0.16, 9.13, 217.81)"/><path class="cls-2" d="M163.61,33.39A6.63,6.63,0,1,1,170.24,40,6.63,6.63,0,0,1,163.61,33.39Z"/><path class="cls-2" d="M196.94,41.47a4.69,4.69,0,1,1,4.69,4.69A4.69,4.69,0,0,1,196.94,41.47Z"/><path class="cls-2" d="M196.94,11.18a4.69,4.69,0,1,1,4.69,4.69A4.69,4.69,0,0,1,196.94,11.18Z"/><path class="cls-2" d="M185.63,4.69a4.69,4.69,0,1,1,4.69,4.69A4.69,4.69,0,0,1,185.63,4.69Z"/><circle class="cls-2" cx="183.69" cy="47.74" r="6.63" transform="translate(-6.05 52.15) rotate(-15.9)"/><circle class="cls-2" cx="210.6" cy="22.91" r="6.63" transform="translate(110.1 209.4) rotate(-67.89)"/><path class="cls-2" d="M63.22,142.62a13.24,13.24,0,1,1,13.23,13.24A13.23,13.23,0,0,1,63.22,142.62Z"/><circle class="cls-2" cx="133" cy="129.39" r="13.23" transform="translate(-52.54 131.94) rotate(-45)"/><path class="cls-2" d="M111.93,223a13.24,13.24,0,1,1,13.24,13.23A13.24,13.24,0,0,1,111.93,223Z"/><path class="cls-2" d="M143.21,66.63a13.24,13.24,0,1,1,13.24,13.24A13.23,13.23,0,0,1,143.21,66.63Z"/><path class="cls-2" d="M168,14.07a6.83,6.83,0,1,1,6.83,6.83A6.83,6.83,0,0,1,168,14.07Z"/></g></g></svg>