<svg xmlns="http://www.w3.org/2000/svg" viewBox="0 0 313.82 215.77"><defs><style>.cls-1{fill:none;stroke:#6f7882;stroke-miterlimit:10;stroke-width:3.14px;}.cls-2{fill:#6f7882;}</style></defs><g id="Layer_2" data-name="Layer 2"><g id="Capa_1" data-name="Capa 1"><polygon class="cls-1" points="8.09 207.69 85.38 138.12 216.78 102.05 273.46 122.66 288.92 179.34 90.53 207.69 8.09 207.69"/><polyline class="cls-1" points="216.78 102.05 216.78 51.83 270.88 4.15 301.8 16.17"/><path class="cls-2" d="M313.82,16.17a12,12,0,1,1-12-12A12,12,0,0,1,313.82,16.17Z"/><path class="cls-2" d="M285.48,122.66a12,12,0,1,1-12-12A12,12,0,0,1,285.48,122.66Z"/><circle class="cls-2" cx="270.06" cy="8.09" r="8.09" transform="translate(73.38 193.33) rotate(-45)"/><path class="cls-2" d="M224.86,102.05A8.09,8.09,0,1,1,216.78,94,8.09,8.09,0,0,1,224.86,102.05Z"/><circle class="cls-2" cx="216.78" cy="51.83" r="8.09"/><circle class="cls-2" cx="288.92" cy="179.35" r="8.09"/><path class="cls-2" d="M107,207.69a8.09,8.09,0,1,1-8.09-8.09A8.09,8.09,0,0,1,107,207.69Z"/><path class="cls-2" d="M16.17,207.69a8.09,8.09,0,1,1-8.08-8.09A8.08,8.08,0,0,1,16.17,207.69Z"/><circle class="cls-2" cx="85.38" cy="138.12" r="8.09" transform="translate(-64.64 200.27) rotate(-80.78)"/></g></g></svg>