<svg xmlns="http://www.w3.org/2000/svg" viewBox="0 0 193.49 270.1"><defs><style>.cls-1{fill:none;stroke:#6f7882;stroke-miterlimit:10;stroke-width:3.14px;}.cls-2{fill:#6f7882;}</style></defs><g id="Layer_2" data-name="Layer 2"><g id="Capa_1" data-name="Capa 1"><polyline class="cls-1" points="180.23 13.26 32.26 122.53 106.25 154.4 150.63 138.46"/><polyline class="cls-1" points="32.26 122.53 32.26 154.4 6.65 154.4 13.29 182.47 69.44 256.83 80.07 220.41 119.53 203.72 133.18 220.41 172.64 246.21"/><circle class="cls-2" cx="180.23" cy="13.26" r="13.26" transform="translate(138.15 189.01) rotate(-80.74)"/><circle class="cls-2" cx="148.85" cy="141.13" r="13.26" transform="translate(-22.56 253.8) rotate(-76.79)"/><circle class="cls-2" cx="172.64" cy="246.21" r="13.26" transform="translate(-123.53 194.19) rotate(-45)"/><circle class="cls-2" cx="69.44" cy="256.83" r="13.26" transform="translate(-196.56 262.34) rotate(-76.05)"/><circle class="cls-2" cx="32.8" cy="122.53" r="13.26" transform="translate(-2.43 0.68) rotate(-1.14)"/><path class="cls-2" d="M96.84,70.09a9.41,9.41,0,1,1,9.41,9.4A9.41,9.41,0,0,1,96.84,70.09Z"/><path class="cls-2" d="M25.62,154.4A6.65,6.65,0,1,1,32.26,161,6.64,6.64,0,0,1,25.62,154.4Z"/><path class="cls-2" d="M0,154.4A6.65,6.65,0,1,1,6.65,161,6.65,6.65,0,0,1,0,154.4Z"/><path class="cls-2" d="M76.06,222a6.65,6.65,0,1,1,6.65,6.65A6.64,6.64,0,0,1,76.06,222Z"/><path class="cls-2" d="M111.8,205.4a6.65,6.65,0,1,1,6.65,6.64A6.65,6.65,0,0,1,111.8,205.4Z"/><path class="cls-2" d="M127.1,222a6.65,6.65,0,1,1,6.65,6.65A6.64,6.64,0,0,1,127.1,222Z"/><path class="cls-2" d="M6.65,182.47a6.65,6.65,0,1,1,6.64,6.65A6.64,6.64,0,0,1,6.65,182.47Z"/><path class="cls-2" d="M96.84,154.4a9.41,9.41,0,1,1,9.41,9.4A9.41,9.41,0,0,1,96.84,154.4Z"/></g></g></svg>