<svg xmlns="http://www.w3.org/2000/svg" viewBox="0 0 382.03 229.74"><defs><style>.cls-1{fill:none;stroke:#6f7882;stroke-miterlimit:10;stroke-width:3.14px;}.cls-2{fill:#6f7882;}</style></defs><g id="Layer_2" data-name="Layer 2"><g id="Capa_1" data-name="Capa 1"><polyline class="cls-1" points="8.77 83.28 111.2 149.91 149.91 162.68 196.97 151.57 179.49 104.1 142.02 118.26 148.68 96.61 119.53 66.63 40.13 13.32"/><path class="cls-2" d="M17.53,82.87A8.77,8.77,0,1,1,8.77,74.1,8.76,8.76,0,0,1,17.53,82.87Z"/><path class="cls-2" d="M120.4,152a8.77,8.77,0,1,1-8.77-8.77A8.77,8.77,0,0,1,120.4,152Z"/><path class="cls-2" d="M160.06,162.68a8.77,8.77,0,1,1-8.76-8.77A8.76,8.76,0,0,1,160.06,162.68Z"/><circle class="cls-2" cx="359.78" cy="196.82" r="8.77" transform="translate(-33.8 312.05) rotate(-45)"/><path class="cls-2" d="M382,221a8.77,8.77,0,1,1-8.77-8.76A8.77,8.77,0,0,1,382,221Z"/><path class="cls-2" d="M189.65,106.05a8.77,8.77,0,1,1-8.77-8.77A8.77,8.77,0,0,1,189.65,106.05Z"/><circle class="cls-2" cx="142.02" cy="118.26" r="8.77" transform="translate(-3.56 232.12) rotate(-77.81)"/><circle class="cls-2" cx="119.53" cy="66.63" r="8.77"/><path class="cls-2" d="M53.46,13.33A13.33,13.33,0,1,1,40.14,0,13.33,13.33,0,0,1,53.46,13.33Z"/><path class="cls-2" d="M156.33,97.28a8.77,8.77,0,1,1-8.76-8.77A8.77,8.77,0,0,1,156.33,97.28Z"/><path class="cls-2" d="M208.07,151.57a11.11,11.11,0,1,1-11.1-11.1A11.1,11.1,0,0,1,208.07,151.57Z"/><circle class="cls-2" cx="240.01" cy="181" r="13.6"/><polyline class="cls-1" points="196.97 151.57 240.01 181 361.05 196.54 373.26 220.97"/></g></g></svg>