<svg xmlns="http://www.w3.org/2000/svg" viewBox="0 0 278.97 235.71"><defs><style>.cls-1{fill:none;stroke:#6f7882;stroke-miterlimit:10;stroke-width:3.14px;}.cls-2{fill:#6f7882;}</style></defs><g id="Layer_2" data-name="Layer 2"><g id="Capa_1" data-name="Capa 1"><polyline class="cls-1" points="53.72 10.74 79.91 27.86 108.12 35.92 125.24 18.8"/><polyline class="cls-1" points="108.12 35.92 125.24 67.15 116.68 103.26 101.07 88.78 53.72 79.24 22.49 103.26 9.4 126.58 46.67 178.97 62.79 215.23 99.05 192.06"/><line class="cls-1" x1="62.79" y1="215.23" x2="109.13" y2="226.31"/><polyline class="cls-1" points="116.68 103.26 154.46 81.25 181.66 65.13 200.8 10.74"/><polyline class="cls-1" points="205.83 151.77 186.69 133.63 196.26 99.38 225.98 103.26 264.26 77.22"/><line class="cls-1" x1="181.66" y1="65.13" x2="196.26" y2="99.38"/><path class="cls-2" d="M279,79.85a14.71,14.71,0,1,1-14.71-14.72A14.71,14.71,0,0,1,279,79.85Z"/><circle class="cls-2" cx="228.46" cy="103.26" r="9.4"/><circle class="cls-2" cx="196.26" cy="103.26" r="9.4"/><circle class="cls-2" cx="125.24" cy="65.13" r="9.4"/><circle class="cls-2" cx="125.24" cy="18.8" r="9.4"/><circle class="cls-2" cx="85.96" cy="28.19" r="9.4"/><path class="cls-2" d="M76.72,215.23a9.4,9.4,0,1,1-9.4-9.4A9.4,9.4,0,0,1,76.72,215.23Z"/><circle class="cls-2" cx="104.75" cy="192.86" r="9.4"/><path class="cls-2" d="M118.52,226.31a9.4,9.4,0,1,1-9.39-9.4A9.39,9.39,0,0,1,118.52,226.31Z"/><circle class="cls-2" cx="46.67" cy="178.97" r="9.4"/><path class="cls-2" d="M63.12,9.4A9.4,9.4,0,1,1,53.72,0,9.4,9.4,0,0,1,63.12,9.4Z"/><path class="cls-2" d="M18.8,128.6a9.4,9.4,0,1,1-9.4-9.39A9.4,9.4,0,0,1,18.8,128.6Z"/><circle class="cls-2" cx="22.82" cy="103.26" r="9.4"/><path class="cls-2" d="M63.12,79.24a9.4,9.4,0,1,1-9.4-9.4A9.4,9.4,0,0,1,63.12,79.24Z"/><circle class="cls-2" cx="186.19" cy="135.47" r="9.4"/><path class="cls-2" d="M210.19,10.74a9.4,9.4,0,1,1-9.39-9.4A9.38,9.38,0,0,1,210.19,10.74Z"/><circle class="cls-2" cx="210.19" cy="151.77" r="9.4"/><circle class="cls-2" cx="181.66" cy="65.13" r="9.4"/><circle class="cls-2" cx="116.68" cy="103.26" r="9.4"/></g></g></svg>