<svg xmlns="http://www.w3.org/2000/svg" viewBox="0 0 236.5 262.49"><defs><style>.cls-1{fill:none;stroke:#6f7882;stroke-miterlimit:10;stroke-width:3.14px;}.cls-2{fill:#6f7882;}</style></defs><g id="Layer_2" data-name="Layer 2"><g id="Capa_1" data-name="Capa 1"><polyline class="cls-1" points="0.34 98.46 41.83 107.6 52.12 83.03 111.81 12.02 226.03 59.81 203.39 180.78 129.3 211.65 129.3 252.81"/><line class="cls-1" x1="111.81" y1="12.02" x2="203.39" y2="180.78"/><path class="cls-2" d="M123.83,12a12,12,0,1,1-12-12A12,12,0,0,1,123.83,12Z"/><circle class="cls-2" cx="203.39" cy="180.78" r="12.02"/><path class="cls-2" d="M236.5,61.81A10.48,10.48,0,1,1,226,51.33,10.48,10.48,0,0,1,236.5,61.81Z"/><path class="cls-2" d="M62.6,83A10.48,10.48,0,1,1,52.12,72.55,10.48,10.48,0,0,1,62.6,83Z"/><path class="cls-2" d="M48.85,107.6a7,7,0,1,1-7-7A7,7,0,0,1,48.85,107.6Z"/><path class="cls-2" d="M14.37,100.58a7,7,0,1,1-7-7A7,7,0,0,1,14.37,100.58Z"/><path class="cls-2" d="M137.87,255.47a7,7,0,1,1-7-7A7,7,0,0,1,137.87,255.47Z"/><path class="cls-2" d="M144.28,213a13.43,13.43,0,1,1-13.43-13.43A13.43,13.43,0,0,1,144.28,213Z"/></g></g></svg>