<svg xmlns="http://www.w3.org/2000/svg" viewBox="0 0 397.91 203.32"><defs><style>.cls-1{fill:#6f7882;}.cls-2{fill:none;stroke:#6f7882;stroke-miterlimit:10;stroke-width:3.14px;}</style></defs><g id="Layer_2" data-name="Layer 2"><g id="Capa_1" data-name="Capa 1"><path class="cls-1" d="M23.41,11.7A11.71,11.71,0,1,1,11.7,0,11.71,11.71,0,0,1,23.41,11.7Z"/><path class="cls-1" d="M253.13,68.55A16.65,16.65,0,1,1,236.48,51.9,16.64,16.64,0,0,1,253.13,68.55Z"/><path class="cls-1" d="M374.5,128.81a11.71,11.71,0,1,1-11.7-11.7A11.7,11.7,0,0,1,374.5,128.81Z"/><path class="cls-1" d="M397.91,193.33a10,10,0,1,1-10-10A10,10,0,0,1,397.91,193.33Z"/><polyline class="cls-2" points="11.7 11.7 236.48 68.55 362.8 128.81 387.92 193.33"/></g></g></svg>