<svg xmlns="http://www.w3.org/2000/svg" viewBox="0 0 140.43 274.73"><defs><style>.cls-1{fill:none;stroke:#6f7882;stroke-miterlimit:10;stroke-width:3.14px;}.cls-2{fill:#6f7882;}</style></defs><g id="Layer_2" data-name="Layer 2"><g id="Capa_1" data-name="Capa 1"><polyline class="cls-1" points="6.83 241.59 33.01 189.71 66.62 167.2 132.51 184.2 109.13 154.44 102.75 97.05 113.38 60.91 109.13 12.02"/><polyline class="cls-1" points="56.09 267.9 75.39 237.61 91.95 241.59 132.51 184.2"/><polyline class="cls-1" points="66.62 167.2 65.02 103.69 102.75 97.05"/><line class="cls-1" x1="15.6" y1="90.94" x2="65.02" y2="103.69"/><path class="cls-2" d="M118.35,12a12,12,0,1,1-12-12A12,12,0,0,1,118.35,12Z"/><path class="cls-2" d="M140.43,184.2a12,12,0,1,1-12-12A12,12,0,0,1,140.43,184.2Z"/><path class="cls-2" d="M120.21,60.91a6.83,6.83,0,1,1-6.83-6.83A6.83,6.83,0,0,1,120.21,60.91Z"/><path class="cls-2" d="M76.59,167.2a10,10,0,1,1-10-10A10,10,0,0,1,76.59,167.2Z"/><path class="cls-2" d="M109.59,97.05a6.84,6.84,0,1,1-6.84-6.83A6.83,6.83,0,0,1,109.59,97.05Z"/><path class="cls-2" d="M116,154.44a6.83,6.83,0,1,1-6.83-6.83A6.83,6.83,0,0,1,116,154.44Z"/><path class="cls-2" d="M39.84,189.71A6.84,6.84,0,1,1,33,182.88,6.83,6.83,0,0,1,39.84,189.71Z"/><path class="cls-2" d="M22.43,90.94a6.83,6.83,0,1,1-6.83-6.83A6.83,6.83,0,0,1,22.43,90.94Z"/><path class="cls-2" d="M71.86,103.69A6.84,6.84,0,1,1,65,96.86,6.84,6.84,0,0,1,71.86,103.69Z"/><path class="cls-2" d="M13.67,241.59a6.84,6.84,0,1,1-6.84-6.83A6.84,6.84,0,0,1,13.67,241.59Z"/><path class="cls-2" d="M62.93,267.9a6.84,6.84,0,1,1-6.84-6.83A6.83,6.83,0,0,1,62.93,267.9Z"/><path class="cls-2" d="M82.22,237.61a6.84,6.84,0,1,1-6.83-6.83A6.83,6.83,0,0,1,82.22,237.61Z"/><path class="cls-2" d="M101.14,241.59a6.84,6.84,0,1,1-6.84-6.83A6.84,6.84,0,0,1,101.14,241.59Z"/></g></g></svg>