<svg xmlns="http://www.w3.org/2000/svg" viewBox="0 0 276.94 251.15"><defs><style>.cls-1{fill:none;stroke:#6f7882;stroke-miterlimit:10;stroke-width:3.14px;}.cls-2{fill:#6f7882;}</style></defs><g id="Layer_2" data-name="Layer 2"><g id="Capa_1" data-name="Capa 1"><polyline class="cls-1" points="13.32 13.32 76.46 98.06 98.06 137.93 86.42 244.26"/><line class="cls-1" x1="262.53" y1="191.09" x2="98.05" y2="137.93"/><path class="cls-2" d="M85.22,98.06a8.77,8.77,0,1,1-8.76-8.77A8.76,8.76,0,0,1,85.22,98.06Z"/><circle class="cls-2" cx="98.05" cy="140.1" r="8.77" transform="matrix(0.23, -0.97, 0.97, 0.23, -60.82, 203.34)"/><path class="cls-2" d="M26.65,13.33A13.33,13.33,0,1,1,13.32,0,13.33,13.33,0,0,1,26.65,13.33Z"/><path class="cls-2" d="M95.42,242.15a9,9,0,1,1-9-9A9,9,0,0,1,95.42,242.15Z"/><circle class="cls-2" cx="262.53" cy="191.09" r="14.41"/></g></g></svg>