<svg xmlns="http://www.w3.org/2000/svg" viewBox="0 0 263.52 223.33"><defs><style>.cls-1{fill:none;stroke:#6f7882;stroke-miterlimit:10;stroke-width:3.14px;}.cls-2{fill:#6f7882;}</style></defs><g id="Layer_2" data-name="Layer 2"><g id="Capa_1" data-name="Capa 1"><polyline class="cls-1" points="220.65 215.84 217.19 158.91 236.96 100.74 224.16 59.5 177.56 57.76 74.32 6.2 46.44 9.3 16.63 32.46 8.77 107.58 37.93 130.09 110.91 139.86 163.26 138.11 210.8 156.63"/><circle class="cls-2" cx="8.77" cy="107.59" r="8.77" transform="translate(-73.51 37.71) rotate(-45)"/><line class="cls-1" x1="224.16" y1="59.5" x2="257.32" y2="51.85"/><path class="cls-2" d="M52.11,133.86a8.77,8.77,0,1,1-8.77-8.77A8.77,8.77,0,0,1,52.11,133.86Z"/><circle class="cls-2" cx="115.66" cy="142.62" r="8.77" transform="translate(-49.72 222.42) rotate(-76.72)"/><circle class="cls-2" cx="163.26" cy="138.11" r="8.77" transform="translate(-8.67 265.27) rotate(-76.72)"/><path class="cls-2" d="M245.73,100.74A8.77,8.77,0,1,1,237,92,8.77,8.77,0,0,1,245.73,100.74Z"/><path class="cls-2" d="M232.93,59.5a8.77,8.77,0,1,1-8.77-8.77A8.77,8.77,0,0,1,232.93,59.5Z"/><path class="cls-2" d="M263.52,51.85a6.2,6.2,0,1,1-6.2-6.2A6.21,6.21,0,0,1,263.52,51.85Z"/><path class="cls-2" d="M183.75,57.76a6.2,6.2,0,1,1-6.19-6.2A6.19,6.19,0,0,1,183.75,57.76Z"/><path class="cls-2" d="M80.52,6.2A6.2,6.2,0,1,1,74.32,0,6.2,6.2,0,0,1,80.52,6.2Z"/><path class="cls-2" d="M55.74,9.3A9.3,9.3,0,1,1,46.44,0,9.3,9.3,0,0,1,55.74,9.3Z"/><circle class="cls-2" cx="16.63" cy="32.46" r="9.3"/><path class="cls-2" d="M231.14,158.91A13.95,13.95,0,1,1,217.19,145,14,14,0,0,1,231.14,158.91Z"/><circle class="cls-2" cx="220.65" cy="214.31" r="9.02"/></g></g></svg>