<svg xmlns="http://www.w3.org/2000/svg" viewBox="0 0 256.15 224.41"><defs><style>.cls-1{fill:#6f7882;}.cls-2{fill:none;stroke:#6f7882;stroke-miterlimit:10;stroke-width:3.14px;}</style></defs><g id="Layer_2" data-name="Layer 2"><g id="Capa_1" data-name="Capa 1"><path class="cls-1" d="M252.91,8.5a8.5,8.5,0,1,1-8.5-8.5A8.49,8.49,0,0,1,252.91,8.5Z"/><polyline class="cls-2" points="37 151.54 11.97 171.81 6.01 198.03 37 215.91 77.53 215.91 110.91 206.37 118.06 170.61 125.21 130.09 155.01 86.89 174.08 71.68 196.73 60.95 244.41 46.65 244.41 76.45 244.41 107.44"/><line class="cls-2" x1="244.41" y1="8.5" x2="244.41" y2="46.65"/><path class="cls-1" d="M202.53,61a5.8,5.8,0,1,1-5.8-5.8A5.8,5.8,0,0,1,202.53,61Z"/><path class="cls-1" d="M125.21,169.49a5.8,5.8,0,1,1-5.8-5.8A5.8,5.8,0,0,1,125.21,169.49Z"/><path class="cls-1" d="M133.71,131.28a8.5,8.5,0,1,1-8.5-8.5A8.5,8.5,0,0,1,133.71,131.28Z"/><path class="cls-1" d="M119.41,206.37a8.5,8.5,0,1,1-8.5-8.5A8.51,8.51,0,0,1,119.41,206.37Z"/><path class="cls-1" d="M92.51,215.91a8.5,8.5,0,1,1-8.5-8.5A8.49,8.49,0,0,1,92.51,215.91Z"/><path class="cls-1" d="M45.51,215.91a8.51,8.51,0,1,1-8.51-8.5A8.5,8.5,0,0,1,45.51,215.91Z"/><path class="cls-1" d="M183.81,72.13a8.89,8.89,0,1,1-8.89-8.88A8.89,8.89,0,0,1,183.81,72.13Z"/><path class="cls-1" d="M159.73,87.85a6,6,0,1,1-6-6A6,6,0,0,1,159.73,87.85Z"/><path class="cls-1" d="M12,198a6,6,0,1,1-6-6A6,6,0,0,1,12,198Z"/><path class="cls-1" d="M43,151.54a6,6,0,1,1-6-6A6,6,0,0,1,43,151.54Z"/><path class="cls-1" d="M20.83,169.49A8.81,8.81,0,1,1,12,160.68,8.8,8.8,0,0,1,20.83,169.49Z"/><path class="cls-1" d="M256.15,109.1a11.74,11.74,0,1,1-11.74-11.74A11.74,11.74,0,0,1,256.15,109.1Z"/><path class="cls-1" d="M252.91,75.53a8.5,8.5,0,1,1-8.5-8.5A8.49,8.49,0,0,1,252.91,75.53Z"/><path class="cls-1" d="M252.91,46.65a8.5,8.5,0,1,1-8.5-8.51A8.5,8.5,0,0,1,252.91,46.65Z"/></g></g></svg>