<svg xmlns="http://www.w3.org/2000/svg" viewBox="0 0 558.13 514.28"><defs><style>.cls-1{fill:#4d4f5a;}</style></defs><g id="Layer_2" data-name="Layer 2"><g id="Ñëîé_1" data-name="Ñëîé 1"><polygon class="cls-1" points="551.88 18.5 558.13 11.86 549.43 10.98 550.88 3.3 543.97 6.79 540.25 0 537.09 7.14 529.42 2.94 530.81 11.95 523.44 13.34 528.32 17.71 522.45 23.24 532.04 24.8 530.93 33.45 536.73 30.08 539.6 36.14 543.59 28.39 552.37 32.54 550.67 24.66 557.17 23.82 551.88 18.5"/><polygon class="cls-1" points="133.56 374.67 139.81 368.04 131.11 367.15 132.56 359.48 125.65 362.97 121.93 356.18 118.77 363.32 111.1 359.12 112.49 368.12 105.12 369.52 110 373.88 104.13 379.42 113.72 380.98 112.61 389.63 118.41 386.26 121.28 392.32 125.27 384.56 134.05 388.71 132.35 380.83 138.85 380 133.56 374.67"/><circle class="cls-1" cx="28.82" cy="464.96" r="10.17" transform="translate(-204.09 61.51) rotate(-26.45)"/><path class="cls-1" d="M102.12,428.35a10.17,10.17,0,1,1-12.3-7.44A10.18,10.18,0,0,1,102.12,428.35Z"/><circle class="cls-1" cx="45.84" cy="384.42" r="10.17" transform="translate(-306.82 224.72) rotate(-58.84)"/><circle class="cls-1" cx="184.51" cy="322.21" r="10.17" transform="translate(-125.89 118.46) rotate(-26.92)"/><path class="cls-1" d="M324.71,197.79a10.17,10.17,0,1,1-12.31-7.44A10.17,10.17,0,0,1,324.71,197.79Z"/><circle class="cls-1" cx="366.97" cy="175.2" r="10.17" transform="matrix(0.95, -0.3, 0.3, 0.95, -35.84, 119.45)"/><path class="cls-1" d="M497.11,204.16a10.16,10.16,0,1,1-12.91,6.32A10.16,10.16,0,0,1,497.11,204.16Z"/><circle class="cls-1" cx="515.71" cy="120.29" r="10.17" transform="translate(0.13 241.12) rotate(-26.32)"/><circle class="cls-1" cx="461.84" cy="86.23" r="10.17" transform="translate(9.15 211.93) rotate(-26.09)"/><path class="cls-1" d="M471.86,355.83a10.16,10.16,0,1,1-12.3-7.44A10.17,10.17,0,0,1,471.86,355.83Z"/><circle class="cls-1" cx="79.56" cy="350.36" r="10.17" transform="matrix(0.52, -0.86, 0.86, 0.52, -261.41, 237.13)"/><path class="cls-1" d="M2.05,514.28a2.06,2.06,0,0,1-1.78-3.07l26.6-47,17-80.23a2.08,2.08,0,0,1,.55-1l33.71-34.06a2,2,0,0,1,2.47-.34L123,372.46a2.05,2.05,0,0,1,.81,2.75L94.07,431.74a2,2,0,0,1-.8.83L33.14,466.74a2.05,2.05,0,0,1-2.66-.55L3.85,513.24A2.08,2.08,0,0,1,2.05,514.28ZM47.73,385.43,31.32,463.05l59.39-33.76,28.51-54.23L79.91,352.92Z"/><path class="cls-1" d="M122,376.3a2.05,2.05,0,0,1-1.32-3.63l62.55-52L313.43,198.72a2.06,2.06,0,0,1,.52-.35l51.84-24.89,94.65-88.75,78.5-68.21a2.05,2.05,0,0,1,3.35,2L517.71,120.77l-21.89,93.48L464,358.7a2.06,2.06,0,0,1-4-.88l31.83-144.49,21.9-93.51,23.08-96-73.6,63.94L368.37,176.7a2.06,2.06,0,0,1-.52.35L316,201.94,185.92,323.71l-62.64,52.12A2,2,0,0,1,122,376.3Z"/></g></g></svg>