<svg xmlns="http://www.w3.org/2000/svg" xmlns:xlink="http://www.w3.org/1999/xlink" version="1.1" x="0px" y="0px" width="512" height="512" x="0" y="0" viewBox="0 0 64 64" style="enable-background:new 0 0 512 512" xml:space="preserve"><g><path d="M59 52.5c-.074 0-.143.017-.216.022l-4.691-12.734a3.476 3.476 0 0 0-1.814-6.26l-1.6-7.475a3.487 3.487 0 1 0-4.3-5.345l-4.924-2.237A3.341 3.341 0 0 0 41.5 18a3.5 3.5 0 0 0-3.5-3.5 3.442 3.442 0 0 0-1.019.169l-2.3-3.448A3.466 3.466 0 0 0 35.5 9a3.493 3.493 0 0 0-6.768-1.22l-8.325-.556A3.5 3.5 0 1 0 17 11.5a3.454 3.454 0 0 0 .395-.04l3.371 7.868a3.44 3.44 0 0 0-.448 4.893l-2.3 3.448A3.442 3.442 0 0 0 17 27.5a3.5 3.5 0 0 0-3.484 3.34L8 32.22a3.495 3.495 0 1 0 .487 1.94L14 32.78a3.486 3.486 0 1 0 5.679-4l2.3-3.448A3.442 3.442 0 0 0 23 25.5a3.5 3.5 0 0 0 0-7 3.454 3.454 0 0 0-.395.04l-3.371-7.868a3.493 3.493 0 0 0 1.034-1.452l8.325.556A3.5 3.5 0 0 0 32 12.5a3.442 3.442 0 0 0 1.019-.169l2.3 3.448A3.466 3.466 0 0 0 34.5 18a3.486 3.486 0 0 0 6.124 2.292l4.924 2.237A3.341 3.341 0 0 0 45.5 23a3.473 3.473 0 0 0 .139.922L35.3 30.383a3.489 3.489 0 1 0-4.18 5.559L28.958 43.5a3.514 3.514 0 1 0 1.922.554l2.162-7.554a3.448 3.448 0 0 0 3.319-4.418L46.7 25.617a3.47 3.47 0 0 0 2.021.855l1.6 7.475A3.488 3.488 0 0 0 52 40.5c.074 0 .143-.017.216-.022l4.691 12.734A3.483 3.483 0 1 0 59 52.5Z" fill="#000000" data-original="#000000" class=""></path></g></svg>