<svg xmlns="http://www.w3.org/2000/svg" xmlns:xlink="http://www.w3.org/1999/xlink" version="1.1" x="0px" y="0px" width="512" height="512" x="0" y="0" viewBox="0 0 64 64" style="enable-background:new 0 0 512 512" xml:space="preserve"><g><path d="m59.279 50.528-1.6-7.475a3.486 3.486 0 1 0-3.977-5.67l-10.341-6.461A3.433 3.433 0 0 0 43.5 30a3.5 3.5 0 0 0-3.5-3.5 3.449 3.449 0 0 0-1.652.434L23.066 11.652A3.449 3.449 0 0 0 23.5 10a3.5 3.5 0 0 0-7 0 3.457 3.457 0 0 0 .488 1.751L6.554 22.88A3.46 3.46 0 0 0 5 22.5 3.5 3.5 0 1 0 8.5 26a3.457 3.457 0 0 0-.488-1.751L18.446 13.12a3.364 3.364 0 0 0 3.206-.054l15.282 15.282A3.449 3.449 0 0 0 36.5 30a3.483 3.483 0 0 0 5.8 2.617l10.339 6.461A3.433 3.433 0 0 0 52.5 40a3.494 3.494 0 0 0 3.221 3.472l1.6 7.475a3.5 3.5 0 1 0 1.956-.419z" fill="#000000" data-original="#000000"></path></g></svg>