<svg xmlns="http://www.w3.org/2000/svg" xmlns:xlink="http://www.w3.org/1999/xlink" version="1.1" x="0px" y="0px" width="512" height="512" x="0" y="0" viewBox="0 0 64 64" style="enable-background:new 0 0 512 512" xml:space="preserve"><g><path d="M59 1.5a3.481 3.481 0 0 0-2.657 5.752L46.98 21.657A3.458 3.458 0 0 0 46 21.5a3.5 3.5 0 0 0-3.5 3.5 3.462 3.462 0 0 0 .316 1.435l-9.943 8.619A3.466 3.466 0 0 0 31 34.5a3.5 3.5 0 0 0-3.216 2.123L8.438 34.39a3.487 3.487 0 1 0-.222 1.987l19.346 2.233a3.478 3.478 0 0 0 .91 1.8l-8.68 15.19a3.514 3.514 0 1 0 1.736.994l8.68-15.194a3.449 3.449 0 0 0 .792.1 3.5 3.5 0 0 0 3.5-3.5 3.462 3.462 0 0 0-.316-1.435l9.943-8.619A3.466 3.466 0 0 0 46 28.5a3.481 3.481 0 0 0 2.657-5.752l9.363-14.4A3.458 3.458 0 0 0 59 8.5a3.5 3.5 0 0 0 0-7z" fill="#000000" data-original="#000000" class=""></path></g></svg>