<svg xmlns="http://www.w3.org/2000/svg" xmlns:xlink="http://www.w3.org/1999/xlink" version="1.1" x="0px" y="0px" width="512" height="512" x="0" y="0" viewBox="0 0 64 64" style="enable-background:new 0 0 512 512" xml:space="preserve"><g><path d="M62.5 19a3.5 3.5 0 0 0-3.458-3.5L56.88 7.942a3.5 3.5 0 1 0-4.349-.465L41.71 27.573A3.469 3.469 0 0 0 41 27.5a3.481 3.481 0 0 0-3.255 4.764l-3.718 2.893a3.476 3.476 0 0 0-5.475 2.326l-7.383 1.054a3.483 3.483 0 0 0-6.646 1.239l-6.5 1.5a3.5 3.5 0 1 0-.406 4.024l17.932 8.22a3.322 3.322 0 0 0-.049.48 3.488 3.488 0 0 0 6.515 1.746L46.52 59.2a3.492 3.492 0 1 0 5.588-2.974l3.657-9.749c.079.006.154.024.235.024a3.5 3.5 0 0 0 1.407-6.7l2.171-17.359A3.5 3.5 0 0 0 62.5 19zM50.235 55.524c-.079-.006-.154-.024-.235-.024a3.488 3.488 0 0 0-3.015 1.754L32.48 53.8a3.474 3.474 0 0 0-6.1-2.1L8.451 43.481a3.15 3.15 0 0 0 .026-.257l6.5-1.5a3.477 3.477 0 0 0 6.474-1.208l7.383-1.054a3.49 3.49 0 0 0 6.424-2.727l3.718-2.893a3.494 3.494 0 0 0 4.5-5.32L54.29 8.427a3.5 3.5 0 0 0 .668.069l2.162 7.562a3.487 3.487 0 0 0 .473 6.141l-2.171 17.359a3.479 3.479 0 0 0-1.53 6.217z" fill="#000000" data-original="#000000" class=""></path></g></svg>