<svg xmlns="http://www.w3.org/2000/svg" xmlns:xlink="http://www.w3.org/1999/xlink" version="1.1" x="0px" y="0px" width="512" height="512" x="0" y="0" viewBox="0 0 64 64" style="enable-background:new 0 0 512 512" xml:space="preserve"><g><path d="M59 10.5a3.464 3.464 0 0 0-2.112.728l-5.6-4.073A3.434 3.434 0 0 0 51.5 6a3.5 3.5 0 1 0-6.693 1.419l-8.917 7.644a3.546 3.546 0 1 0-1.495 6.4l3.371 7.868a3.473 3.473 0 0 0-1.23 2.32l-19.448 3.74a3.487 3.487 0 1 0-5.322 4.284L5.4 54.54a3.454 3.454 0 0 0-.4-.04 3.5 3.5 0 1 0 3.492 3.584l15.546-4.24a3.472 3.472 0 0 0 5.988-.119l19.5 4.5A3.492 3.492 0 1 0 54 54.663V44.337a3.488 3.488 0 1 0-3.174-6.058l-7.513-5.2A3.464 3.464 0 0 0 43.5 32a3.5 3.5 0 0 0-3.5-3.5 3.454 3.454 0 0 0-.4.04l-3.371-7.868a3.447 3.447 0 0 0 .959-4.091l8.922-7.644a3.44 3.44 0 0 0 4-.165l5.6 4.073A3.434 3.434 0 0 0 55.5 14a3.5 3.5 0 1 0 3.5-3.5zM13.605 40.46a3.454 3.454 0 0 0 .395.04 3.492 3.492 0 0 0 3.464-3.148l19.448-3.74a3.452 3.452 0 0 0 5.262 1.109l7.513 5.2A3.424 3.424 0 0 0 52 44.337v10.326a3.491 3.491 0 0 0-2.026 1.612l-19.5-4.5a3.488 3.488 0 0 0-6.969.139L7.962 56.156a3.532 3.532 0 0 0-.728-.828z" fill="#000000" data-original="#000000" class=""></path></g></svg>