<svg xmlns="http://www.w3.org/2000/svg" xmlns:xlink="http://www.w3.org/1999/xlink" version="1.1" x="0px" y="0px" width="512" height="512" x="0" y="0" viewBox="0 0 64 64" style="enable-background:new 0 0 512 512" xml:space="preserve"><g><path d="M59 11.5a3.48 3.48 0 0 0-2.624 1.208L40.452 5.471A3.341 3.341 0 0 0 40.5 5a3.5 3.5 0 0 0-7 0 3.46 3.46 0 0 0 .38 1.554L22.751 16.987a3.428 3.428 0 0 0-4.406.76L8.457 13.42A3.414 3.414 0 0 0 8.5 13a3.545 3.545 0 1 0-.845 2.253l9.888 4.327a3.414 3.414 0 0 0-.043.42 3.5 3.5 0 0 0 7 0 3.46 3.46 0 0 0-.38-1.554L35.249 8.013A3.466 3.466 0 0 0 37 8.5a3.4 3.4 0 0 0 .6-.061l12.01 24.018a3.378 3.378 0 0 0-1.049 3.143l-14.018 7.01a3.491 3.491 0 1 0-3.061 5.837l1.055 7.383a3.5 3.5 0 1 0 1.981-.279l-1.055-7.383a3.417 3.417 0 0 0 1.976-3.77l14.018-7.01a3.491 3.491 0 1 0 4.592-5.214l4.791-13.69c.054 0 .1.016.16.016a3.5 3.5 0 0 0 0-7zm-6.84 20.016c-.054 0-.1-.016-.16-.016a3.4 3.4 0 0 0-.6.061L39.39 7.543c.083-.079.158-.165.234-.251l15.924 7.237A3.341 3.341 0 0 0 55.5 15a3.491 3.491 0 0 0 1.451 2.825z" fill="#000000" data-original="#000000" class=""></path></g></svg>