<svg xmlns="http://www.w3.org/2000/svg" xmlns:xlink="http://www.w3.org/1999/xlink" version="1.1" x="0px" y="0px" viewBox="0 0 75 93.75" style="enable-background:new 0 0 75 75;" xml:space="preserve"><g><path d="M64.6,53.2l-5.2-8.9c0-0.1,0.1-0.2,0.1-0.3c0-0.6-0.4-1-1-1c-0.4,0-0.8,0.3-0.9,0.7L48,45.1   c-0.3-0.5-0.7-0.8-1.3-0.8c-0.4,0-0.7,0.1-1,0.4l-4.4-2.4c0-0.1,0-0.2,0-0.2c0-0.8-0.7-1.5-1.5-1.5c-0.2,0-0.4,0.1-0.6,0.1L30.7,32   c0-0.1,0.1-0.2,0.1-0.3c0-0.6-0.4-1-1-1c-0.2,0-0.5,0.1-0.6,0.2l-15.6-7c0,0,0-0.1,0-0.1c0-0.8-0.7-1.5-1.5-1.5s-1.5,0.7-1.5,1.5   s0.7,1.5,1.5,1.5c0.4,0,0.8-0.2,1.1-0.5l15.7,7c0.1,0.5,0.5,0.8,1,0.8c0.1,0,0.1,0,0.2,0l8.6,8.8c-0.1,0.2-0.1,0.4-0.1,0.6L30,44.5   c-0.3-0.3-0.7-0.5-1.1-0.5c-0.5,0-0.9,0.2-1.2,0.6L9,37.1c-0.1-0.5-0.5-0.9-1-0.9c-0.6,0-1,0.4-1,1c0,0.6,0.4,1,1,1   c0.2,0,0.4-0.1,0.6-0.2l18.8,7.6c0,0.8,0.7,1.4,1.5,1.4c0.8,0,1.5-0.7,1.5-1.5c0,0,0,0,0,0l8.3-2.5c0.3,0.4,0.7,0.6,1.2,0.6   c0.4,0,0.7-0.2,1-0.4l4.4,2.4c0,0.1,0,0.2,0,0.2c0,0.7,0.4,1.2,1,1.4v5.2l4.5,2.6c0,0.6,0.4,1,1,1c0.6,0,1-0.4,1-1c0-0.6-0.4-1-1-1   c-0.2,0-0.3,0.1-0.5,0.1l-4-2.3v-4.6c0.5-0.2,0.9-0.6,1-1.1l9.6-1.4c0.2,0.2,0.4,0.4,0.8,0.4c0.1,0,0.1,0,0.2,0l5.1,8.7   c0.1,0.2,0.3,0.2,0.4,0.2c0.1,0,0.2,0,0.3-0.1C64.7,53.8,64.8,53.5,64.6,53.2z"/></g><text x="0" y="90" fill="#000000" font-size="5px" font-weight="bold" font-family="'Helvetica Neue', Helvetica, Arial-Unicode, Arial, Sans-serif">Created by Kukuh Wachyu Bias</text><text x="0" y="95" fill="#000000" font-size="5px" font-weight="bold" font-family="'Helvetica Neue', Helvetica, Arial-Unicode, Arial, Sans-serif">from the Noun Project</text></svg>