<svg width="50" height="50" xmlns="http://www.w3.org/2000/svg" xmlns:xlink="http://www.w3.org/1999/xlink" version="1.1" x="0px" y="0px" viewBox="0 0 100 100" style="enable-background:new 0 0 100 100;" xml:space="preserve"><polygon points="46.4047852,40.4912109 34.0185547,36.2548828 34.2617188,35.5449219 46.4350586,39.7089844 56.3974609,37.1508789   58.9648438,27.9287109 58.9648438,15.0200195 59.7148438,15.0200195 59.7011719,28.0805664 57.0029297,37.769043 "/><polygon points="64.9267578,63.2734375 46.0449219,56.3212891 46.0449219,40.1000977 46.7949219,40.1000977 46.7949219,55.7978516   63.1123047,61.8066406 57.0498047,52.2167969 56.3251953,37.4785156 57.0751953,37.4414063 57.7900391,51.9824219 "/><polygon points="28.9404297,78.8154297 28.2998047,78.4248047 37.7368164,62.9746094 46.1767578,55.7744141 46.6630859,56.3447266   38.269043,63.5058594 "/><polygon points="44.1967773,85.1455078 43.5229492,84.8154297 48.8603516,73.8916016 53.828125,76.7998047 63.7099609,62.328125   64.3291016,62.7519531 54.0527344,77.7998047 49.1796875,74.9482422 "/><g><g><path d="M33.0600014,36.9199982c1.9303551,0,1.9335518-3,0-3C31.1296425,33.9199982,31.1264458,36.9199982,33.0600014,36.9199982    L33.0600014,36.9199982z"/></g></g><g><g><path d="M46.2599983,41.0999985c1.2869072,0,1.2890396-2,0-2C44.9730949,39.0999985,44.9709625,41.0999985,46.2599983,41.0999985    L46.2599983,41.0999985z"/></g></g><g><g><path d="M56.8199997,39.3199997c1.9303589,0,1.9335556-3,0-3C54.8896446,36.3199997,54.8864441,39.3199997,56.8199997,39.3199997    L56.8199997,39.3199997z"/></g></g><g><g><path d="M59.2200012,28.7399998c1.2869034,0,1.2890358-2,0-2C57.933094,26.7399998,57.9309654,28.7399998,59.2200012,28.7399998    L59.2200012,28.7399998z"/></g></g><g><g><path d="M59.3400002,16.5200005c1.9303551,0,1.9335556-3,0-3C57.4096413,13.5200005,57.4064445,16.5200005,59.3400002,16.5200005    L59.3400002,16.5200005z"/></g></g><g><g><path d="M46.7400017,57.5600014c1.9303551,0,1.9335518-3,0-3C44.8096428,54.5600014,44.8064461,57.5600014,46.7400017,57.5600014    L46.7400017,57.5600014z"/></g></g><g><g><path d="M57.7799988,53.7200012c1.9303589,0,1.9335556-3,0-3C55.8496437,50.7200012,55.846447,53.7200012,57.7799988,53.7200012    L57.7799988,53.7200012z"/></g></g><g><g><path d="M54.2999992,78.3199997c1.9303589,0,1.9335556-3,0-3C52.3696442,75.3199997,52.3664474,78.3199997,54.2999992,78.3199997    L54.2999992,78.3199997z"/></g></g><g><g><path d="M44.0999985,86.1200027c1.9303589,0,1.9335556-3,0-3C42.1696434,83.1200027,42.1664467,86.1200027,44.0999985,86.1200027    L44.0999985,86.1200027z"/></g></g><g><g><path d="M28.9799995,80c1.930357,0,1.9335537-3,0-3C27.0496426,77,27.0464458,80,28.9799995,80L28.9799995,80z"/></g></g><g><g><path d="M38.2200012,64.1399994c1.2869034,0,1.2890358-2,0-2C36.933094,62.1399994,36.9309654,64.1399994,38.2200012,64.1399994    L38.2200012,64.1399994z"/></g></g><g><g><path d="M63.9599991,64.1299973c1.9303589,0,1.9335556-2.9999962,0-2.9999962    C62.029644,61.1300011,62.0264473,64.1299973,63.9599991,64.1299973L63.9599991,64.1299973z"/></g></g><g><g><path d="M48.9300003,75.5999985c1.2869034,0,1.2890358-2,0-2C47.6430969,73.5999985,47.6409645,75.5999985,48.9300003,75.5999985    L48.9300003,75.5999985z"/></g></g></svg>