<svg xmlns="http://www.w3.org/2000/svg" xmlns:xlink="http://www.w3.org/1999/xlink" version="1.1" x="0px" y="0px" viewBox="0 0 100 125" style="enable-background:new 0 0 100 100;" xml:space="preserve"><polygon points="19.3681641,70.9921875 18.5107422,70.4785156 25.2402344,59.2626953 23.0981445,53.2939453 12.5854492,47.1621094   37.0234375,37.3193359 41.6010742,35.9086914 44.5458984,39.0170898 52.3027344,36.9155273 70.3662109,48.5751953   87.90625,53.1220703 87.65625,54.0908203 69.8916016,49.4589844 52.1347656,37.9975586 44.2304688,40.1381836   41.3022461,37.0473633 37.3574219,38.2612305 14.8530273,47.3271484 23.9165039,52.6142578 26.3417969,59.3701172 "/><polygon points="49.5961914,63.8525391 47.5004883,60.9355469 45.1621094,53.5859375 51.7548828,37.269043 52.6826172,37.644043   46.2246094,53.6269531 48.4287109,60.5556641 50.4038086,63.2626953 "/><g><g><path d="M14.0456772,49.7446976c3.2172604,0,3.2225895-5,0-5C10.8284159,44.7446976,10.8230867,49.7446976,14.0456772,49.7446976    L14.0456772,49.7446976z"/></g></g><g><g><path d="M51.892334,39.2936363c2.5738068,0,2.5780716-4,0-4C49.3185234,35.2936363,49.3142624,39.2936363,51.892334,39.2936363    L51.892334,39.2936363z"/></g></g><g><g><path d="M70.1631317,50.8760185c2.5738068,0,2.5780716-4,0-4C67.589325,46.8760185,67.5850601,50.8760185,70.1631317,50.8760185    L70.1631317,50.8760185z"/></g></g><g><g><path d="M87.7814026,55.443718c2.5738068,0,2.5780716-4,0-4C85.2075958,51.443718,85.203331,55.443718,87.7814026,55.443718    L87.7814026,55.443718z"/></g></g><g><g><path d="M45.9850006,54.5950012c1.9303551,0,1.9335518-3,0-3C44.0546417,51.5950012,44.051445,54.5950012,45.9850006,54.5950012    L45.9850006,54.5950012z"/></g></g><g><g><path d="M42.1044044,37.9779778c1.9303551,0,1.9335556-3,0-3C40.1740494,34.9779778,40.1708488,37.9779778,42.1044044,37.9779778    L42.1044044,37.9779778z"/></g></g><g><g><path d="M23.5073414,54.2911911c1.930357,0,1.9335537-3,0-3C21.5769844,51.2911911,21.5737877,54.2911911,23.5073414,54.2911911    L23.5073414,54.2911911z"/></g></g><g><g><path d="M25.9543228,60.8164749c1.930357,0,1.9335537-3,0-3C24.0239658,57.8164749,24.0207691,60.8164749,25.9543228,60.8164749    L25.9543228,60.8164749z"/></g></g><g><g><path d="M18.939642,71.409462c1.2869034,0,1.2890358-2,0-2C17.6527367,69.409462,17.6506042,71.409462,18.939642,71.409462    L18.939642,71.409462z"/></g></g><g><g><path d="M49.6084824,64.2316513c1.2869034,0,1.2890358-2.0000038,0-2.0000038    C48.321579,62.2316475,48.3194466,64.2316513,49.6084824,64.2316513L49.6084824,64.2316513z"/></g></g><g><g><path d="M37.2104416,38.6199036c1.2869034,0,1.2890358-2,0-2C35.9235344,36.6199036,35.9214058,38.6199036,37.2104416,38.6199036    L37.2104416,38.6199036z"/></g></g><g><g><path d="M44.5449982,40.6399994c1.2869072,0,1.2890396-2,0-2C43.2580948,38.6399994,43.2559624,40.6399994,44.5449982,40.6399994    L44.5449982,40.6399994z"/></g></g><g><g><path d="M47.8300018,61.295269c1.2869034,0,1.2890358-2,0-2C46.5430946,59.295269,46.5409622,61.295269,47.8300018,61.295269    L47.8300018,61.295269z"/></g></g><text x="0" y="115" fill="#000000" font-size="5px" font-weight="bold" font-family="'Helvetica Neue', Helvetica, Arial-Unicode, Arial, Sans-serif">Created by eukisuri</text><text x="0" y="120" fill="#000000" font-size="5px" font-weight="bold" font-family="'Helvetica Neue', Helvetica, Arial-Unicode, Arial, Sans-serif">from the Noun Project</text></svg>