<svg width="0" height="0" xmlns="http://www.w3.org/2000/svg" xmlns:xlink="http://www.w3.org/1999/xlink" version="1.1" x="0px" y="0px" viewBox="0 0 100 125" style="enable-background:new 0 0 100 100;" xml:space="preserve"><path d="M58.8925781,76.2802734l-0.2705078-0.1435547L29.6674805,60.6474609L9.7329102,38.3764648l37.375,1.8535156  l43.7768555-16.5888672l-3.6396484,9.1000977L64.2539063,69.8085938L58.8925781,76.2802734z M30.1821289,60.0976563  l28.5229492,15.2333984l4.9414063-5.9589844L86.578125,32.4042969l2.9775391-7.4575195L47.2270508,40.9868164l-35.7373047-1.7724609  L30.1821289,60.0976563z"/><circle cx="10.5356636" cy="38.7200317" r="2.9456635"/><circle cx="18.3152351" cy="39.2487411" r="2.4169545"/><circle cx="32.0805473" cy="39.5949173" r="2.1337178"/><circle cx="47.1109848" cy="39.8215065" r="2.3603072"/><circle cx="86.1410217" cy="26.1065483" r="1.8127159"/><circle cx="90.219635" cy="24.2938328" r="2.1903651"/><circle cx="86.1410217" cy="33.7350616" r="2.4924843"/><circle cx="64.4262009" cy="69.0452576" r="1.8504809"/><circle cx="58.797142" cy="75.1518936" r="2.7446375"/><circle cx="29.9645443" cy="60.0619392" r="3.0288522"/><text x="0" y="115" fill="#000000" font-size="5px" font-weight="bold" font-family="'Helvetica Neue', Helvetica, Arial-Unicode, Arial, Sans-serif">Created by eukisuri</text><text x="0" y="120" fill="#000000" font-size="5px" font-weight="bold" font-family="'Helvetica Neue', Helvetica, Arial-Unicode, Arial, Sans-serif">from the Noun Project</text></svg>