<svg xmlns="http://www.w3.org/2000/svg" xmlns:xlink="http://www.w3.org/1999/xlink" version="1.1" x="0px" y="0px" viewBox="0 0 75 93.75" style="enable-background:new 0 0 75 75;" xml:space="preserve"><g><path d="M67.8,27.8c0-0.8-0.7-1.5-1.5-1.5s-1.5,0.7-1.5,1.5c0,0.5,0.3,1,0.7,1.2l-2.7,10.5   c-0.6,0.1-1.1,0.6-1.2,1.2l-12.4,1.9c-0.2-0.2-0.5-0.4-0.8-0.4c-0.4,0-0.7,0.2-0.8,0.5h-9.8c-0.2-0.3-0.5-0.5-0.8-0.5c0,0,0,0,0,0   l-5.7-9.4l1.1-13.2c0.3-0.2,0.6-0.5,0.6-0.9c0-0.6-0.4-1-1-1c-0.6,0-1,0.4-1,1c0,0.3,0.2,0.6,0.4,0.8L30,33.1l5.9,9.7   c-0.1,0.1-0.1,0.3-0.1,0.5c0,0,0,0,0,0.1l-11,7.3L14.3,35.7c0.1-0.1,0.1-0.3,0.1-0.4c0-0.6-0.4-1-1-1c-0.6,0-1,0.4-1,1   c0,0.6,0.4,1,1,1c0,0,0.1,0,0.1,0l10.6,15l-10,9.5c-0.2-0.1-0.4-0.2-0.7-0.2c-0.8,0-1.5,0.7-1.5,1.5s0.7,1.5,1.5,1.5   s1.5-0.7,1.5-1.5c0-0.2,0-0.4-0.1-0.6L25,51.6l11.3-7.5c0.1,0.1,0.3,0.1,0.4,0.1c0.4,0,0.7-0.2,0.8-0.5l9.8,0   c0.2,0.3,0.5,0.5,0.9,0.5c0.4,0,0.8-0.3,0.9-0.6l12.4-1.9c0.3,0.5,0.7,0.8,1.3,0.8c0.8,0,1.5-0.7,1.5-1.5c0-0.6-0.3-1-0.8-1.3   l2.7-10.5C67.2,29.2,67.8,28.5,67.8,27.8z"/></g><text x="0" y="90" fill="#000000" font-size="5px" font-weight="bold" font-family="'Helvetica Neue', Helvetica, Arial-Unicode, Arial, Sans-serif">Created by Kukuh Wachyu Bias</text><text x="0" y="95" fill="#000000" font-size="5px" font-weight="bold" font-family="'Helvetica Neue', Helvetica, Arial-Unicode, Arial, Sans-serif">from the Noun Project</text></svg>