<svg xmlns="http://www.w3.org/2000/svg" xmlns:xlink="http://www.w3.org/1999/xlink" version="1.1" x="0px" y="0px" viewBox="0 0 100 125" style="enable-background:new 0 0 100 100;" xml:space="preserve"><polygon points="77.3730469,71.4521484 76.6230469,71.4521484 76.6230469,64.2050781 70.328125,52.421875 47.5380859,27.8535156   23.6362305,37.8662109 23.3461914,37.1748047 47.7314453,26.9589844 70.9667969,52.0253906 77.3730469,64.1113281 "/><g><g><path d="M23.0016308,39.6835251c2.5738106,0,2.5780735-4,0-4C20.4278221,35.6835251,20.4235592,39.6835251,23.0016308,39.6835251    L23.0016308,39.6835251z"/></g></g><g><g><path d="M47.6345825,29.5693302c2.5738106,0,2.5780754-4,0-4C45.0607758,25.5693302,45.0565109,29.5693302,47.6345825,29.5693302    L47.6345825,29.5693302z"/></g></g><g><g><path d="M70.3099518,55.0391502c3.8607101,0,3.8671112-6,0-6C66.449234,49.0391502,66.4428406,55.0391502,70.3099518,55.0391502    L70.3099518,55.0391502z"/></g></g><g><g><path d="M76.6721039,66.1109314c2.5738068,0,2.5780716-4,0-4C74.0982971,62.1109314,74.0940323,66.1109314,76.6721039,66.1109314    L76.6721039,66.1109314z"/></g></g><g><g><path d="M76.8352356,74.5938034c2.5738068,0,2.5780716-4,0-4C74.2614288,70.5938034,74.257164,74.5938034,76.8352356,74.5938034    L76.8352356,74.5938034z"/></g></g></svg>