<svg xmlns="http://www.w3.org/2000/svg" xmlns:xlink="http://www.w3.org/1999/xlink" version="1.1" x="0px" y="0px" viewBox="0 0 75 93.75" style="enable-background:new 0 0 75 75;" xml:space="preserve"><g><path d="M63.1,22c0-0.6-0.4-1-1-1s-1,0.4-1,1c0,0.2,0.1,0.4,0.2,0.6L59,28c0,0-0.1,0-0.1,0c-0.8,0-1.4,0.6-1.5,1.3   l-19.5,4.2c-0.3-0.5-0.7-0.8-1.3-0.8c-0.6,0-1.1,0.3-1.3,0.8l-17.2-1.8c-0.2-0.7-0.7-1.1-1.5-1.1c-0.4,0-0.8,0.2-1,0.4l-3.4-1.6   c-0.1-0.4-0.5-0.8-1-0.8c-0.6,0-1,0.4-1,1c0,0.6,0.4,1,1,1c0.3,0,0.5-0.1,0.7-0.3l3.3,1.6c0,0.1,0,0.1,0,0.2c0,0.8,0.7,1.5,1.5,1.5   c0.6,0,1.1-0.4,1.4-0.9l8.2,0.9v7.8c-0.3,0.2-0.5,0.5-0.5,0.8c0,0.6,0.4,1,1,1c0.6,0,1-0.4,1-1c0-0.4-0.2-0.7-0.5-0.8v-7.6l8,0.8   c0.1,0.3,0.2,0.6,0.4,0.8l-6.7,9.5c0,0-0.1,0-0.1,0c-0.6,0-1,0.4-1,1s0.4,1,1,1s1-0.4,1-1c0-0.1,0-0.3-0.1-0.4l6.8-9.7   c0,0,0.1,0,0.1,0c0,0,0.1,0,0.1,0l1.2,5.5v8.3c-0.3,0.2-0.5,0.5-0.5,0.8c0,0.6,0.4,1,1,1s1-0.4,1-1c0-0.4-0.2-0.7-0.5-0.8v-7.9   l15-0.9c0.1,0.3,0.3,0.5,0.5,0.6l-2.3,8c-0.5,0-0.9,0.5-0.9,1c0,0.2,0,0.3,0.1,0.5l-2,2.3c-0.1,0-0.1,0-0.2,0c-0.6,0-1,0.4-1,1   s0.4,1,1,1s1-0.4,1-1c0-0.1,0-0.2-0.1-0.3l2.1-2.4c0,0,0,0,0,0c0.6,0,1-0.4,1-1c0-0.2-0.1-0.3-0.2-0.5l2.3-8.2   c0.8-0.1,1.4-0.7,1.4-1.5c0-0.5-0.2-0.9-0.6-1.2l2.7-8c0.8,0,1.5-0.7,1.5-1.5c0-0.4-0.2-0.8-0.5-1.1l2.3-5.4   C62.7,22.9,63.1,22.5,63.1,22z M38.1,34.5l19.6-4.2c0.1,0.1,0.2,0.3,0.3,0.4l-2.7,8c-0.7,0-1.2,0.5-1.4,1.1l-15,0.9l-1.2-5.4   C37.9,35.1,38,34.8,38.1,34.5z"/></g><text x="0" y="90" fill="#000000" font-size="5px" font-weight="bold" font-family="'Helvetica Neue', Helvetica, Arial-Unicode, Arial, Sans-serif">Created by Kukuh Wachyu Bias</text><text x="0" y="95" fill="#000000" font-size="5px" font-weight="bold" font-family="'Helvetica Neue', Helvetica, Arial-Unicode, Arial, Sans-serif">from the Noun Project</text></svg>