<svg width="0" height="0" xmlns="http://www.w3.org/2000/svg" xmlns:xlink="http://www.w3.org/1999/xlink" version="1.1" x="0px" y="0px" viewBox="0 0 100 125" style="enable-background:new 0 0 100 100;" xml:space="preserve"><path d="M13.9370117,81.7119141l2.8320313-19.4785156l-0.902832-11.0429688l0.8920898-15.2270508l-4.5644531-6.8466797  l-3.3486328-2.0463867v-6.3300781h0.75v5.9091797l3.1767578,1.9824219l4.75,7.1245117l-0.9072266,15.4262695l0.8994141,11.0742188  l-2.5722656,17.7529297l5.1376953-3.8925781l2.7148438-5.7919922l4.612793-2.3984375l10.8286133-4.5126953l5.9936523-1.4912109  l16.1035156-4.8378906l9.1162109-0.1748047l3.4199219-8.0991211l8.1289063-0.1894531l4.7617188,4.1899414l-0.9609375,6.9121094  l-9.0498047,2.9814453l-6.5351563-5.0400391l-8.8154297,0.1689453l-15.9702148,4.8125l-5.9580078,1.4775391l-10.7460938,4.4814453  l-4.3583984,2.2685547l-2.7592773,5.7851563L13.9370117,81.7119141z M70.0673828,57.375l5.8242188,4.4941406l8.2294922-2.7119141  l0.8398438-6.0488281l-4.2382813-3.7299805l-7.3515625,0.1708984L70.0673828,57.375z"/><rect x="84.5491638" y="50.2445679" transform="matrix(0.7854151 -0.6189695 0.6189695 0.7854151 -12.3778505 65.5358887)" width="7.5618219" height="0.7506129"/><rect x="16.5278549" y="33.6847878" transform="matrix(0.7929143 -0.6093332 0.6093332 0.7929143 -16.7197495 18.9230976)" width="5.9042511" height="0.7500515"/><g><g><path d="M16.4200001,52.5699997c1.930357,0,1.9335537-3,0-3C14.4896431,49.5699997,14.4864454,52.5699997,16.4200001,52.5699997    L16.4200001,52.5699997z"/></g></g><g><g><path d="M22.7199993,72.3700027c1.930357,0,1.9335556-3,0-3C20.7896423,69.3700027,20.7864456,72.3700027,22.7199993,72.3700027    L22.7199993,72.3700027z"/></g></g><g><g><path d="M9.2200003,21.5599995c1.2869043,0,1.2890358-2,0-2C7.9330955,19.5599995,7.930964,21.5599995,9.2200003,21.5599995    L9.2200003,21.5599995z"/></g></g><g><g><path d="M9.1300001,27.6800003c1.2869043,0,1.2890358-2,0-2C7.8430953,25.6800003,7.8409638,27.6800003,9.1300001,27.6800003    L9.1300001,27.6800003z"/></g></g><g><g><path d="M12.46,29.9300003c1.2869043,0,1.2890358-2,0-2C11.1730957,27.9300003,11.1709642,29.9300003,12.46,29.9300003    L12.46,29.9300003z"/></g></g><g><g><path d="M21.5499992,33.5299988c1.2869053,0,1.2890377-1.9999981,0-1.9999981    C20.2630959,31.5300007,20.2609634,33.5299988,21.5499992,33.5299988L21.5499992,33.5299988z"/></g></g><g><g><path d="M17.1399994,36.5900002c1.2869053,0,1.2890358-2,0-2C15.8530951,34.5900002,15.8509636,36.5900002,17.1399994,36.5900002    L17.1399994,36.5900002z"/></g></g><g><g><path d="M17.1399994,63.9500008c1.2869053,0,1.2890358-2,0-2C15.8530951,61.9500008,15.8509636,63.9500008,17.1399994,63.9500008    L17.1399994,63.9500008z"/></g></g><g><g><path d="M14.5299997,82.2699966c1.9303579,0,1.9335546-3,0-3C12.5996428,79.2699966,12.596446,82.2699966,14.5299997,82.2699966    L14.5299997,82.2699966z"/></g></g><g><g><path d="M20.2000008,77.5400009c1.2869034,0,1.2890358-2,0-2C18.9130955,75.5400009,18.9109631,77.5400009,20.2000008,77.5400009    L20.2000008,77.5400009z"/></g></g><g><g><path d="M38.8300018,64.6699982c1.2869034,0,1.2890358-2,0-2C37.5430946,62.6699982,37.5409622,64.6699982,38.8300018,64.6699982    L38.8300018,64.6699982z"/></g></g><g><g><path d="M69.6999969,58.4599991c1.286911,0,1.2890396-2,0-2C68.4130936,56.4599991,68.410965,58.4599991,69.6999969,58.4599991    L69.6999969,58.4599991z"/></g></g><g><g><path d="M73.0299988,50.3199997c1.9303589,0,1.9335556-3,0-3C71.0996399,47.3199997,71.0964432,50.3199997,73.0299988,50.3199997    L73.0299988,50.3199997z"/></g></g><g><g><path d="M85.3600006,53.9199982c1.9303589,0,1.9335556-3,0-3C83.4296417,50.9199982,83.426445,53.9199982,85.3600006,53.9199982    L85.3600006,53.9199982z"/></g></g><g><g><path d="M91.3000031,49.3699989c1.2869034,0,1.289032-2,0-2C90.013092,47.3699989,90.0109634,49.3699989,91.3000031,49.3699989    L91.3000031,49.3699989z"/></g></g><g><g><path d="M80.7699966,49.9099998c1.286911,0,1.2890396-2,0-2C79.4830933,47.9099998,79.4809647,49.9099998,80.7699966,49.9099998    L80.7699966,49.9099998z"/></g></g><g><g><path d="M84.5500031,60.5299988c1.2869034,0,1.289032-2,0-2C83.263092,58.5299988,83.2609634,60.5299988,84.5500031,60.5299988    L84.5500031,60.5299988z"/></g></g><g><g><path d="M76.0899963,63.9099998c1.9303589,0,1.9335556-3,0-3C74.1596451,60.9099998,74.1564484,63.9099998,76.0899963,63.9099998    L76.0899963,63.9099998z"/></g></g><g><g><path d="M44.3199997,63.6399994c1.9303589,0,1.9335556-3,0-3C42.3896446,60.6399994,42.3864441,63.6399994,44.3199997,63.6399994    L44.3199997,63.6399994z"/></g></g><g><g><path d="M60.8199997,58.7799988c1.9303589,0,1.9335556-3,0-3C58.8896446,55.7799988,58.8864441,58.7799988,60.8199997,58.7799988    L60.8199997,58.7799988z"/></g></g></svg>