<svg xmlns="http://www.w3.org/2000/svg" xmlns:xlink="http://www.w3.org/1999/xlink" version="1.1" x="0px" y="0px" viewBox="0 0 100 125" style="enable-background:new 0 0 100 100;" xml:space="preserve"><path d="M77.3300781,70.5136719l-0.3935547-0.0595703l-44.7998047-6.8427734L8.949707,67.7333984l20.0927734-19.1479492  l35.6049805-0.7314453L68.03125,37.378418l15.8867188-10.3681641l7.8818359,9.3896484l-0.5742188,0.4824219l-7.4541016-8.8808594  l-15.1074219,9.8603516l-3.2958984,10.2016602l13.2431641,8.4492188L77.3300781,70.5136719z M32.1279297,62.8515625  l0.0610352,0.0087891L76.65625,69.6523438l1.1660156-12.7529297l-13.0058594-8.2983398l-35.4672852,0.7285156L11.269043,66.5595703  L32.1279297,62.8515625z"/><g><g><path d="M64.9216995,51.0497551c3.2172546,0,3.2225876-5,0-5C61.7044334,46.0497551,61.6991081,51.0497551,64.9216995,51.0497551    L64.9216995,51.0497551z"/></g></g><g><g><path d="M91.3491058,39.4673729c3.2172546,0,3.2225876-5,0-5C88.1318436,34.4673729,88.1265106,39.4673729,91.3491058,39.4673729    L91.3491058,39.4673729z"/></g></g><g><g><path d="M76.3409424,72.7463303c3.2172623,0,3.2225952-5,0-5C73.1236877,67.7463303,73.1183548,72.7463303,76.3409424,72.7463303    L76.3409424,72.7463303z"/></g></g><g><g><path d="M78.2985306,58.3694954c1.9303589,0,1.9335556-3,0-3C76.3681717,55.3694954,76.364975,58.3694954,78.2985306,58.3694954    L78.2985306,58.3694954z"/></g></g><g><g><path d="M68.3474731,38.6305046c1.9303589,0,1.9335556-3,0-3C66.4171143,35.6305046,66.4139175,38.6305046,68.3474731,38.6305046    L68.3474731,38.6305046z"/></g></g><g><g><path d="M83.6818924,29.1688423c1.9303589,0,1.9335556-3,0-3C81.7515335,26.1688423,81.7483368,29.1688423,83.6818924,29.1688423    L83.6818924,29.1688423z"/></g></g><g><g><path d="M32.295269,64.568512c1.9303589,0,1.9335556-2.9999962,0-2.9999962    C30.364912,61.5685158,30.3617153,64.568512,32.295269,64.568512L32.295269,64.568512z"/></g></g><g><g><path d="M29.0326271,50.5391502c1.930357,0,1.9335537-3,0-3C27.1022701,47.5391502,27.0990715,50.5391502,29.0326271,50.5391502    L29.0326271,50.5391502z"/></g></g><g><g><path d="M10.4355631,68.9836884c2.5738087,0,2.5780716-4,0-4C7.8617535,64.9836884,7.8574905,68.9836884,10.4355631,68.9836884    L10.4355631,68.9836884z"/></g></g><text x="0" y="115" fill="#000000" font-size="5px" font-weight="bold" font-family="'Helvetica Neue', Helvetica, Arial-Unicode, Arial, Sans-serif">Created by eukisuri</text><text x="0" y="120" fill="#000000" font-size="5px" font-weight="bold" font-family="'Helvetica Neue', Helvetica, Arial-Unicode, Arial, Sans-serif">from the Noun Project</text></svg>