<svg xmlns="http://www.w3.org/2000/svg" xmlns:xlink="http://www.w3.org/1999/xlink" version="1.1" x="0px" y="0px" viewBox="0 0 100 125" style="enable-background:new 0 0 100 100;" xml:space="preserve"><polygon points="23.2646484,85.2353516 15.1049805,75.7158203 23.9013672,65.0585938 27.5039063,65.0585938 27.5039063,65.8085938   24.2548828,65.8085938 16.0854492,75.7060547 23.5869141,84.4580078 38.2421875,83.3310547 48.2670898,80.4775391   50.9897461,55.1435547 61.2675781,35.7319336 66.1113281,29.8725586 71.8105469,28.081543 84.9521484,10.3979492   85.5537109,10.8452148 72.2675781,28.7241211 66.546875,30.5219727 61.8876953,36.1464844 51.6865234,55.4306641   48.9594727,81.0605469 38.3735352,84.0654297 "/><rect x="79.5759811" y="21.8901691" transform="matrix(0.1922246 -0.981351 0.981351 0.1922246 35.1885376 102.655159)" width="0.7503788" height="16.1249332"/><rect x="70.9350891" y="23.704874" transform="matrix(0.8776965 -0.4792171 0.4792171 0.8776965 -1.7611532 41.2590141)" width="18.0321693" height="0.7499211"/><g><g><path d="M85.4159851,12.4584017c2.5738144,0,2.5780716-4,0-4C82.8421783,8.4584017,82.8379135,12.4584017,85.4159851,12.4584017    L85.4159851,12.4584017z"/></g></g><g><g><path d="M87.8629684,21.2569332c1.9303589,0,1.9335556-3,0-3C85.9326096,18.2569332,85.9294128,21.2569332,87.8629684,21.2569332    L87.8629684,21.2569332z"/></g></g><g><g><path d="M88.0261002,32.8393135c1.9303589,0,1.9335556-2.9999981,0-2.9999981    C86.0957413,29.8393154,86.0925446,32.8393135,88.0261002,32.8393135L88.0261002,32.8393135z"/></g></g><g><g><path d="M72.3654175,30.9029369c3.2172623,0,3.2225876-5,0-5C69.1481552,25.9029369,69.1428223,30.9029369,72.3654175,30.9029369    L72.3654175,30.9029369z"/></g></g><g><g><path d="M66.1663971,33.8499184c3.8607101,0,3.8671036-6,0-6C62.3056793,27.8499184,62.2992859,33.8499184,66.1663971,33.8499184    L66.1663971,33.8499184z"/></g></g><g><g><path d="M61.4355621,38.2332802c2.5738068,0,2.5780716-4,0-4C58.8617554,34.2332802,58.8574905,38.2332802,61.4355621,38.2332802    L61.4355621,38.2332802z"/></g></g><g><g><path d="M51.6865234,57.4306641c2.5738106,0,2.5780716-4,0-4C49.1127129,53.4306641,49.1084518,57.4306641,51.6865234,57.4306641    L51.6865234,57.4306641z"/></g></g><g><g><path d="M47.8955956,83.431488c3.2172623,0,3.2225914-5,0-5C44.6783333,78.431488,44.6730042,83.431488,47.8955956,83.431488    L47.8955956,83.431488z"/></g></g><g><g><path d="M37.7814026,85.8678665c2.5738106,0,2.5780716-4,0-4C35.207592,81.8678665,35.203331,85.8678665,37.7814026,85.8678665    L37.7814026,85.8678665z"/></g></g><g><g><path d="M23.0995102,86.6941299c3.2172623,0,3.2225914-5,0-5C19.8822498,81.6941299,19.8769207,86.6941299,23.0995102,86.6941299    L23.0995102,86.6941299z"/></g></g><g><g><path d="M16.0848293,77.7112579c2.5738087,0,2.5780716-4,0-4C13.5110197,73.7112579,13.5067568,77.7112579,16.0848293,77.7112579    L16.0848293,77.7112579z"/></g></g><g><g><path d="M23.2626419,67.5970612c2.5738106,0,2.5780735-3.9999962,0-3.9999962    C20.6888332,63.597065,20.6845703,67.5970612,23.2626419,67.5970612L23.2626419,67.5970612z"/></g></g><g><g><path d="M28.482872,66.9339294c1.9303551,0,1.9335537-2.9999962,0-2.9999962    C26.552515,63.9339333,26.5493164,66.9339294,28.482872,66.9339294L28.482872,66.9339294z"/></g></g><text x="0" y="115" fill="#000000" font-size="5px" font-weight="bold" font-family="'Helvetica Neue', Helvetica, Arial-Unicode, Arial, Sans-serif">Created by eukisuri</text><text x="0" y="120" fill="#000000" font-size="5px" font-weight="bold" font-family="'Helvetica Neue', Helvetica, Arial-Unicode, Arial, Sans-serif">from the Noun Project</text></svg>