<svg xmlns="http://www.w3.org/2000/svg" xmlns:xlink="http://www.w3.org/1999/xlink" version="1.1" x="0px" y="0px" viewBox="0 0 75 93.75" style="enable-background:new 0 0 75 75;" xml:space="preserve"><circle cx="26.2" cy="64" r="1"/><circle cx="23.5" cy="66.7" r="1"/><g><path d="M55.9,24.1c-0.3,0-0.5,0.1-0.7,0.3L29.6,16c0-0.8-0.7-1.5-1.5-1.5c-0.8,0-1.5,0.7-1.5,1.5   c0,0.4,0.1,0.7,0.3,0.9l-8,12.6c-0.1,0-0.2,0-0.3,0c-0.8,0-1.5,0.7-1.5,1.5c0,0.8,0.6,1.4,1.3,1.5l7.3,31.4l-2.5,2.5l0.7,0.7   l2.9-2.9l-7.4-31.9c0.3-0.2,0.6-0.6,0.7-1l35.1-5.6c0,0.1,0.1,0.1,0.1,0.1l-4.5,32c-0.3,0.2-0.5,0.5-0.5,0.9c0,0.6,0.4,1,1,1   s1-0.4,1-1c0-0.3-0.2-0.6-0.5-0.8L56.3,26c0.4-0.1,0.6-0.5,0.6-0.9C56.9,24.5,56.5,24.1,55.9,24.1z M19.8,30.1l8-12.6   c0.1,0,0.2,0,0.3,0c0.5,0,0.9-0.2,1.2-0.6l24.5,7.9l-33.9,5.4C19.9,30.3,19.8,30.2,19.8,30.1z"/></g><text x="0" y="90" fill="#000000" font-size="5px" font-weight="bold" font-family="'Helvetica Neue', Helvetica, Arial-Unicode, Arial, Sans-serif">Created by Kukuh Wachyu Bias</text><text x="0" y="95" fill="#000000" font-size="5px" font-weight="bold" font-family="'Helvetica Neue', Helvetica, Arial-Unicode, Arial, Sans-serif">from the Noun Project</text></svg>