<svg xmlns="http://www.w3.org/2000/svg" xmlns:xlink="http://www.w3.org/1999/xlink" version="1.1" x="0px" y="0px" viewBox="0 0 75 93.75" style="enable-background:new 0 0 75 75;" xml:space="preserve"><g><path d="M57.3,65.6c-0.1,0-0.2,0-0.3,0.1L40.1,51.3c0.1-0.2,0.1-0.3,0.1-0.5c0-0.7-0.4-1.2-1-1.4v-10   c0.3-0.2,0.5-0.5,0.5-0.8c0-0.5-0.4-0.9-0.8-1l-4.7-19.8c0.2-0.2,0.3-0.4,0.3-0.7c0-0.6-0.4-1-1-1s-1,0.4-1,1   c0,0.4,0.3,0.8,0.7,0.9l4.8,20c-0.1,0.2-0.2,0.4-0.2,0.6c0,0.4,0.2,0.7,0.5,0.8v10c-0.6,0.2-1,0.8-1,1.4c0,0.2,0.1,0.5,0.2,0.7   L29,60c-0.1,0-0.1,0-0.2,0c-0.6,0-1,0.4-1,1c0,0.6,0.4,1,1,1s1-0.4,1-1c0-0.1,0-0.2-0.1-0.3l8.4-8.6c0.2,0.1,0.4,0.1,0.6,0.1   c0.3,0,0.5-0.1,0.7-0.2l16.8,14.4c0,0.1,0,0.1,0,0.2c0,0.6,0.4,1,1,1s1-0.4,1-1C58.3,66.1,57.8,65.6,57.3,65.6z"/></g><text x="0" y="90" fill="#000000" font-size="5px" font-weight="bold" font-family="'Helvetica Neue', Helvetica, Arial-Unicode, Arial, Sans-serif">Created by Kukuh Wachyu Bias</text><text x="0" y="95" fill="#000000" font-size="5px" font-weight="bold" font-family="'Helvetica Neue', Helvetica, Arial-Unicode, Arial, Sans-serif">from the Noun Project</text></svg>