<svg xmlns="http://www.w3.org/2000/svg" xmlns:xlink="http://www.w3.org/1999/xlink" version="1.1" x="0px" y="0px" viewBox="0 0 75 93.75" style="enable-background:new 0 0 75 75;" xml:space="preserve"><g><path d="M55.1,42.2l-0.5-3.9c0.5-0.3,0.8-0.7,0.8-1.3c0-0.8-0.7-1.5-1.5-1.5c-0.4,0-0.7,0.1-0.9,0.3l-13.4-5.5   c0,0,0-0.1,0-0.1c0-0.8-0.7-1.5-1.5-1.5c-0.6,0-1.1,0.3-1.3,0.8l-19.6-3.3c-0.1-0.4-0.5-0.6-0.9-0.6c-0.6,0-1,0.4-1,1   c0,0.6,0.4,1,1,1c0.3,0,0.6-0.1,0.8-0.4l19.6,3.3c0.1,0.7,0.7,1.2,1.5,1.2c0.4,0,0.8-0.2,1.1-0.5l13.2,5.4c0,0.1,0,0.2,0,0.3   c0,0.7,0.5,1.3,1.2,1.5l0.5,3.9c-0.2,0.2-0.4,0.5-0.4,0.8c0,0.6,0.4,1,1,1s1-0.4,1-1C55.7,42.7,55.4,42.3,55.1,42.2z"/></g><text x="0" y="90" fill="#000000" font-size="5px" font-weight="bold" font-family="'Helvetica Neue', Helvetica, Arial-Unicode, Arial, Sans-serif">Created by Kukuh Wachyu Bias</text><text x="0" y="95" fill="#000000" font-size="5px" font-weight="bold" font-family="'Helvetica Neue', Helvetica, Arial-Unicode, Arial, Sans-serif">from the Noun Project</text></svg>