<svg xmlns="http://www.w3.org/2000/svg" xmlns:xlink="http://www.w3.org/1999/xlink" version="1.1" x="0px" y="0px" viewBox="0 0 100 125" style="enable-background:new 0 0 100 100;" xml:space="preserve"><path d="M61.8486328,63.4443359L46.4760742,23.9316406l19.6704102,14.7958984l-0.0400391,0.2260742L61.8486328,63.4443359z   M48.1303711,26.1142578l13.440918,34.5488281l3.7568359-21.6123047L48.1303711,26.1142578z"/><polygon points="38.2519531,47.0942383 30.6640625,47.0942383 30.6640625,46.3442383 37.7578125,46.3442383 46.9584961,24.875   47.6479492,25.1708984 "/><polygon points="48.4941406,75.1044922 47.7441406,75.1044922 47.7441406,67.8457031 61.5576172,61.7109375 61.8623047,62.3964844   48.4941406,68.3339844 "/><g><g><path d="M66.2267532,41.2365417c3.8607178,0,3.8671112-6,0-6C62.3660393,35.2365417,62.3596458,41.2365417,66.2267532,41.2365417    L66.2267532,41.2365417z"/></g></g><g><g><path d="M47.8140297,27.2071781c2.5738106,0,2.5780716-4,0-4C45.2402191,23.2071781,45.2359581,27.2071781,47.8140297,27.2071781    L47.8140297,27.2071781z"/></g></g><g><g><path d="M40.778141,40.704731c1.2869034,0,1.2890358-2,0-2C39.4912376,38.704731,39.4891052,40.704731,40.778141,40.704731    L40.778141,40.704731z"/></g></g><g><g><path d="M38.168026,48.056282c1.9303551,0,1.9335556-3,0-3C36.2376709,45.056282,36.2344704,48.056282,38.168026,48.056282    L38.168026,48.056282z"/></g></g><g><g><path d="M30.6639481,48.2194138c1.9303551,0,1.9335556-3,0-3C28.7335911,45.2194138,28.7303944,48.2194138,30.6639481,48.2194138    L30.6639481,48.2194138z"/></g></g><g><g><path d="M48.4453506,76.4412689c1.9303551,0,1.9335556-3,0-3C46.5149956,73.4412689,46.511795,76.4412689,48.4453506,76.4412689    L48.4453506,76.4412689z"/></g></g><g><g><path d="M47.7928238,69.5897217c1.9303551,0,1.9335518-3,0-3C45.8624649,66.5897217,45.8592682,69.5897217,47.7928238,69.5897217    L47.7928238,69.5897217z"/></g></g><g><g><path d="M61.1696587,64.2169647c2.5738068,0,2.5780716-4,0-4C58.5958481,60.2169647,58.5915871,64.2169647,61.1696587,64.2169647    L61.1696587,64.2169647z"/></g></g><text x="0" y="115" fill="#000000" font-size="5px" font-weight="bold" font-family="'Helvetica Neue', Helvetica, Arial-Unicode, Arial, Sans-serif">Created by eukisuri</text><text x="0" y="120" fill="#000000" font-size="5px" font-weight="bold" font-family="'Helvetica Neue', Helvetica, Arial-Unicode, Arial, Sans-serif">from the Noun Project</text></svg>