<svg xmlns="http://www.w3.org/2000/svg" xmlns:xlink="http://www.w3.org/1999/xlink" version="1.1" x="0px" y="0px" viewBox="0 0 75 93.75" style="enable-background:new 0 0 75 75;" xml:space="preserve"><g><path d="M62.7,41.4c-0.5,0-0.9,0.3-1,0.8l-4,1.7c-0.3-0.3-0.7-0.5-1.1-0.5c-0.1,0-0.2,0-0.4,0l-3.7-6.2   c0.1-0.1,0.1-0.3,0.1-0.5c0-0.6-0.4-1-1-1c-0.2,0-0.4,0.1-0.5,0.2L42.1,31c0-0.1,0-0.2,0-0.2c0-0.8-0.7-1.5-1.5-1.5   c-0.2,0-0.4,0.1-0.6,0.1L36,25.5c0.1-0.2,0.2-0.4,0.2-0.7c0-0.8-0.7-1.5-1.5-1.5s-1.5,0.7-1.5,1.5c0,0.2,0.1,0.4,0.1,0.6l-3.6,3.6   c-0.1,0-0.1,0-0.2,0c-0.6,0-1,0.4-1,1c0,0.6,0.4,1,1,1c0.3,0,0.5-0.1,0.7-0.3l5.3,1.6c0.1,0.4,0.5,0.7,0.9,0.7c0.5,0,0.9-0.4,1-0.8   l1.9-0.6c0.1,0.1,0.2,0.2,0.2,0.3l-2,5.6H27.4c-0.2-0.3-0.5-0.5-0.9-0.5c-0.2,0-0.5,0.1-0.6,0.3l-3.5-1.4c0-0.5-0.5-0.9-1-0.9   c-0.6,0-1,0.4-1,1c0,0.2,0.1,0.4,0.2,0.5L18,55.3c-0.4,0.2-0.6,0.5-0.6,0.9c0,0.1,0,0.1,0,0.2L17,56.8c-0.2-0.1-0.5-0.2-0.7-0.2   c-0.8,0-1.5,0.7-1.5,1.5s0.7,1.5,1.5,1.5s1.5-0.7,1.5-1.5c0-0.2,0-0.4-0.1-0.6l0.5-0.4c0.1,0,0.2,0.1,0.3,0.1c0.6,0,1-0.4,1-1   c0-0.3-0.2-0.6-0.4-0.8l1.6-11.7l1.3,13.6c-0.3,0.2-0.5,0.5-0.5,0.9c0,0.6,0.4,1,1,1c0.1,0,0.3,0,0.4-0.1l2.3,2.3   c0,0.1-0.1,0.2-0.1,0.3c0,0.6,0.4,1,1,1c0.6,0,1-0.4,1-1c0-0.6-0.4-1-1-1c-0.1,0-0.2,0-0.2,0l-2.4-2.5c0,0,0,0,0-0.1   c0-0.3-0.2-0.6-0.5-0.8l-1.5-14.9l2.9,5.1c-0.2,0.3-0.4,0.6-0.4,1c0,0.8,0.7,1.5,1.5,1.5s1.5-0.7,1.5-1.5S26.3,47,25.5,47   c-0.1,0-0.2,0-0.3,0l-3.8-6.6l4.5-1.7c0.2,0.1,0.4,0.2,0.6,0.2c0.4,0,0.6-0.2,0.8-0.5h11l2.2-6.2c0,0,0,0,0,0c0.4,0,0.7-0.2,1-0.4   l9.1,4.9c0,0,0,0.1,0,0.1L41,44.3c-0.1,0-0.2-0.1-0.4-0.1c-0.6,0-1,0.4-1,1c0,0.6,0.4,1,1,1c0.6,0,1-0.4,1-1c0,0,0-0.1,0-0.1   l9.7-7.4c0.1,0,0.2,0.1,0.4,0.1c0,0,0,0,0,0l3.8,6.2c-0.2,0.3-0.3,0.6-0.3,0.9c0,0.8,0.7,1.5,1.5,1.5s1.5-0.7,1.5-1.5   c0,0,0-0.1,0-0.1l3.9-1.6c0.2,0.2,0.4,0.3,0.7,0.3c0.6,0,1-0.4,1-1C63.7,41.8,63.2,41.4,62.7,41.4z M21.1,39.5l0.3-2.6   c0.1,0,0.3-0.1,0.4-0.1l3.2,1.2L21.1,39.5z M37.1,31.3c-0.2-0.1-0.4-0.2-0.6-0.2c-0.3,0-0.5,0.1-0.7,0.3l-5.3-1.6c0,0,0,0,0,0   l3.5-3.6c0.2,0.1,0.4,0.2,0.7,0.2c0.2,0,0.4-0.1,0.6-0.1l3.9,3.9c-0.1,0.2-0.1,0.4-0.1,0.6L37.1,31.3z"/></g><text x="0" y="90" fill="#000000" font-size="5px" font-weight="bold" font-family="'Helvetica Neue', Helvetica, Arial-Unicode, Arial, Sans-serif">Created by Kukuh Wachyu Bias</text><text x="0" y="95" fill="#000000" font-size="5px" font-weight="bold" font-family="'Helvetica Neue', Helvetica, Arial-Unicode, Arial, Sans-serif">from the Noun Project</text></svg>