<svg xmlns="http://www.w3.org/2000/svg" xmlns:xlink="http://www.w3.org/1999/xlink" version="1.1" x="0px" y="0px" viewBox="0 0 75 93.75" style="enable-background:new 0 0 75 75;" xml:space="preserve"><g><path d="M63.5,19.4c0.2,0.3,0.5,0.5,0.8,0.5c0.6,0,1-0.4,1-1c0-0.6-0.4-1-1-1c-0.4,0-0.7,0.2-0.8,0.5h-5.2l4.3-5   c0.1,0,0.1,0,0.2,0c0.6,0,1-0.4,1-1c0-0.6-0.4-1-1-1s-1,0.4-1,1c0,0.1,0,0.2,0.1,0.3l-4.9,5.8l-7,3.2c-0.2-0.1-0.3-0.2-0.6-0.2   c-0.6,0-1,0.4-1,1c0,0.2,0.1,0.4,0.2,0.5l-4.3,11.2c-0.5,0.1-0.8,0.5-0.8,1c0,0.4,0.2,0.7,0.6,0.9l1,14.7c-0.6,0.2-1,0.8-1,1.4   c0,0.1,0,0.2,0,0.3l-6.8,4.9c-0.2-0.1-0.5-0.2-0.7-0.2c-0.6,0-1.2,0.4-1.4,0.9l-14-0.8c-0.2-0.6-0.8-1.1-1.4-1.1   c-0.1,0-0.2,0-0.3,0l-4.2-6.1c0.1-0.1,0.1-0.3,0.1-0.4c0-0.1,0-0.2,0-0.2l11.9-11.4c0.2,0.1,0.4,0.2,0.7,0.2c0.8,0,1.5-0.7,1.5-1.5   s-0.7-1.5-1.5-1.5s-1.5,0.7-1.5,1.5c0,0.2,0,0.4,0.1,0.6L14.5,48.8c-0.1,0-0.2-0.1-0.3-0.1c-0.6,0-1,0.4-1,1c0,0.6,0.4,1,1,1   c0,0,0,0,0.1,0l4.2,6.1c-0.2,0.3-0.3,0.6-0.3,0.9c0,0.8,0.7,1.5,1.5,1.5c0.6,0,1.2-0.4,1.4-0.9l14,0.8c0.2,0.6,0.8,1.1,1.4,1.1   c0.8,0,1.5-0.7,1.5-1.5c0-0.2,0-0.4-0.1-0.6l6.7-4.8c0.3,0.2,0.6,0.3,0.9,0.3c0.8,0,1.5-0.7,1.5-1.5c0-0.6-0.4-1.2-1-1.4L45,36   c0.3-0.2,0.4-0.5,0.4-0.8c0-0.2-0.1-0.4-0.2-0.6l4.2-11.1c0.5,0,0.8-0.4,0.9-0.9l6.9-3.2l5,3.2c0,0.1,0,0.2,0,0.3   c0,0.8,0.7,1.5,1.5,1.5s1.5-0.7,1.5-1.5s-0.7-1.5-1.5-1.5c-0.3,0-0.7,0.1-0.9,0.3L59,19.4H63.5z"/></g><text x="0" y="90" fill="#000000" font-size="5px" font-weight="bold" font-family="'Helvetica Neue', Helvetica, Arial-Unicode, Arial, Sans-serif">Created by Kukuh Wachyu Bias</text><text x="0" y="95" fill="#000000" font-size="5px" font-weight="bold" font-family="'Helvetica Neue', Helvetica, Arial-Unicode, Arial, Sans-serif">from the Noun Project</text></svg>