<svg xmlns="http://www.w3.org/2000/svg" xmlns:xlink="http://www.w3.org/1999/xlink" version="1.1" x="0px" y="0px" viewBox="0 0 100 125" style="enable-background:new 0 0 100 100;" xml:space="preserve"><polygon points="93.9863281,73.7353516 90.3427734,68.9033203 87.6660156,61.3457031 68.2558594,62.9628906 68.1503906,62.8984375   54.8310547,54.6767578 52.6855469,49.2314453 39.875,33.6645508 13.6635742,17.3837891 14.059082,16.7470703 40.4150391,33.1401367   53.3613281,48.9013672 55.4365234,54.1689453 68.4394531,62.1953125 88.1796875,60.5507813 91.0302734,68.5976563   94.5839844,73.2822266 "/><polygon points="55.0927734,54.7958984 50.6875,54.3066406 38.7026367,50.355957 3.2885742,36.9921875 3.5532227,36.2900391   38.9526367,49.6489258 50.8466797,53.5771484 55.1748047,54.0498047 "/><polygon points="63.8027344,81.0703125 57.5761719,72.4873047 68.0869141,62.3095703 68.6083984,62.8486328 58.5644531,72.5732422   64.4101563,80.6289063 "/><g><g><path d="M13.2088089,18.2495918c2.5738096,0,2.5780725-4,0-4C10.6350002,14.2495918,10.6307373,18.2495918,13.2088089,18.2495918    L13.2088089,18.2495918z"/></g></g><g><g><path d="M39.7993469,35.7153358c3.2172623,0,3.2225914-5.0000019,0-5.0000019    C36.5820847,30.7153339,36.5767555,35.7153358,39.7993469,35.7153358L39.7993469,35.7153358z"/></g></g><g><g><path d="M47.3034248,43.8507347c1.9303589,0,1.9335556-3,0-3C45.3730698,40.8507347,45.369873,43.8507347,47.3034248,43.8507347    L47.3034248,43.8507347z"/></g></g><g><g><path d="M52.6867867,50.2128868c1.9303551,0,1.9335556-3,0-3C50.7564278,47.2128868,50.753231,50.2128868,52.6867867,50.2128868    L52.6867867,50.2128868z"/></g></g><g><g><path d="M54.9706345,55.5962486c1.9303589,0,1.9335556-3,0-3C53.0402794,52.5962486,53.0370827,55.5962486,54.9706345,55.5962486    L54.9706345,55.5962486z"/></g></g><g><g><path d="M49.9135399,54.7699852c1.2869034,0,1.2890358-2,0-2C48.6266365,52.7699852,48.6245041,54.7699852,49.9135399,54.7699852    L49.9135399,54.7699852z"/></g></g><g><g><path d="M38.6574211,51.6916809c2.5738106,0,2.5780754-4,0-4C36.0836143,47.6916809,36.0793495,51.6916809,38.6574211,51.6916809    L38.6574211,51.6916809z"/></g></g><g><g><path d="M4.5628057,38.9673729c2.5738091,0,2.5780725-4,0-4C1.9889967,34.9673729,1.9847337,38.9673729,4.5628057,38.9673729    L4.5628057,38.9673729z"/></g></g><g><g><path d="M68.1843414,64.7422485c2.5738068,0,2.5780716-3.9999962,0-3.9999962    C65.610527,60.7422523,65.6062698,64.7422485,68.1843414,64.7422485L68.1843414,64.7422485z"/></g></g><g><g><path d="M87.7601929,62.4477959c1.9303589,0,1.9335556-3,0-3C85.8298416,59.4477959,85.8266449,62.4477959,87.7601929,62.4477959    L87.7601929,62.4477959z"/></g></g><g><g><path d="M90.6965714,70.2781372c1.9303589,0,1.9335556-3,0-3C88.7662201,67.2781372,88.7630234,70.2781372,90.6965714,70.2781372    L90.6965714,70.2781372z"/></g></g><g><g><path d="M94.2854843,74.3458405c1.2869034,0,1.289032-2,0-2C92.9985733,72.3458405,92.9964447,74.3458405,94.2854843,74.3458405    L94.2854843,74.3458405z"/></g></g><g><g><path d="M64.1060333,82.1867828c1.9303589,0,1.9335556-3,0-3C62.1756783,79.1867828,62.1724815,82.1867828,64.1060333,82.1867828    L64.1060333,82.1867828z"/></g></g><g><g><path d="M58.3964119,74.1933136c1.9303551,0,1.9335518-3,0-3C56.466053,71.1933136,56.4628563,74.1933136,58.3964119,74.1933136    L58.3964119,74.1933136z"/></g></g><text x="0" y="115" fill="#000000" font-size="5px" font-weight="bold" font-family="'Helvetica Neue', Helvetica, Arial-Unicode, Arial, Sans-serif">Created by eukisuri</text><text x="0" y="120" fill="#000000" font-size="5px" font-weight="bold" font-family="'Helvetica Neue', Helvetica, Arial-Unicode, Arial, Sans-serif">from the Noun Project</text></svg>