<svg xmlns="http://www.w3.org/2000/svg" xmlns:xlink="http://www.w3.org/1999/xlink" version="1.1" x="0px" y="0px" viewBox="0 0 100 125" style="enable-background:new 0 0 100 100;" xml:space="preserve"><polygon points="35.4208984,77.7841797 34.7587891,77.4326172 47.972168,52.5341797 49.6279297,39.2260742 46.2993164,11.2578125   47.0444336,11.1699219 50.3725586,39.2285156 48.6669922,52.8251953 "/><rect x="61.7296486" y="47.783638" transform="matrix(0.7779571 -0.6283174 0.6283174 0.7779571 -30.0018368 54.4970093)" width="0.7496861" height="43.8262787"/><g><g><path d="M46.9983673,13.3768349c2.5738106,0,2.5780754-4,0-4C44.4245605,9.3768349,44.4202957,13.3768349,46.9983673,13.3768349    L46.9983673,13.3768349z"/></g></g><g><g><path d="M49.9347458,41.9355621c3.2172623,0,3.2225914-5,0-5C46.7174873,36.9355621,46.7121582,41.9355621,49.9347458,41.9355621    L49.9347458,41.9355621z"/></g></g><g><g><path d="M48.6296883,56.1492653c4.5041695,0,4.5116272-7,0-7C44.1255226,49.1492653,44.1180649,56.1492653,48.6296883,56.1492653    L48.6296883,56.1492653z"/></g></g><g><g><path d="M35.5791206,79.2928238c3.2172585,0,3.2225876-5,0-5C32.3618584,74.2928238,32.3565292,79.2928238,35.5791206,79.2928238    L35.5791206,79.2928238z"/></g></g><g><g><path d="M75.872757,88.7438812c2.5738068,0,2.5780716-4,0-4C73.2989502,84.7438812,73.2946854,88.7438812,75.872757,88.7438812    L75.872757,88.7438812z"/></g></g><g><g><path d="M84.1924973,25.6117458c2.5738068,0,2.5780716-4,0-4C81.6186905,21.6117458,81.6144257,25.6117458,84.1924973,25.6117458    L84.1924973,25.6117458z"/></g></g><g><g><path d="M88.7601929,13.3768349c2.5738144,0,2.5780716-4,0-4C86.1863861,9.3768349,86.1821213,13.3768349,88.7601929,13.3768349    L88.7601929,13.3768349z"/></g></g><g><g><path d="M12.7406197,71.7781372c2.5738096,0,2.5780725-4,0-4C10.166811,67.7781372,10.1625481,71.7781372,12.7406197,71.7781372    L12.7406197,71.7781372z"/></g></g><text x="0" y="115" fill="#000000" font-size="5px" font-weight="bold" font-family="'Helvetica Neue', Helvetica, Arial-Unicode, Arial, Sans-serif">Created by eukisuri</text><text x="0" y="120" fill="#000000" font-size="5px" font-weight="bold" font-family="'Helvetica Neue', Helvetica, Arial-Unicode, Arial, Sans-serif">from the Noun Project</text></svg>