<svg xmlns="http://www.w3.org/2000/svg" xmlns:xlink="http://www.w3.org/1999/xlink" version="1.1" x="0px" y="0px" viewBox="0 0 100 125" style="enable-background:new 0 0 100 100;" xml:space="preserve"><polygon points="23.3325195,82.0224609 19.2939453,63.4804688 17.8452148,58.3603516 17.8452148,40.5043945 33.7285156,31.2700195   47.1533203,41.5332031 54.9589844,37.2216797 60.9375,41.2080078 73.5029297,37.2016602 78.4296875,48.0009766   67.1103516,59.3193359 71.1035156,66.0898438 70.4570313,66.4707031 66.1689453,59.2001953 77.53125,47.8388672   73.0966797,38.1186523 60.8222656,42.0322266 54.921875,38.0986328 47.0869141,42.4267578 33.671875,32.1704102   18.5952148,40.9360352 18.5952148,58.3076172 20.0205078,63.2978516 23.9077148,81.1376953 41.9042969,77.4326172   42.0556641,78.1669922 "/><rect x="32.6053658" y="73.9214096" transform="matrix(0.1979449 -0.9802132 0.9802132 0.1979449 -55.3668404 99.2751236)" width="0.7492265" height="19.0976086"/><rect x="81.4746704" y="45.6276779" transform="matrix(0.480495 -0.8769975 0.8769975 0.480495 -1.3634531 97.7783813)" width="0.7508591" height="8.8247213"/><rect x="71.6798172" y="33.5050583" transform="matrix(0.6899801 -0.7238283 0.7238283 0.6899801 -0.6828994 66.1658325)" width="10.440177" height="0.7501348"/><polygon points="52.3740234,47.4941406 46.8618164,42.2519531 47.378418,41.7080078 52.4658203,46.5458984 60.6777344,41.3041992   61.0820313,41.9360352 "/><polygon points="54.5683594,37.7104492 52.5878906,23.1303711 48.8305664,13.4956055 49.5297852,13.2241211 53.3095703,22.9443359   55.3125,37.6098633 "/><g><g><path d="M33.7000008,33.5800018c1.9303551,0,1.9335518-3.0000019,0-3.0000019    C31.7696438,30.5799999,31.7664452,33.5800018,33.7000008,33.5800018L33.7000008,33.5800018z"/></g></g><g><g><path d="M49.1800003,15.2200003c1.9303551,0,1.9335556-3,0-3C47.2496414,12.2200003,47.2464447,15.2200003,49.1800003,15.2200003    L49.1800003,15.2200003z"/></g></g><g><g><path d="M79.9599991,32.1399994c1.9303589,0,1.9335556-3,0-3C78.0296402,29.1399994,78.0264435,32.1399994,79.9599991,32.1399994    L79.9599991,32.1399994z"/></g></g><g><g><path d="M85.1800003,53.3800011c1.9303589,0,1.9335556-3,0-3C83.2496414,50.3800011,83.2464447,53.3800011,85.1800003,53.3800011    L85.1800003,53.3800011z"/></g></g><g><g><path d="M70.9599991,67.9599991c1.9303589,0,1.9335556-3,0-3C69.0296402,64.9599991,69.0264435,67.9599991,70.9599991,67.9599991    L70.9599991,67.9599991z"/></g></g><g><g><path d="M18.2199993,42.0400009c1.930357,0,1.9335556-3,0-3C16.2896423,39.0400009,16.2864456,42.0400009,18.2199993,42.0400009    L18.2199993,42.0400009z"/></g></g><g><g><path d="M19.2999992,64.5400009c1.930357,0,1.9335556-3,0-3C17.3696423,61.5400009,17.3664455,64.5400009,19.2999992,64.5400009    L19.2999992,64.5400009z"/></g></g><g><g><path d="M18.2199993,60.0400009c1.930357,0,1.9335556-3,0-3C16.2896423,57.0400009,16.2864456,60.0400009,18.2199993,60.0400009    L18.2199993,60.0400009z"/></g></g><g><g><path d="M23.6200008,83.4000015c2.5738087,0,2.5780716-4,0-4C21.0461903,79.4000015,21.0419273,83.4000015,23.6200008,83.4000015    L23.6200008,83.4000015z"/></g></g><g><g><path d="M42.1599998,79.6600037c1.9303589,0,1.9335556-3,0-3C40.2296448,76.6600037,40.2264442,79.6600037,42.1599998,79.6600037    L42.1599998,79.6600037z"/></g></g><g><g><path d="M42.1599998,87.0400009c1.9303589,0,1.9335556-3,0-3C40.2296448,84.0400009,40.2264442,87.0400009,42.1599998,87.0400009    L42.1599998,87.0400009z"/></g></g><g><g><path d="M77.8000031,50.2799988c2.5738068,0,2.5780716-4,0-4C75.2261887,46.2799988,75.2219315,50.2799988,77.8000031,50.2799988    L77.8000031,50.2799988z"/></g></g><g><g><path d="M72.9400024,39.6599998c2.5738068,0,2.5780716-4,0-4C70.366188,35.6599998,70.3619308,39.6599998,72.9400024,39.6599998    L72.9400024,39.6599998z"/></g></g><g><g><path d="M61.0600014,44.1599998c2.5738068,0,2.5780716-4,0-4C58.4861908,40.1599998,58.481926,44.1599998,61.0600014,44.1599998    L61.0600014,44.1599998z"/></g></g><g><g><path d="M52.5999985,48.8400002c2.5738106,0,2.5780754-4,0-4C50.0261917,44.8400002,50.0219269,48.8400002,52.5999985,48.8400002    L52.5999985,48.8400002z"/></g></g><g><g><path d="M47.2000008,44.1599998c2.5738068,0,2.5780716-4,0-4C44.6261902,40.1599998,44.6219292,44.1599998,47.2000008,44.1599998    L47.2000008,44.1599998z"/></g></g><g><g><path d="M54.9399986,39.1599998c1.9303589,0,1.9335556-3,0-3C53.0096436,36.1599998,53.0064468,39.1599998,54.9399986,39.1599998    L54.9399986,39.1599998z"/></g></g><g><g><path d="M66.8199997,62.6199989c3.8607178,0,3.8671112-6,0-6C62.9592857,56.6199989,62.9528923,62.6199989,66.8199997,62.6199989    L66.8199997,62.6199989z"/></g></g><g><g><path d="M53.1399994,26.6200008c3.860714,0,3.8671074-6,0-6C49.2792854,20.6200008,49.272892,26.6200008,53.1399994,26.6200008    L53.1399994,26.6200008z"/></g></g><text x="0" y="115" fill="#000000" font-size="5px" font-weight="bold" font-family="'Helvetica Neue', Helvetica, Arial-Unicode, Arial, Sans-serif">Created by eukisuri</text><text x="0" y="120" fill="#000000" font-size="5px" font-weight="bold" font-family="'Helvetica Neue', Helvetica, Arial-Unicode, Arial, Sans-serif">from the Noun Project</text></svg>