<svg xmlns="http://www.w3.org/2000/svg" xmlns:xlink="http://www.w3.org/1999/xlink" version="1.1" x="0px" y="0px" viewBox="0 0 75 93.75" style="enable-background:new 0 0 75 75;" xml:space="preserve"><g><path d="M65.2,55c-0.2,0-0.4,0.1-0.6,0.1l-1.8-1.6c0-0.1,0-0.1,0-0.2c0-0.6-0.4-1-1-1c-0.5,0-1,0.4-1,0.9l-2.6,1.2   c-0.2-0.1-0.3-0.2-0.5-0.2c-0.3,0-0.5,0.1-0.7,0.3l-5.1-1.3c-0.1-0.4-0.5-0.6-0.9-0.6c-0.3,0-0.6,0.1-0.7,0.3l-7.4-0.3   c-0.2-0.6-0.8-1.1-1.4-1.1c-0.7,0-1.3,0.5-1.5,1.2l-13.9,2l-5.6,1.1c-0.2-0.2-0.4-0.3-0.7-0.3c-0.4,0-0.7,0.2-0.9,0.6l-6.4,1.2   L32.1,34c0,0,0.1,0,0.1,0c0.6,0,1-0.4,1-1c0-0.5-0.4-1-1-1l-0.9-1.9c0.3-0.3,0.5-0.7,0.5-1.1c0-0.2,0-0.4-0.1-0.5l3.6-2.7   c0.1,0,0.2,0.1,0.4,0.1c0.6,0,1-0.4,1-1c0-0.6-0.4-1-1-1c-0.6,0-1,0.4-1,1c0,0,0,0.1,0,0.1l-3.6,2.8c-0.2-0.1-0.5-0.2-0.8-0.2   c-0.8,0-1.5,0.7-1.5,1.5s0.7,1.5,1.5,1.5c0,0,0,0,0.1,0l1,2c-0.1,0.1-0.1,0.3-0.1,0.5c0,0.1,0,0.2,0.1,0.4L11.2,57.2   c-0.1,0-0.1,0-0.2,0c-0.6,0-1,0.4-1,1c0,0.1,0,0.2,0.1,0.3l-0.4,0.4l0.5-0.1c0.2,0.2,0.4,0.4,0.7,0.4c0.4,0,0.8-0.3,0.9-0.7   l6.9-1.3c0.2,0.2,0.5,0.4,0.8,0.4c0.5,0,0.8-0.3,1-0.8l5.5-1.1l13.8-2c0.2,0.5,0.8,0.9,1.3,0.9c0.6,0,1.2-0.4,1.4-0.9l7.2,0.2   c0.1,0.4,0.5,0.7,0.9,0.7c0.3,0,0.6-0.1,0.8-0.4l5,1.3c0.1,0.2,0.2,0.4,0.3,0.5l-0.1,0.8c-0.6,0.2-1.1,0.7-1.1,1.4   c0,0.8,0.7,1.5,1.5,1.5c0.5,0,0.9-0.2,1.1-0.5l2.7,0.8c0.1,0.4,0.5,0.7,0.9,0.7c0.6,0,1-0.4,1-1c0-0.1,0-0.2-0.1-0.4l1.5-1.6   c0.2,0.1,0.4,0.1,0.6,0.1c0.8,0,1.5-0.7,1.5-1.5S66,55,65.2,55z M57.9,56.9l0.1-0.7c0.3-0.1,0.6-0.5,0.6-0.8l2.6-1.2   c0.2,0.1,0.3,0.2,0.5,0.2c0.1,0,0.2,0,0.3-0.1l1.8,1.6c-0.1,0.2-0.2,0.4-0.2,0.6c0,0.2,0.1,0.4,0.2,0.6l-1.5,1.7c0,0-0.1,0-0.1,0   c-0.3,0-0.5,0.1-0.7,0.3l-2.6-0.8c0,0,0,0,0,0C58.8,57.7,58.4,57.1,57.9,56.9z"/></g><text x="0" y="90" fill="#000000" font-size="5px" font-weight="bold" font-family="'Helvetica Neue', Helvetica, Arial-Unicode, Arial, Sans-serif">Created by Kukuh Wachyu Bias</text><text x="0" y="95" fill="#000000" font-size="5px" font-weight="bold" font-family="'Helvetica Neue', Helvetica, Arial-Unicode, Arial, Sans-serif">from the Noun Project</text></svg>