<svg xmlns="http://www.w3.org/2000/svg" xmlns:xlink="http://www.w3.org/1999/xlink" version="1.1" x="0px" y="0px" viewBox="0 0 75 93.75" style="enable-background:new 0 0 75 75;" xml:space="preserve"><g><path d="M68.3,18.7c-0.2,0-0.5,0.1-0.7,0.2l-2.6-2.6c0-0.1,0.1-0.2,0.1-0.3c0-0.6-0.4-1-1-1c-0.6,0-1,0.4-1,1   c0,0,0,0,0,0l-6.6,4.5c-0.2-0.2-0.6-0.3-0.9-0.3c-0.8,0-1.5,0.7-1.5,1.5c0,0.5,0.3,1,0.7,1.2l-1.5,5.8c-0.3,0.1-0.5,0.3-0.6,0.5   l-25.9,3.1c-0.2-0.2-0.5-0.4-0.8-0.4c-0.6,0-1,0.4-1,1c0,0.1,0,0.1,0,0.2L7.3,49.4c-0.2-0.1-0.4-0.2-0.7-0.2   c-0.8,0-1.5,0.7-1.5,1.5s0.7,1.5,1.5,1.5c0.7,0,1.2-0.4,1.4-1l23.2-0.4c0.2,0.3,0.5,0.4,0.8,0.4c0.3,0,0.6-0.2,0.8-0.4l33,1.8   c0.2,0.3,0.5,0.5,0.9,0.5c0.6,0,1-0.4,1-1c0-0.4-0.2-0.7-0.6-0.9l-1.1-14.3c0.3-0.2,0.4-0.5,0.4-0.8c0-0.6-0.4-1-1-1   c-0.2,0-0.3,0.1-0.5,0.2l-10.2-5.7c0-0.3-0.1-0.5-0.3-0.7l1.5-5.8c0.8-0.1,1.4-0.7,1.4-1.5c0-0.1,0-0.3-0.1-0.4l6.5-4.5   C63.8,17,64,17,64.1,17c0.1,0,0.1,0,0.2,0l2.6,2.6c-0.1,0.2-0.1,0.4-0.1,0.6c0,0.8,0.7,1.5,1.5,1.5s1.5-0.7,1.5-1.5   C69.8,19.4,69.2,18.7,68.3,18.7z M64.3,36.3c0,0.4,0.2,0.7,0.6,0.9L66,51.4c-0.1,0.1-0.2,0.2-0.3,0.3l-32.9-1.8   c-0.1-0.3-0.4-0.5-0.7-0.6l-5.3-15.6c0.1-0.1,0.1-0.2,0.2-0.3l25.9-3c0.2,0.2,0.5,0.4,0.8,0.4c0.2,0,0.3-0.1,0.5-0.2L64.3,36.3z    M8,50.2l17.8-16.2c0,0,0.1,0,0.1,0l5.3,15.7c-0.1,0.1-0.1,0.1-0.1,0.2L8,50.2C8,50.2,8,50.2,8,50.2z"/></g><text x="0" y="90" fill="#000000" font-size="5px" font-weight="bold" font-family="'Helvetica Neue', Helvetica, Arial-Unicode, Arial, Sans-serif">Created by Kukuh Wachyu Bias</text><text x="0" y="95" fill="#000000" font-size="5px" font-weight="bold" font-family="'Helvetica Neue', Helvetica, Arial-Unicode, Arial, Sans-serif">from the Noun Project</text></svg>