<svg xmlns="http://www.w3.org/2000/svg" xmlns:xlink="http://www.w3.org/1999/xlink" version="1.1" x="0px" y="0px" viewBox="0 0 75 93.75" style="enable-background:new 0 0 75 75;" xml:space="preserve"><circle cx="23.5" cy="67.7" r="1"/><g><path d="M70.8,40.6L70.8,40.6c-0.2-0.2-0.5-0.4-0.8-0.4c-0.5,0-0.8,0.3-0.9,0.7L64.1,42c-0.3-0.5-0.7-0.8-1.3-0.8   c-0.8,0-1.5,0.7-1.5,1.5c0,0.4,0.2,0.7,0.4,1L58.1,49c-0.1,0-0.3-0.1-0.4-0.1c-0.1,0-0.2,0-0.3,0l-5.9-10.3   c-0.1-0.5-0.8-1.7-3.5-5.5c0.2-0.3,0.4-0.6,0.4-1c0-0.3-0.1-0.6-0.2-0.8l6.1-6.4c0.1,0,0.1,0,0.2,0c0.6,0,1-0.4,1-1   c0-0.6-0.4-1-1-1c-0.3,0-0.5,0.1-0.7,0.3l-7.9-3.2c-0.1-0.3-0.3-0.6-0.6-0.7l-1.1-4.6l1.7-1.9c0.1,0,0.1,0,0.2,0c0.6,0,1-0.4,1-1   c0-0.6-0.4-1-1-1c-0.6,0-1,0.4-1,1c0,0.1,0,0.2,0.1,0.3l-2.1,2.2l1.2,5c-0.2,0.2-0.4,0.5-0.4,0.8c0,0.5,0.3,0.8,0.7,0.9l1.4,9.7   c-0.3,0.2-0.4,0.4-0.6,0.7l-5.8,0L11.1,36c-0.1-0.7-0.7-1.3-1.5-1.3c-0.8,0-1.5,0.7-1.5,1.5c0,0.6,0.4,1.2,0.9,1.4L7.7,52.4   c-0.3,0.2-0.5,0.5-0.5,0.9c0,0.6,0.4,1,1,1c0.6,0,1-0.4,1-1c0-0.3-0.2-0.6-0.5-0.8L10,38.1l12.2,17.3c-0.2,0.2-0.3,0.5-0.3,0.9   c0,0.7,0.4,1.2,1,1.4v10.1h1V57.7c0.6-0.2,1-0.8,1-1.4c0-0.2-0.1-0.5-0.2-0.7l15.5-15.9c0.1,0,0.2,0.1,0.4,0.1   c0.4,0,0.7-0.2,0.8-0.5h9.2l5.8,10.2c-0.2,0.2-0.3,0.5-0.4,0.8l-5.7,1.3c-0.2-0.2-0.4-0.3-0.7-0.3c-0.6,0-1,0.4-1,1   c0,0.2,0.1,0.4,0.2,0.6L46,59.4c-0.5,0.1-0.9,0.5-0.9,1c0,0.2,0.1,0.4,0.2,0.6l0,0.1l0.1,0c0.2,0.2,0.5,0.4,0.8,0.4   c0.4,0,0.8-0.3,0.9-0.6l16.7-2.5c0,0,0.1,0,0.1,0c0.6,0,1-0.4,1-1c0-0.2-0.1-0.3-0.1-0.5l5.5-14.7c0.5-0.1,0.8-0.5,0.8-1   C71,41,70.9,40.8,70.8,40.6L70.8,40.6z M53.5,24.2C53.5,24.3,53.5,24.3,53.5,24.2l-6.1,6.5c-0.1,0-0.2-0.1-0.4-0.1L45.6,21   L53.5,24.2z M41.5,38.2c-0.2-0.3-0.5-0.5-0.8-0.5c-0.6,0-1,0.4-1,1c0,0,0,0.1,0,0.1L24.1,54.9c-0.2-0.1-0.4-0.1-0.6-0.1   c-0.1,0-0.3,0-0.4,0.1L10.7,37.3c0.1-0.1,0.2-0.2,0.2-0.3l28.8-4.4h5.8c0.2,0.6,0.8,1,1.4,1c0.1,0,0.2,0,0.2,0   c1.3,1.9,2.5,3.7,3.1,4.6H41.5z M49.9,53.2c0.4,0,0.7-0.3,0.8-0.7l5.7-1.3c0.3,0.4,0.7,0.7,1.3,0.7c0.2,0,0.4,0,0.5-0.1l4.7,5.5   c0,0,0,0,0,0L47,59.8L49.9,53.2z M63.8,56.3C63.8,56.3,63.8,56.3,63.8,56.3c-0.2,0-0.3,0.1-0.5,0.1l-4.4-5.2   c0.1-0.2,0.2-0.5,0.2-0.8c0-0.3-0.1-0.6-0.3-0.9l3.7-5.4c0.1,0,0.1,0,0.2,0c0.7,0,1.3-0.5,1.5-1.2l4.9-1.1L63.8,56.3z"/></g><text x="0" y="90" fill="#000000" font-size="5px" font-weight="bold" font-family="'Helvetica Neue', Helvetica, Arial-Unicode, Arial, Sans-serif">Created by Kukuh Wachyu Bias</text><text x="0" y="95" fill="#000000" font-size="5px" font-weight="bold" font-family="'Helvetica Neue', Helvetica, Arial-Unicode, Arial, Sans-serif">from the Noun Project</text></svg>