<svg xmlns="http://www.w3.org/2000/svg" xmlns:xlink="http://www.w3.org/1999/xlink" version="1.1" x="0px" y="0px" width="512" height="512" x="0" y="0" viewBox="0 0 64 64" style="enable-background:new 0 0 512 512" xml:space="preserve"><g><path d="M59 14.5c-.091 0-.176.02-.265.027l-2.6-6.771a3.489 3.489 0 1 0-5.6-3.035l-7.475 1.6A3.493 3.493 0 1 0 40 11.5c.106 0 .206-.022.31-.031l3.523 8.8a3.448 3.448 0 0 0-.638 4.8l-4.99 6.655a3.5 3.5 0 1 0 .041 6.533l5.923 7.7A3.465 3.465 0 0 0 43.5 48a3.5 3.5 0 0 0 3.5 3.5 3.453 3.453 0 0 0 .948-.147l3.417 5.369a3.538 3.538 0 0 0-.461.68l-9.441-1.77a3.477 3.477 0 0 0-5.871-2.16l-8.192-4.68a3.449 3.449 0 0 0 .1-.792 3.492 3.492 0 0 0-6.977-.223l-6.5 1.5A3.486 3.486 0 0 0 11 47.5a3.461 3.461 0 0 0-.491.05l-3.2-6.939A3.483 3.483 0 1 0 5 41.5a3.461 3.461 0 0 0 .491-.05l3.2 6.939a3.489 3.489 0 1 0 5.784 2.834l6.5-1.5a3.468 3.468 0 0 0 5.434.8l8.191 4.68a3.449 3.449 0 0 0-.1.792 3.489 3.489 0 0 0 6.6 1.6l9.441 1.77A3.492 3.492 0 1 0 54 55.5a3.453 3.453 0 0 0-.948.147l-3.417-5.369A3.466 3.466 0 0 0 50.5 48a3.5 3.5 0 0 0-3.5-3.5 3.466 3.466 0 0 0-1.246.24l-5.923-7.7a3.44 3.44 0 0 0-.026-4.112l4.99-6.655A3.47 3.47 0 0 0 49.5 23c0-.091-.02-.176-.027-.265l6.771-2.6A3.493 3.493 0 1 0 59 14.5Zm-10.244 6.369A3.482 3.482 0 0 0 46 19.5c-.106 0-.206.022-.31.031l-3.523-8.8a3.478 3.478 0 0 0 1.3-2.448l7.475-1.6A3.489 3.489 0 0 0 54 8.5c.091 0 .176-.02.265-.027l2.6 6.771A3.482 3.482 0 0 0 55.5 18c0 .091.02.176.027.265Z" fill="#000000" data-original="#000000"></path></g></svg>