<svg xmlns="http://www.w3.org/2000/svg" xmlns:xlink="http://www.w3.org/1999/xlink" version="1.1" x="0px" y="0px" width="512" height="512" x="0" y="0" viewBox="0 0 64 64" style="enable-background:new 0 0 512 512" xml:space="preserve"><g><path d="M58.5 39.5a3.462 3.462 0 0 0-.862.12l-2.562-4.27a3.483 3.483 0 0 0-1.858-5.775l-.443-5.324a3.469 3.469 0 0 0 1.693-5.084l3.558-4a3.457 3.457 0 0 0 1.474.333A3.5 3.5 0 1 0 56 12a3.468 3.468 0 0 0 .532 1.833l-3.558 4A3.457 3.457 0 0 0 51.5 17.5 3.5 3.5 0 0 0 48 21a3.449 3.449 0 0 0 .434 1.652l-4.282 4.282A3.449 3.449 0 0 0 42.5 26.5c-.106 0-.206.022-.31.031l-1.523-3.8a3.513 3.513 0 1 0-5.547-1.864l-4.27 2.562a3.478 3.478 0 0 0-1.912-.88l-.9-5.414A3.491 3.491 0 0 0 26.5 10.5a3.457 3.457 0 0 0-1.474.337l-3.558-4A3.468 3.468 0 0 0 22 5a3.5 3.5 0 1 0-3.5 3.5 3.457 3.457 0 0 0 1.474-.337l3.558 4a3.467 3.467 0 0 0 2.53 5.289l.9 5.414a3.5 3.5 0 0 0-1.221 1l-6.771-2.6c.007-.089.027-.174.027-.265a3.5 3.5 0 0 0-7 0 3.453 3.453 0 0 0 .147.948l-5.366 3.416A3.466 3.466 0 0 0 4.5 24.5a3.491 3.491 0 0 0-.279 6.972l1.6 7.475a3.482 3.482 0 0 0 2.5 6.446l3.631 6.223a3.487 3.487 0 1 0 5.172 4.676l4.924 2.237A3.341 3.341 0 0 0 22 59a3.54 3.54 0 1 0 .876-2.292l-4.924-2.237A3.341 3.341 0 0 0 18 54a3.453 3.453 0 0 0-.147-.948l5.369-3.417a3.466 3.466 0 0 0 2.278.865A3.5 3.5 0 1 0 22 47a3.453 3.453 0 0 0 .147.948l-5.369 3.417a3.374 3.374 0 0 0-3.1-.758l-3.631-6.223a3.476 3.476 0 0 0-2.269-5.856l-1.6-7.475A3.489 3.489 0 0 0 8 28a3.453 3.453 0 0 0-.147-.948l5.369-3.417a3.447 3.447 0 0 0 5.034-.5l6.771 2.6c-.007.089-.027.174-.027.265a3.5 3.5 0 0 0 3.5 3.5c.069 0 .133-.016.2-.02l1.719 4.72A3.494 3.494 0 1 0 36 37a3.422 3.422 0 0 0-.193-1.094l4.533-3.173a3.464 3.464 0 0 0 2.16.767A3.5 3.5 0 0 0 46 30a3.449 3.449 0 0 0-.434-1.652l4.282-4.282a3.451 3.451 0 0 0 .934.359l.443 5.324a3.486 3.486 0 0 0-.732 6.11l-2.884 8.652c-.037 0-.072-.011-.109-.011a3.5 3.5 0 0 0 0 7 3.457 3.457 0 0 0 1.474-.337l3.558 4A3.468 3.468 0 0 0 52 57a3.5 3.5 0 1 0 3.5-3.5 3.457 3.457 0 0 0-1.474.337l-3.558-4a3.462 3.462 0 0 0-.961-4.692l2.884-8.652c.037 0 .072.011.109.011a3.462 3.462 0 0 0 .862-.12l2.562 4.27A3.488 3.488 0 1 0 58.5 39.5ZM30.581 28.8a3.4 3.4 0 0 0 1.3-3.659l4.27-2.562a3.478 3.478 0 0 0 2.35.924c.106 0 .206-.022.31-.031l1.523 3.805A3.48 3.48 0 0 0 39 30a3.422 3.422 0 0 0 .193 1.094l-4.533 3.173a3.464 3.464 0 0 0-2.16-.767c-.069 0-.133.016-.2.02Z" fill="#000000" data-original="#000000" class=""></path></g></svg>