<svg xmlns="http://www.w3.org/2000/svg" xmlns:xlink="http://www.w3.org/1999/xlink" version="1.1" x="0px" y="0px" width="512" height="512" x="0" y="0" viewBox="0 0 64 64" style="enable-background:new 0 0 512 512" xml:space="preserve"><g><path d="M59 16.5a3.489 3.489 0 0 0-2.971 1.674l-8.54-2.274a3.42 3.42 0 0 0-.158-.914l9.448-6.3A3.466 3.466 0 0 0 59 9.5 3.5 3.5 0 1 0 55.5 6a3.442 3.442 0 0 0 .169 1.019l-9.448 6.3a3.478 3.478 0 0 0-.64-.423l.806-4.434a3.5 3.5 0 1 0-1.968-.356l-.806 4.434a3.437 3.437 0 0 0-2.993 4.323l-4.27 2.562a3.49 3.49 0 1 0-4.23 5.518L29.958 32.5a3.494 3.494 0 0 0-.733 6.9l.555 8.325a3.42 3.42 0 0 0-2.219 3.875l-10.018 5.01a3.432 3.432 0 0 0-3.789-.871l-5.923-7.7a3.458 3.458 0 0 0 .042-4.03l3.816-4.77A3.467 3.467 0 0 0 13 39.5a3.513 3.513 0 1 0-2.873-1.51l-3.816 4.77A3.467 3.467 0 0 0 5 42.5a3.5 3.5 0 0 0 0 7 3.466 3.466 0 0 0 1.246-.24l5.923 7.7A3.465 3.465 0 0 0 11.5 59a3.5 3.5 0 1 0 6.939-.6l10.018-5.01a3.493 3.493 0 1 0 3.318-5.8l-.555-8.325a3.482 3.482 0 0 0 .66-6.21l2.162-7.555A3.5 3.5 0 0 0 37.5 22a3.462 3.462 0 0 0-.12-.862l4.27-2.562a3.464 3.464 0 0 0 5.321-.75l8.54 2.279A3.5 3.5 0 1 0 59 16.5z" fill="#000000" data-original="#000000" class=""></path></g></svg>