<svg xmlns="http://www.w3.org/2000/svg" xmlns:xlink="http://www.w3.org/1999/xlink" version="1.1" x="0px" y="0px" width="512" height="512" x="0" y="0" viewBox="0 0 64 64" style="enable-background:new 0 0 512 512" xml:space="preserve"><g><path d="m59.718 55.575-.443-5.324a3.494 3.494 0 1 0-3.818-5.64L49.439 41.6a3.484 3.484 0 0 0-6.465-2.326l-6.5-1.5A3.485 3.485 0 0 0 34 34.663v-6.326a3.491 3.491 0 1 0-2.349-6.565L26.9 15.961a3.49 3.49 0 0 0-4.97-4.766l-6.654-4.99A3.449 3.449 0 0 0 15.5 5a3.531 3.531 0 1 0-1.427 2.805l6.654 4.99A3.449 3.449 0 0 0 20.5 14a3.5 3.5 0 0 0 3.5 3.5 3.468 3.468 0 0 0 1.349-.272l4.751 5.811a3.481 3.481 0 0 0 1.9 5.3v6.326a3.5 3.5 0 0 0-2.185 1.9l-8.371-1.115A3.5 3.5 0 0 0 18 32.5a3.449 3.449 0 0 0-1.652.434l-8.282-8.282A3.449 3.449 0 0 0 8.5 23 3.5 3.5 0 1 0 5 26.5a3.449 3.449 0 0 0 1.652-.434l8.282 8.282A3.449 3.449 0 0 0 14.5 36a3.5 3.5 0 0 0 6.685 1.434l8.371 1.115a3.478 3.478 0 0 0 6.47 1.176l6.5 1.5a3.461 3.461 0 0 0 .795 2l-4.3 6.448A3.442 3.442 0 0 0 38 49.5a3.5 3.5 0 1 0 2.441 6l3.145 1.747A3.5 3.5 0 1 0 47 54.5a3.481 3.481 0 0 0-2.441 1l-3.145-1.747A3.525 3.525 0 0 0 41.5 53a3.466 3.466 0 0 0-.818-2.221l4.3-6.448A3.442 3.442 0 0 0 46 44.5a3.48 3.48 0 0 0 2.543-1.111l6.018 3.01a3.443 3.443 0 0 0 2.721 4.026l.443 5.324a3.488 3.488 0 1 0 1.993-.174Z" fill="#000000" data-original="#000000"></path></g></svg>