<svg xmlns="http://www.w3.org/2000/svg" version="1.1" xmlns:xlink="http://www.w3.org/1999/xlink" xmlns:svgjs="http://svgjs.com/svgjs" width="512" height="512" x="0" y="0" viewBox="0 0 64 64" style="enable-background:new 0 0 512 512" xml:space="preserve"><g><path d="M59 19.5a3.5 3.5 0 0 0-3.5 3.5 3.457 3.457 0 0 0 .337 1.474l-4 3.558A3.455 3.455 0 0 0 47 29.22l-9.519-2.38a3.475 3.475 0 0 0-4.92-3.024l-8.618-9.942a3.458 3.458 0 0 0 .481-2.584l7.1-3.821a3.461 3.461 0 0 0 4.637.264l4.533 3.172A3.433 3.433 0 0 0 40.5 12a3.5 3.5 0 0 0 7 0 3.433 3.433 0 0 0-.193-1.1l4.533-3.167A3.464 3.464 0 0 0 54 8.5 3.5 3.5 0 1 0 50.5 5a3.433 3.433 0 0 0 .193 1.1L46.16 9.267a3.425 3.425 0 0 0-4.32 0L37.307 6.1A3.433 3.433 0 0 0 37.5 5a3.5 3.5 0 0 0-7 0 3.469 3.469 0 0 0 .073.71l-7.1 3.821a3.493 3.493 0 1 0-4.554 5.269L13.2 30.52c-.068 0-.132-.02-.2-.02a3.49 3.49 0 0 0-2.389 6.043L7.6 42.561a3.488 3.488 0 0 0-2.1 6.59l-.985 6.4a3.495 3.495 0 1 0 1.977.3l.985-6.4a3.477 3.477 0 0 0 1.908-5.994l3.01-6.018a3.373 3.373 0 0 0 3.009-.911l8.191 4.68a3.449 3.449 0 0 0-.1.792 3.49 3.49 0 0 0 4.812 3.24l3.815 4.77a3.517 3.517 0 1 0 1.561-1.25l-3.815-4.77a3.462 3.462 0 0 0-.555-4.592l4.176-8.949A3.332 3.332 0 0 0 37 28.78l9.519 2.38A3.494 3.494 0 0 0 53.5 31a3.457 3.457 0 0 0-.337-1.474l4-3.558A3.5 3.5 0 1 0 59 19.5ZM27.506 38.551a3.283 3.283 0 0 0-2.914.921l-8.192-4.68a3.449 3.449 0 0 0 .1-.792 3.487 3.487 0 0 0-1.419-2.8L20.8 15.48c.068 0 .132.02.2.02a3.47 3.47 0 0 0 1.436-.316l8.618 9.942a3.452 3.452 0 0 0 .628 4.476Z" fill="#000000" data-original="#000000"></path></g></svg>